<mxfile host="app.diagrams.net" agent="Mozilla/5.0 (Windows NT 10.0; Win64; x64) AppleWebKit/537.36 (KHTML, like Gecko) Chrome/127.0.0.0 Safari/537.36" version="24.7.7">
  <diagram name="Page-1" id="T2PSHh5Ej9TJs7pRiYv2">
    <mxGraphModel dx="1562" dy="810" grid="1" gridSize="10" guides="1" tooltips="1" connect="1" arrows="1" fold="1" page="1" pageScale="1" pageWidth="827" pageHeight="1169" math="0" shadow="0">
      <root>
        <mxCell id="0" />
        <mxCell id="1" parent="0" />
        <mxCell id="mWnzP0U88Y1ZApxrXtzR-1" value="" style="rounded=0;whiteSpace=wrap;html=1;" vertex="1" parent="1">
          <mxGeometry x="200" y="250" width="520" height="430" as="geometry" />
        </mxCell>
        <mxCell id="mWnzP0U88Y1ZApxrXtzR-2" value="Score: 28&amp;nbsp; Level: 2" style="rounded=0;whiteSpace=wrap;html=1;" vertex="1" parent="1">
          <mxGeometry x="200" y="250" width="250" height="60" as="geometry" />
        </mxCell>
        <mxCell id="mWnzP0U88Y1ZApxrXtzR-3" value="" style="rounded=0;whiteSpace=wrap;html=1;" vertex="1" parent="1">
          <mxGeometry x="450" y="250" width="270" height="60" as="geometry" />
        </mxCell>
        <mxCell id="mWnzP0U88Y1ZApxrXtzR-4" value="" style="ellipse;whiteSpace=wrap;html=1;aspect=fixed;" vertex="1" parent="1">
          <mxGeometry x="470" y="260" width="40" height="40" as="geometry" />
        </mxCell>
        <mxCell id="mWnzP0U88Y1ZApxrXtzR-5" value="" style="ellipse;whiteSpace=wrap;html=1;aspect=fixed;" vertex="1" parent="1">
          <mxGeometry x="520" y="260" width="40" height="40" as="geometry" />
        </mxCell>
        <mxCell id="mWnzP0U88Y1ZApxrXtzR-6" value="" style="ellipse;whiteSpace=wrap;html=1;aspect=fixed;" vertex="1" parent="1">
          <mxGeometry x="570" y="260" width="40" height="40" as="geometry" />
        </mxCell>
        <mxCell id="mWnzP0U88Y1ZApxrXtzR-7" value="" style="ellipse;whiteSpace=wrap;html=1;aspect=fixed;" vertex="1" parent="1">
          <mxGeometry x="620" y="260" width="40" height="40" as="geometry" />
        </mxCell>
        <mxCell id="mWnzP0U88Y1ZApxrXtzR-8" value="" style="ellipse;whiteSpace=wrap;html=1;aspect=fixed;" vertex="1" parent="1">
          <mxGeometry x="670" y="260" width="40" height="40" as="geometry" />
        </mxCell>
        <mxCell id="mWnzP0U88Y1ZApxrXtzR-9" value="" style="shape=image;verticalLabelPosition=bottom;labelBackgroundColor=default;verticalAlign=top;aspect=fixed;imageAspect=0;image=data:image/png,iVBORw0KGgoAAAANSUhEUgAAADgAAAAqCAIAAABp+g/ZAAAX3ElEQVRYCcVYd1AUW7PvmZ3Zmdm8S0Yk56AEEXNWECNGkmJERUBQBIkSlrRkMABLXDIKIopixnQRRQkKggFULojhmq5eJLmvlnu/99Wr999Xr+pNddXUqTN9+nem+9enTwP8Zw8CCEZDEDoARdIFNCApHFOUw7U1ScupchamckZagsnyXA5G0gD5zyz8H2khgNBoCEoAUATOowHOJNEppgob1pn5+doF+q3a4Tx3gbXuZD4T///FCQAIDZ0AStIxDg0QHhsWLdQKC11ZUx1w+UL48eQdzmssdJWI/3+ggNFQjAQgMJSiAcgLYOUKrZQUh+b70U+fpFUW79/pNEVPBejo/5EP/8NlEAAcpeEUAIECgSGgrAirV6unpq1oaQl/3iU6Vbpjt6uBsQYQtP/Qwv9WkwUR8rf88/pniAKg/5qSqf09+/cCCCA4gtEpABIBHENBVQXWrFFNTln0sPlw1+OwConj3q06VgZAYf9D79/m/9sWAsiE/AvExHDC2r8/BgRQYNCAxqSD5mSwtqbPWzRp5hxVq6kcM13URB1kooUY6tF19BkqWiRDAIBPwEeBwIEkKRRn4RQPoyMqKrDaXj4penpH08H+zqjqXBcPJxNTNZQp00DpgNBRBMeARqAIRQMccA6qrMkys+DPnsWZO4NmNR3Tt2JoG4OGNhjqgakhaKqBgjyQ1N/7IICO8Fl0pq46236Zqud+vdCIeUeCZ3m56+/YILd1OeliSzguZ9otoeYv4pjaMBU0QWYZAxoGJB1IikGjc3GGHEbiqqroWnvFVKHNsya/952xZ3LcPJwsjScxmQAk4AQgsg0iMl3AgcajqxkqLFplts9r5tEQm8hAXR9vtfVuims20Ffaw+ZV4LSavnw+zcwA5OUAxQHBCMCALWBxZlhp+HjOKyjYdPOWx7UrrpUFCzJj9JL95eMOCYSHlfx9VN33qNs5KBhMxZkCoOEyoCgNgEYCsADjAYrKC2C1rXJK1JzOxsC+Jwnl4h27nK311DkMwEigSKDTAcMARVAaYAhbkWM9z8jHf11p6f5bVzxv122sKpwritKMDZIT+pKig8w4H7mDW7n2c3F9TWAyZRsFFEgug5o3Q+toiH39JY/B/tCBnt2Pri+qL9SuTuOWp3JLM1RKc82TEy127tOZPospkAecBjQUEBxF6UxA2Ridh6GIqhw4LFNJjpjXdifwRbuoIHubq7OVhiaLgeIMYDKAohCSQOkYjUBxnGTTrWfqHAl0OH/Gq/2uZ/uNdbdP29Qcn3wmRa4qjnk2nlshVEz25u9cSdqYgBwHSELmCoLHJObNVA8Ps7t8Ze/3PwL+GnTuuTftfrX8nWLsbgW78ezk9ruLz55eHBxqvniJnIqSjD4yKmMIYASCUjgqW0eNCxuWKadHLWq7G9L9OEEs3ua01WqyHovEURlKoJOA02V7xBAEwXAwNODucLPMTllWX7b4aonJjVyV+zmC5mxW80myNZt3N12pJJAfsJlaagFKHCBxWZLBeSzazOmKR/xnn6lx+tzn86NnY+9t87Ya+cfVjJfX1PofWH3rc2u+syUleemaVdoakxhsjE7SMJwCBgOYdJAjQAEDEwXYuUouP2HBi+ag112xRUUuO/aYGZpjfC4IGMCjgEsCiw4UHSHoQBCgpUFbsUwhyFtTHKdZkcq/mMFozeV15HG783k9RaptYs0zEaphrnw7S0SBAXRkgsEkDuZmlOd+00KJbd+T3R9a1nRdNG6p5HedZQ/e1f3RtVD6/eDLJ97irPWbN5joafEFFFORyzQ3l59hqTjTlL9kKmepMbjMRiJ2Klelzxx87PexN+JM5foDPjrTZ4GOBuiogZYqaCiDmiIoKyAKCqiCAujpwJJ5pNc2dloovyyZdTGdvHeS0SZmP83j9RartYm1qyMmhW2Rt7XEBIQs08icwWGCkT5s2igfEalXK5ndUGx+LVu5Ph1tyIT2M/J9jdZD/XtfdfoV5rusWaWlpkIz1lVbucRi/y7rDOG64mSnzMC5aft1C/y1L6VbdNYu+9S+/esLz7ZbjnnHLPy85LZsoLs4sLZsEDiuVVg2n2WsB3J84HLByABWL2cf3ieXGsYviKVXitDaeORiPNxMwa+L6Jfi5bMP8jxWE7ONgU8BXUZcRBYBmpPB3p7w81fOTzWuSteqSmRXxcGVDGirVvr93swffXt6OnyLJY4uzjrmU+jzZ6l6bLeuyN70qN771c2DHVUb7+fMai+0ellt8+HmwrGuzWM9W3rv2tXl6h8LZUX70KN8mEJffqinvIcre+ViZNoU0FADK3NwWEUc2stODGaJhbSiWCgRQqUQzsdDrRCqopgpnsTuldhMU+AxAP87eZM4aGvC2rXMkKMapVkWtVkGtRnytSm0hkzoPDf5XfP8v/r29nUfvHBue1jo9G1uWr7eFuJU++5bHkNdgdIe/59Nm96dt3lbY/ThovH3u5a/Hi8Yfbxo4KZlc4nqpTRGtQg/JSIrRKzCaF6SP8vHjbZ5JcyZDnaLYctm4vB+RkIIIysak4jQknioFMG5FDgrgqp4dqovtXstNnMKcFmA0Sf+KI8Flubk3r264ry5DxocOhsWt543aSpXaKlgv7pi8KXNdmzA+2tfcGdLQF2Na5lkTf1Zlyd393157CvtOSh96T5yb8ngWe2eUvbrU7x3F1U/39D9dEO//9zkF6WCzlxmayb+KJP+IJNx6zinJp6V4U8PdkfdnWDfVsx3LzPcj0qLoPIT6FUZxJVs6kY20VTAbhRzbmWrFUeqeG9mzjEHHnsCKIYicjx0zkxBQIBVdc3avme7Pj3f8HvTjKcXNbrOyvdfN/2z1V464Dv+Qfh9MGmwN+JNd8AffYGj70Kkr/ylvR7S7k2/mmZ8qZ/Uf5r+qhJ7c4YaOCcYrJV7e4o7WMr6WML4WIR/KMIHi8jXRZy2HO7FZHZhFDs1hCcKEsQG8ZPCGJlxZGk6WS9mNRfzWos53ZUKnSVKbcUGtUl6h13488xR/t9AaQAsCszN6Hv36uYWzG+9t+rF/Tkdl3WbK3mtpczeC/pfmuykbw5JP8RL/8yS/pk2+lk4/NH/1+BB6UsfaaertMVW2mQ5fkdr6Ibc16v8L9fkv11X+XZJ+WuN4Mcpzlgla1gCw4UwVIx8K6P6i1mPxNz6dH5V2qSCBOVjQkFGJD0nHqs4hl3Joj/IwluysK585pNs7sMs9erIyf6b+QunEPIswDBcVh+RGOhqw4YN3Aih9pky0ysVky/lsy4eh1tZSEe11uBvS0bf+Eo/xUqHTkiHUse/RA4NeP985jLywO77ndnfbk0bujdtvNVmtG36SNv00fbp4y3TxpvMRm/o/KxTGTkj90OCDeXDz0J0qAj/KqG/ziHbT7KashQvpskVx7GyI5HsaChKQaszaLVJcDEJGjKQq0m0+kRBth/fYy1ztinOowBDMUABYRIyoCtW4N6+7OPJCpI0qlgEpTFQlwIPKtV77y4ceu87+lf0yHDKyPe4sc9Hf/Z5D7UuH7mi8vmCyvurBl8fLRp95Tw+6C4d3CXt3yrtWS/ttpO2zBq6afhHrfLncv6PEu5IMWu8iJIW4mOFxF+FrIEc1uOTrMtJ9OJIOHkUMmMgOxE5EQ/ieChJguI4kMSwYr0ol+U0c31g4BMHIQ1QBiGrrDZu5IZFTC7L0a3LVa47Rp1PhIYM9Mlp7YG7S4b7D/z6GjX+PWn8S4z0Q9hor+fwQ7uRS5M+1036cNnwW/OSsZcu0v690oE90r7t0ucbpO2247/ZfL2gN1Am/yqXMZBLfc6nhgrJ8UJ8TEL+LGIN5rM7s9nXUomSaMiMgiwRWpRMO5UANYlwKRUuJsI5Eef4Qab7GmyGKXAYQJPlUUBlMTqFvmePVqbY5lHD8pc353adM24vVekqVXp72fJH29rRN17STxG/viZIPwqlb0PGn3sMN9kO16t9Oqf2vt7wz/uLfz13kb5xl/ZsH+/Y9PPe0m9Xpw9W6z7PFbSkIA+ToSOD1peFf80nRiXEeDE1XMz6IGF357JvpBNlcZAVA9lJeNUx8vYJvPEkrUVMNp+kGk8oVxxVPORIzbcEARewieoJ4TDBxprl5zel4rTdQNf2H90b/7g3/80F49/Pan+6OXOkc+P/BBo8AXTZz4uqf9SqvL+o9/3ePOmzTdJX26Vdjt+b7D5ent53SvdpjlxTIno1DK4J4bdE6D6Bf8gjhyXkmAwo41MR63ke8+YxvDwesmNBnEKvyWQ9LOC2F3Kelco9lci3FWifi9c8soW70ArkeP+UeQibAisLytNLP18yt71xTW/joq56s5Zy1celCq/qp3x6uGK43/sf13+OkX4IHev1/NlsO3RB+Y+zSh8uaP9onCXtWivtdZY+dfjetHDw0tSXleqtOexbSVAXAXWR0CCidRwn3+ezfhYxRotkcD9LGC9yydsZtMp4EMv+KFZ5knk9j307j9lcxL+fJ7ibo1kere7jxJljDrL0hMmKEoTCwVAfHJ0E0XE6VSVm9aUaF3N45zNo1zPxthqdN/eWDL33HfvxN5li/yFTy/KhOuVPNfIf69T/+s1a2mUv7V33q9PuS6PNm3r9J5WKjblEfSpURUNNFFwXER0n2B8KeMNFzLFC8mcB/UsB+VJMv5MKp2IgRwjZCbT8dKIwg1aagdZkEmfSyapUxfQAuZ0OzOkmKJucIBMKCImDrhasWk34HZHLTFUuzmCWJUFFHFxMk7H+5e35wx8Pjf4VPTaaLh1OGv8a/tdrz6GW1WOXDf+s0/16yWSkaa60c6X0+ZqRx0s+3J3WXafVWMK7JMar06E0Ac4IoSGO6DjOfp/HG5FwxiXMkULGlwLmy2zqTipaFQv5QsiKhawEyEqEHBEUxMlYXxjNjPNmuK0iphkBi/gXUCYhq542b+aHR2mUFxjUSSZdyOZcyKA1ZNLbz+i8/m3Rz3e+I98ix0fSpMNJ0i8RI2+8f3U6Se/OH70xc6hhznDT0tEW+6FHyz41zu69YtxcqXQ5l6o6gRanQ34yVEfDzVi8M4P5Ppc7LOGOFXGHizhfJfwXYtatFKw6FgqjIScO8hKRkgxaeRqcSoHadOJ0Ij/tMM99HdPGFOHI8uiE69kMsLIgPTx0xXkzH960f3l7XvcF0/YKtadlSm/qp35qXjH8xmv049Ff35Okf4qkH49KBw5JX+2XdrhJHzmNNW340bj20227/qtzus+aNBerXDnJOJ0ExYmQlwhiEdTGwG/xSPcx8n0e54eE+1cR71uR4GOJUqeYdzWZXhELBbEgScarjhENYsZvuYwHeaz2IsVGsXppuPJBJ/Y8CxnrcfoEUC4LZlizJ1hv29vm8qlt9dtbM3tq9XpPq7+9bPnt4aqxPu/x92Fjn+JHB8NH3/hL3/hK+w/JztWeA9JO9+8PHAeuLX1Ra9VarHHnJOtCIpyKhrJYKBZBUQJ6WQQPk+DFSfq7fPaXQu7HQt5AgaBHonw/i1+bSEhiIC8ekaQTtZmM+3nsxxJud4mgt1KtrUC7SjjpyBbuYmtEng+y/gEKCJsB0ywoLy+DfMm81lsre2/Nf1Zn+rhUtbNY4fV50z/u2f7q9xl7F/rt96ODHV79zdu+tmwd694r7fOX9h+Rvjk01LH9w90V/ZdmPD+l3ZrDvpMGVxPgUiJcTMUupNHvpUPncXidQ39bwHybz+oRszqyufcyBfXpnBIRkR0LmQmQk46dOobdPoHfz6K35lCdhfJNmaqlofJ+TsyF00AGlPyb9XRZjDo6CqJitU8XGl0qmnxZzLuUgd8+SX9cpd13Z9HIW59vAwE9XT5N19ZfPz3vQc2cZw0r3j/b/XPAR/rh0K/f3X92rh9+tPh7w9T3Ncq9RVSnGGnPRlvExEMx42kO1ptP65cQ/UWMnlyy9QRxO52oEeElInp2HJ4RB6kiSEsCcTKcToOaVDifAleOkbWJ/ON+7H3rqdlTgccCHJs4mQiarC1huxQ8PalkIVMcB/nRsnr7fDI8qJjce3v+j989373yffRgZ3X5gpx0w5LjBpcqbbpaN/3R5/7ri6/0s4d0wEX6eq20Y+6vO/p/1im8q2D0lVKvSpgvi9mvSoi+Mvrv5czeUnZ7LuNmBlWbxBSH48ejqNQYZlIcLoqH+DhIiYPcRMiLg4JoKIsDSRQV70VtX01ZGyEsQnbhBRrIOl3G6uDmwMmI1L1SbnKjXOV8Jnk2Fa5nkp01+h8al0j7vb73HnrY4JaRON1j3yRPb11R7NTLVTMeXlv8snn1760r+x8uGWia3XPVqOusytPT8p0VvMclrFYJ41E+8SAXHkqQR2WsxhKlcycUM0I4R/aQOzYie92oQ5788BBOYjwjI5WWlwxlMVCbCNePofVJUBPLyvBm7bQnbQwnqicEBQIlBRTMMAK/7ZOrTszovj6/54Zx6xnVe0W8ljKlN1fMvz9aMf5i92CL+4WylYe8tBYvI+ba8ly2KqXHqBcdMzwrsbhQal5XbFRXqHU2W6n6GOdMOvNMKlmdRK9OoFWLkMp4qEiA8hRafgInPojj4UZ3sEfmzYAVS2hujpzD3uzYCOpYElqSDpePo3fFeGsR+76YeeuEcnGYqvd6/hwzis+Utc+AwukKbFhgiUccMLxRYfetbdVwm827G/rPalS7zkx6c2Xqp/u2P5/tfPHbVsmJ+S6buUamoGkEs+Zj+3cJgnwnxYTqxIdrx4VOigtWiA/iiYLYiYHs5EB2SiA7LYiTHsROCcQSA2nxgcTRQ2yPHdSa5TDTGrTVwHoKrFuO+e6hEsNZOalkdTZxq4hsLmd2VAtaSnlNEo2qBG1/N+VF1mx5Wcdoot/Bo2D2VAj10rtaZvv1gf1wk9XgJZ2OcoUHEsHDcs32c9avmxzv1DokRVmttCM1tUBZHYzM0GVLmA5r5Jw2q7g4Kjpt5DltZLlsYm51ZG5zYu1w5uxy4e/ZIrd3q9yeLexdrpSbE7l5PcN2KW5pIbtICthgrA0rF+EHd3NTI+Ql6fxqMbMuj3a9EG8sZTbkUlezVSTRkw+4ys+1ZvC4sgCVJX0uBdNNwHeHWuXxWc9rZ/TX6DyRKDZkkOcSaNXJnOrjGmfzbbISp3ntVp9lDUoKIBCAsgqoqIKWNqJviOkbIDp6IBN90NUHPQMwMAJDEzA2o5mYYWZmYGwCeoagpQeqk4HNA5KUlZgGmrBiAevAdvmEYEWxiF+YSuSnQGkaVGdAeQKUxnOTDwvcHBiWZgiDPQFUwKfUlJDZ5nRPV82c2Fm3cqbdF+teTVOtiOaIQ8njR/nHojUSIw1D/IxdN6nZmBPqSqDCBxU5nMcBRQVcRYWuqIQKFECgCHxF4CpMiCJwFVGuEsZTxuUmZnkKslmeIrB4QFAwSYVuacZbZ6/h464THaiZEqmYFsNNjSFOxBC5sYzMo+TJMMUITyWXNYLpViwFVYytyAB9ffWpJsp2cyf5uJmfjFh6Nm3hhVSrUyLTnAidlBB1UZhuXMTU2MhZIUfm7t5mtWKhjo2JiqWOioWe+lQjHaspBtMsDMyn6piZaZhOUTeeom5opm5gpqVvpqNrqqtjqq9jqm9oqmdorGVoqmFirjXFSnuKpY7pFC0LC50li0y2Otv4+86MPjpNJDRMiNZNiNZJFWqfEOqmh2hmhJpGeJvsdDJatlTPzErT2MoAHJ0c3FxWee9cGX5gTeqRtcdDbE+ELcgIn58SsSAhamGscEl09PIo4dqw0HUBBx183R28XNft37Ru78b17k4bdztv2OW8fqfLuh2uDtu2rHV1WePkvNrR2WGT84aNzps2OjtudHZydXXd6uq8ZcumLVvXubqtdXVzcN26buu2DbvcN3gd2BBwZFVY+NLI6NnRMfNihUsTIxenhS86FrYoI8wuJWzdwX12blttndwcNm/bCH7+XgF++8L93ZOC92SG70kN25JwdHN8+KbYiE3CqE2RQsdwoXOsaFe0cLcwzF0YsDf64P44X+9Y3wNCvwNRh72i/D0j/fdHBHgcPbIvLNAjLNgzJNg7ONg3KPhQUPDhoGD/kAD/sAC/0CMHQgP3hwTtDQ7aFxTkGRDgGRTkFXp0f3jUzvAYp/DY1RHR6yIjt8SFuySFOaWGOKUGuyaHbBMG7w4O3u8f6nM49OB/AYrNhw7TEruYAAAAAElFTkSuQmCC;" vertex="1" parent="1">
          <mxGeometry x="387" y="520" width="26.67" height="20" as="geometry" />
        </mxCell>
        <mxCell id="mWnzP0U88Y1ZApxrXtzR-10" value="" style="shape=image;verticalLabelPosition=bottom;labelBackgroundColor=default;verticalAlign=top;aspect=fixed;imageAspect=0;image=data:image/png,iVBORw0KGgoAAAANSUhEUgAAAD8AAAAnCAIAAAA3uAd+AAAaKklEQVRYCY2Yd1RT6dr2d5KdRhWxjIODXUQFxIoUsaAgvSlI7wKh9957J3RIIJDeEwIBEpIQQMTC0Iu9zSgqKk53zszwrsA37zn/fGfeZz1rr/yTtX772tdzP/d9AcW5iXkZMSkJYY5OVnr6B1XU4BAoAIUBUCgAAyFwOAwCAQAAAEFQU3PLnj379PT0zpw5Y2FhYWdnZ2tra2FhYWpqqqOjs2t96evrX7x40cbGxtLS8uTJk4cOHdLW1t67d++JEycsLS1tbGzMzc319fV37969Z88eAwMDM7NzDg7OVpa2J06c2bP7wDc7d+scPHzyxBkrS5vLl6+an7t4/PjpfXsPampuV1FWRaERIAIJwNAAVAkCQSEhUKA4NyEvI3qd/uo6PeLf9DAABoMq2AFAWVnlwAEdU5NzXr4+sQkxhcV5dfXV9XXVpSVFmRmZDnZOVy5bW1nZ+/sH5ebm1tfXVlVVevv42dk7Xbx02cbWPhwTWVFZVVlVnZiU7OnlbWl19aq1rY9vQGJSSkNDY1lpeWhohK2t08WLV21snW54+FRV1xaXlKakpvkHhFy2tNMzMNL65gBaWR2OUoOAKgBMBQpDI0AQKM6Ny8uMTEkIdXS01tPXVVFFQSAK4aFQheYQCACBQCEQmJqaxskTZ7y9/Qoqi7q4nbI7fQuP7iwvLz1anBHyhPnZVT4e0QF+iZUVzWNjY69eLt27N9aCI4dFJt3wCkpKyyHTORPT87OLj3oHJAUllZ6+wV5+oYUltQKh7NGjBxP3b3eRyAnJWR4+4ZFx6Y1tHTMLs4uP5mUj0qq6Jp/gOFMLL91jlju09VGqOwCoEgCBAVAApQQAxXmxf9Pb6Onpqqii1+khG/TrukMAAKqEVj1yWN/J6Vpidhq2s4EnZtydlLx4/u3S7ISQ25ufWe3vlRAcmFFV2TY8PPLs6dztcXlDM+EmJsHNMyAuOZ1Apt35dvLb2Tm+sC+vuNTDJ8DTNySvqJorEC0tzY6PS/Ed7TEJ6W7eYZjY1LoW3L2pu1Nz9wekvaU1dV7B8cYWPgcNrLZoHYUrbwdgSoDCHgAC/X+mB2FIbe29580t3P0DYrPSa1pq2Dzyndui28MSOpGakVzk5xV7Mzi9tKSht6dvcmJMJOqpqq0PDo247uEVFRfX1NYiGZYO3x6hMmmZudk3vL09ffyycgupDPb9+6ODYl5dAzY8Kv6aZ3BoVEIltk4iF8lHxSweNb+0zCsw2sTC84D+pc1f68DQmgCIhoCKwwlH/jM9BAKBAgofwbdu2WFoeOrcZTsX7+DYlNRabFU3l9LHZ7U3N6fGZwb6RmLCUgvyKshdFHGfgEEjllaUh2JCvf28YhIiquvKOAKaoJ+N72zKyE32C/LyC/LNzMlsJ7RLBvlcVkdlZVFkdLSXfzAmJqasqozFpfAEVAKxObewwD805qKN95GTFtt264DKmwAQCSJQIAxEKnz/X50DgUBgMDgEgEEh8M0aW3V19c+Y2di6BodFJpWWlHHpxP5uFgnfWpxXkJyQlp1ZVFlW09VO6GYzyUR8XUNVRnZSUmpkXlFKQ3MpnY1j8wkdRGx5dXZqRlRKekxZRX5nV5tQQGZRmxvqy3LzMhNSkrLyMuuba6h0PItN6CI2VtSUJ6XneATEXLC+tldPH7VJA4DBQTgSASLRIOof6KFQKAKBhMORcBCluXn7oUN6JucdndwiIqIzKsqqethUuYjPpeFpJByutYHYSaBRSAIuSybq7eXTWGxCe0cNvqOKRKljsJoEwg7hQBdfgKczGzs6q/DtlWRqc3c3STpA6+MRmHQckdTSgq9v72zk8EgCAXmgnyHoJlNoXc04fHZhtV9YlKGpkdq2LQAMClMIj1IGlYHCnJicdExSfIi9vdXRo4c2Ti0ECkDW6/wGPQKBQiKUtmhuP3Dg8BkTGzuXkNDwpMLcAiqheYBPErDbxP2U/j7qkKxbLu0ZlffdH5OOSAVyOVcsog4OUoeG6LIhinyYNjJKHx6hy+U0iYQiEpElEsbIMO/uCH9MyhqWcoaG+AODHGEffWCAIeqnDfRSe7vJPC6NTKVUYpsw8QknzE6rb98MKG4gKAKKVIGrArkZmPSkkPjogKtXLQ4f0dmgB9adDoVC198BAgAwOBytrrZ52zatvTonThlb29u7eXvciL7pVZ4fSyWUCHiNd8Y5i4uyxXn54uzI4tTo7IR0cU62NC97sCh7sChZWhQvzPcvzvcvLgwsLogWFwYX56WL87Kl+aHHc/JH07KH88NPHt2ZXxiVSlkUUl1LfUF+ZnRmMiY/JzU9PTXoZpi1o722jjZKFQko6g0UDoEr6PMyI7NSQxPjgh0cruobHFHfpKw4pQp6xVKUfMVPEA5HodGqqioamtt37dyje+Cg7uGDe42O7b9mZxyHcRYKGhbmhCvvJz+tzH16v/Tj+yc/vHv06e3Cp3fzq+/nVldmVlemP61Mrq5Mrn6YWl2ZXl2ZXV2ZX32/8Pn94g9vFj5/v/D57dKn90tPHo8P9JNaGvK9r1tanT95wcjAwtzY3MzE8Pjxg4cPae7QBFEwRbWBQeEQmDKIBsoKEopyYrLSo9zdnY1NTu/c+ZWyChqBhMNgsPViD0AgMBCGgIMoEIaCQRFwtApSRVVJCa2uDN+npX7l3JEQ38tiYfPzp9Lfvzz848uzf/3ycu3Xt2tf3q399v1fv77685fnf/zy9I9fHv/52+M/fnn4+08Pfv/p4e8/Pvr9x6e///js9x+e/7n6cu3zd2u/La/9a/ndmxnZILWlPtfK3NDw4Dd7t2/W0ty0SVkJhUSgldBIJRQECsBgABKEwgFACQSBlvqCxtrcmoqchIQoH1/PK5aXTp48vm/fXg0NDTgcrvgIEBgMBodBERAIHABgAAhDqKC2btPQO7TX8cq59JgAHDZrcpz78f3k2tqrtb9e//Xlzdqv79d+fvvHj69++/T0x3dLq8uzq8vTn99NKfbbqc9vZz6/nfu8vPB5efHz8tLP3z/8svx07efXa2srv/30dG5S1M1sSYsO9HO1vWx0SneXtioCoajZChPDIACAgEGQMAAEADQcADj0Fja1iU5uaWtrxNZVFRblxcZFOzjY6ejoqKqqQhQLuv43EAZFgCASRMO3fr3Z1PR0RIg/rqZ8tI/zeHp45bupP359trb2Zm3t/dqfH9d++/Tlw/cfXi68fjzxZHZk4f7A7N3eufs9D6b6H88OPp6VPp4dejwz/Hhm5Mn0rZfT46/n7q2+nPvr55d/fXn14c3M4reS8UE+q6O1MDnZxerqXq2dKigUGoGCAQgYAEVAADiwTo8CALmYKRMxxP3M7m6WoIfL47Pb2prDwkOPHTumpqa2bn1FpwABQDgcraykpqSO3qer7eV5DVdfOzk89PH5o399/P7L6os/fnn1x6+v1r4sr/35ee2X1Z/evHi1OPHgW/mEXDDST5EKCNKeDrmwa6SfNNJPHumnjvTRR/qYI0L23PDg4ujgs+mRH5bn1n578efPz39YXvyy8vLp5H1+Jyk2KPT4oSOaamrqSqpIiDIcABHr6CAEUFICgBEJWy5iDPbR+DyiSMSVSARUSntsTNhxQ71NasoIUHFyoYDim21SUzmwb7fJaYNr9pdzk6P5ZPzC+NC7p7M/vHmwurz0cXnh/Zv5j+8e/vDh+Yc3T189nl2aHpsYE8sGuD1sCp3Y0YVrxTc2tDXUtTVi2xpr21ux5M5mNp0wLO6+J++bn5B99+Tup+WZ1eWZD99NfXq9+GjmbjeTlhgfb2Rstk1r1+YtOzQ3bUUj0LB1HigAKHx9S8oZFjEl/ZSBPqJcxh6SciikxugI/xMGOhqqSBQIKG5aAFBVguoe/Mb6imlKRCA2J5nWXDnEJ8/c6ns0NfR0fmRxUjL37eDspGRhdmRxbmx2amRyYmjivmx4eKC3l0cmUqoqGlKTi6IjMxQ7OjUmNiklLbWkoqgFX983wB6WC+7fEc1PSR7MDC5NixenREszQ3duD1BohPi0lAu2DvsMz2rtP7xt2zY0Gv0fFxECGB/ij0rYw2L6yBBtVM6QiCjEjqq4SL9zRno7t6uqoyGbVWDbNBA6e7dZXTodHuxGbCoXMztGe2n3pdzJ4e6JYe4dGWNMQhsVU0YGKbdkzDEZa0hEFffTB2V9woFeJpvT3EJISyvy8oqwt/d1sPdxdfXz9AoIw2AyczJq6yv6++lyKXtYyhqVMm5Jabek9FEpc3ykRyzi4Qm4uLQMGzef0xaOR0+ZaWlpbdmyRUVFBfX3AkbXnSMboAxLuuSDXZI+Ao/R2FidnRIb6Otu42xtfs3ugpvjpSBvu6zkm231ebcH2Qt3Bx9+K3s0KXswMTg73jMxwnm5JH88I56/3zt1m3dniC7pxfM4eCKd3NrZWdPQmltYHRGd6e6BsbP3dXUJDAtLyMkurKmpweGbKdR2iZghH6TIRCRpf5dsgDgkosgHWRIRl8dn1re2RqfmOHqHXXQKuOzg4ejo6OTkZG1tffLkyR07dihK4rrwTLmIMirpHBkk3JIQx4cYd4bYo2KGvJ823M+Q9zOkPWSZkDRxi/98aWTlu7nVNw9/Wnny68env3548vPKgx/fLaz9+uK3j4sfXt17uShduMsbExP4bFxFY0NaQUloTLKnf6SL+017pwA399C4uOyWJoJ4QHJn7NbtW7JhWe+IlD4qIY4Mdg2LScODlBEJa1jaPSju5fD52BZCdHrJteBke7/E4Jis1tY2EonU1tYWFxdnbGy8adMmQNZHkwgp4t7Ovu5GHrOaQ6sW8lpHBhkTY8IH0yPfP5n67snk04XbD2bkzx+Mrbyeefv6wZvXT94uP1t59+LT+5er71+svnv24fWDN8+mni/dfjAlmbrdfUtM4nM6SrC1cRlZPiGYa54B7l7BXr5hsbGpDXUtw1LZ6xdPP7198erx9NyEZHyINi4ljsvIY1LasJg+2Mfs6+VwebxOCqu4GheaWOQanOYakh2TXs5gMAYGBvh8fn5+voWFxdatWwEerYVLbWaSsY11qcUF4ekpfpmpwaWFiU3YAkJbFbWzkU5qIhOwBFwltQvbzcH3i7r7JGLhoEgoFgkHBoR9wj5hj7i/V9TLF/dypP1sWT9TJCCy2Z21bU25FWVJ2VnJWVkFJaU1tdjW5mY+m/Fw9v6/fnyz9subz2/mXiwM3ZdT7g6R7g7Rbkno4h4qm0EkEon1jfjiypbo1LLrgSlWN2Ls/FJ9MekZGRkVFRVFRUW+vr6HDx9Go9FAU3VOfWVmZUlSUrKfm/tFE1PdU6cOmpgYmJ87dd78zHlzI/Nzpy+cP2Njfd7Dw/7mTc/o5KTItBxMcjYmKSc6tTApsywjtyoxpSA5NS+/oKy1Fc/j8cSivt5+fgetnUDrIDG7WDyaRCacnrz98unc6rsnf/z4au3nl7+tzC8/kj+4z7srI45LyXfkrFsyXp+ASWhvr6xuSEgtCghLc/aOtfOIueoeZWYfZGzhfP78hbNnz+rp6Wlra2toaCjoy/Lji7NjMlNDHV0u6B/fs0kTjlICVNSQqurKyipoJBqBQIJINFxdQ2Wn9nadw3uNLK6a2N4wtfM8Z+97ySnE0gVjcy3K1Svhune8f2haanYVtplIpPPoHA63ly4c5MpGhHfuSRcX77z5bv7zyuMvPzxb++XF2q/Pfv84t/J0+Ol0z7iUPDRAGhRSe3g0CpmMrWvNLcD6haQ6uEdetAswt/EzveplaO6kc8x4165dO3bs2OCGw+GKm7QoOyY/PSIlIdjW8ZKu/l60GgiAAAQOhYAgAAMBGByAgop8B4QilJFqmupfHzLQPnHx4Fkb/fPXT172M7IMMbYMO2cbaW6DsXSJvRGSHZOJza/pxLZ1MjnEfjH79h3RzOzoo0d3v3859e77mY9vZn94N/fTu9kPr+6+WpI+mOi5LWUO9FAZlI7WlpayivqUjPLw2EJHt+gL1v4nzV0MzlofPnlxt+6prVp70Gg0AoH4f53veg+j0L4oKzo9OczVzdbg5GG1zUpQBASGgEPhCBgcDUepQEE0AENA4QikkpKyuhpqq5bSN4e+OnxWx8j2+EXvs1Y3TawjTW2iTa2jzO2irNwSrt/MDk4qT8qraGjGUhmdA2L+6Jh4/I7k3j3J5IRsZlI+Nz08Py2fnpDcGxOODfGHpT3dXFZLc2tuXnlEbK6nf4qjW5y1c5TZFR8DI5v9R42+3nNIY9sOZTV1JSUlJBIJgiAUCoWtL6AkNzYvPSIlPsTR2eqo/kElVSQAWc9xABgAgUMgSABAAAAcgMAgUBgEBgJwFKC6Wenr/VqHTXSNHE9c8DOyDDeyjDS2jja1jTa1jzB3ibT0ivMITSwoKW5qbaIxqbweDq+HzRUweQJWdw+LL2DxBWwen8XhMVkcBofL7SCQ84tqwiKzXT3iL9mEn70YaG4VesbcXffYhZ27dTdpaqKVQBQKVFZWRiKRMBhsXXfFAyjMjMpJCUuMCXB2sjTQ11FXQ4NQAAGCcBgCpugSwL83VBFMARAAAQIqSgjNbRrah745bHbolL2+iafh+UAjK8w5hxgTB4yRXbCxY9DVGzcjYpPSs/NLq2oq6+orsNiymprSmpqS6pqiqurCypqiKmxJTWN5bUt5dXNWbuXNiEwXj1gL2/DT5wP0jbwOGDjuO2KhtcdQY8sOtBIciQCQCAAO//fUsTE/ASW5cevaBzvYWegd2a+qjIQBABwKhUNBGACD/nsr8jVFhAVd7/HgIIBWRWns3Kylt2Ov8TETd9OrN6+4xl+5FnPROeySS+jVa8H2rj4evmFB4XEhEfFBmNjA8JigiLigyAT/8Hi/8PjAiOSb0RmY+FxMTGZgSKKLe4SlXbDZ5YATZh5HTzurf3Vs03YdFY0dSCU0iFBENwiEYsbbUB0GgyEQCEXNKc7dyNJuOjhcNTA4rK6uvBG7KuZCCAQKhcJBhGIQA2AIELVJXVNZY7PmTq2vtL9R27x5k4am9m4d3SNGRmYO5y29rZ0wDq7Rjq5RLq6RLtfC7F38Ha8HOl4LsHHysXX2cbweaH/N38bZ187Fz/5agOP1ICe3YGf3kOtuwc7OAfZOAXbOQVYO/sYXHI4eN92hvWfL9q0qaki1zahtOzVUtqKRqgg1NbUNu4MguJ5SQv43EVHQK+ba/6BXDCbr9Io8B4rYseMbE+NzjtdcvQJ9fAO8nF3sHOwsr7s6e9zwCotIiIzNik0qTkwuTUoqTkkoSE7MS0zJS0rNS0zNi0/OiU/OSUzNS0jJjU/Kjk/OSUjJTUrLT0rLT0kvSE3JS0nMTUrKT0otikvOv4lJ8PINtHews7e7ctXKzMra3MbBwtTC+KjhEW1tbRQKpUDaKJfAv7O0/0YPAFAEQsnQ8FR4WGQLrpnFp7A5XYR2bEt9SSO2tLaqFIfHteIILTgiDtfVjusktLZ3tLV3EIi49k4cnoBv72wnEDsIxHYCEd/e1YbrUGw8Ad/RRegkETtIpHZSVwe1s5OO76A1tbRjsXUVpYW1lYXVZTnlpdmFRZmxiZFuHtcNDQ3V1NQgEAgCgdiQ//+kPQBA0SgVE2Pz9PRsYV/v/Ymx6cmxu7fEtyTdEiGLzyLzuSw6nU6h0phMhoDH6e/mCPmcbj6XTqdRKGQWkyEQdAuFvX3CXoGgm8mgk0lECpnEYjF7BN2DfcLB3l5ht4DL4TGYXAaDxWYyBByGuIczwKNzaJ2E9uaS0qJwTNjZs2c1NDQgEAh8fSlCg7+TwP+v9iAIBwAoCqlseOxkcFBoc3Mrj8uVivpHJQPj0n75gKCbRevAtzXU12OxdR3tOD6bPtjLGejhUCnE5qb62pqqttZmNpPeJxT0CXs4bCYe11JdVV5bU0nowHHZDLlYKBHy2XQyrq21oaEJ19ZGJREHhd0jIqGYz6IS8NiqytSUVC8vn+PHj6urq6+Hkwr/Kyrmf6HfuBQ26BFwtPY3e0xMzH28Q5MT86vLG4g4YjeNzaezu3CdmWk58XEp8fFpJcVlJEJnL4fFZ9Fra2vS0lJjYqKzs7NaWlqYTAabzcLj8fn5edFRUXGxscVFRe14nKiXK2CTmxqqMzJS4+ITsrJyaqqqeUxGD4tFwePL8otiImLd3HwuXLiyf/9+FRWVvzMyRQn6Z3oYDIRAQARCafu2r3V19czMbJ2dQ+JjcrGVbbROJrWT0VyPDw+L9/YN9Q3ApGfk4XEdXCaDTqXmF5aFYWI8vQPCMLHlFVgqjUNn8usb2+IT0zy8Anz8QlLTcxqa2gR8NpPWVVZeFIoJ9/DxD4+MzcsvopFpdBKttb45PTnLyyP44iXHY4bGO3fu3KDfCJr+mX49UINBoaCSkqqW1i69o4ZnzlpbWvtHRuY11pFYtF4qid/U2BUSlujuHerhH56WXdhOIHHYbBKJmp1fHRyW5Ooe7BsYU1DSwOCI2HwptpEYFZft4hbk7hWWlFbc2ELm87sZDEppZXlgGMb5hm9QeExOQRmDwaNTufgWYnZWmacnxuy861EDUy2tnX/HHBv8/9X36+gK+0ChIAqlsn27lo7OEeNz1jZO/pHRGXV1eDqVTSYxmprbQzCxHv4h3iHhaXn5uM4OJpvWSSKn51YHY1LdvDEBYcmF5S0UlpjGGays68LE5Ti5hVz3Co9PLa5tInH5PTQ6rbiiMjA82sUrODgiMaewikbvplK4rc1dmRllHl6RZhev6x0z++qrr/5T+384tf9LD1G0bejNGlt3ae87Y2Jxxfa6f1B4bl7hxkktKi319A9wuuHh6usblZRQVl3e1FxbVVuDic3y8ItydAv29I9OzqzANlPqWmlZhXV+NxOtnXztrwXejEzPLa7HtRMbGpqS07PdfUJsXX09AyJjE3Nqa9uqq5oK8srDw5Nt7LxPGNnsP3RSU1MTjUZv9Jgb7v8fxEAvFgD7prsAAAAASUVORK5CYII=;" vertex="1" parent="1">
          <mxGeometry x="610" y="380" width="32.31" height="20" as="geometry" />
        </mxCell>
        <mxCell id="mWnzP0U88Y1ZApxrXtzR-11" value="" style="shape=image;verticalLabelPosition=bottom;labelBackgroundColor=default;verticalAlign=top;aspect=fixed;imageAspect=0;image=data:image/png,iVBORw0KGgoAAAANSUhEUgAAADoAAAAqCAIAAABtD9/kAAAaiElEQVRYCYXZZ1daXaM14B1BOog1iaYnJprceRJjrCgISFdRUGl2UbHALmyaxjRTLEivYo/YW+xiT7nf87Pe4Tk/4Bnj+rTGGnPNr3MsQJ1JN+amfCygDxWQv+bjvuQDX/OAr2+xX94Sht5SPuZRBwoTrKVJVsG9D8o3nzu4H3UVQ+2i98yHHwrS3ucmDOVRvuUTv73FfM+9MXwN8z0X9/0N8dsb8pe3+I+FwKcCYCj/xtfrC9jhXMxIPvZbPuZTHmYwn/iekfyJff+9+NWnVun3VumomvdNlPO56O7nV7Th1+SxHNLYW9JwAWWokDpYSOnNTyh/ggc6X9O/cm/5xGnhisRJCXlWCMwLgHkBdlaAnxEQJ4XkoITmrU72qh+GdPkTqCholk1AVV7efX9pkp9BmWSRFnjkJT5+iYdZ4t1Y4t1Y5GGiPNwCD/+Dj50TAvNCYIF/fbhcjlkuj1sTxS+L4+eE2EkhIVKROC27G254HTLWRyD5ZAcvWPPSW3YrUECcYRAWmPilcuKCiDwtIQfFxE+CxNq8ZMBYmuCX31pqTFtvStxqJO2pMfsqzL4St6fC76iIW2ryahM92pY22/VoGnw7gZZ7YYmvqzzATw8zqeFS/A8efruafFhHOlbgjxXYYwXmSIk9UMbvK3H7Kuy+GjhU3jhSYGP18Sd18Sf12HMN4aQBv6vGrauJq02J6+0Z0Z6coKV2ApGGtUyf9ImHSQvlAWtc3L6EcCynHKqpW43kJQ3BpUhp5dwBPkmSF7R3Dw3pJ4aksz7y7x7i327Sn27y727KVQ/tvJd+bEjdgTPWjM8WLQXTVr4XrnB3cv2i9CCHEubio1XE/YaEyw76727a7x7Srx7CVS/hspd40Xftqhf3u4fwp5v8r47yv0j/00f500c66SHsdpO39Uk7cMaK+Y2vXx40Vga0DF/1Qz+bMlUM7FcQLuvJ/7bS//Ykn+npuz2kiPZWl+gBMFSduNyTfoyknCLkMxD7xxD/V4/7q8f/1RN+G4gXICmG0PfQmxumJ8u2gtl+UQCVerv5DmGak4N3c+Omq+O3W6lnevoFRDmH8Wcw9hTBnhixsf91DmMvIdwVSPhlIP02EH8b8L8R/AUSvw/GbRiwKxBpzZQ8b3vhtFW7EZG7vcBdfc/PJc8wgb1K7IUS96+W/K+Bdg6Tdw24SFdqt+QB8LEmca779haUuAuTjhD8JUz+DZJ/g5RfIOUKop7DtCOYvmu8uWl5tmwrnLEKAsaqQJ9ohJ/i4JE8Qvy0nLjZRj8BU87RpFOUcmwkHCDx+0bcvplwaCEdI4RjkBDTE0/6SOd68hVIPocIMQS3b8Rvo+R1M33FkjrX/0/ws9JvrvB0FLjlDzw8cqgE2KzExJT4Xx2U3yD9FKFtG/ChjhQtPwMYkN+a7Hu4ZszYNKXumlP24Fv7UPrBtYx9KGMXztiE764gj6PmnBkLK2CqdCC1zr7qEWnmeOUdV/XtsPL2ovbeT+jRvvnRnuXetun2uvHmKnpr1Zy+Zs7YMN7ahG5v6W/v6DMOwLsx5O4BcnvXmLaFpq2Z05cs939Yn0T6C10fG8dNstGuslHli/HKdC+fEpUnbjWkHOoyDuF7P413lqCb3q77naL7AFr3OAi9XrS+XLFlrfZnL5hzf5gKF0xFUbQ4ihYvmIpmTYxJc1nQKvTYaketzV9Mnd9grb1V5Gxmu1pKA1rGdF9J1Fi6YmMtD5T+sDJmzMWTZsakpXTKVjptLpxFi+bg4ijMWEVLt8zMDXPRqjl/yZL/w1Y008+c7Of63sm/fugdsmo/G+q/dghGmhlOdU64NWdOl7sEFy5ZSuatjIip0NFX0FORCejr37gR7nQ/e8bGmLYWT/aLIzbplLV6xiKbNctnzbJpq3zSVhfsV7psTaO2rm82w7DF4ENag5A6CNWHIfkUKpux1Mz118z0V09YqwMWmd9S57ep/QOqwIAsaK0JmWom0Zo5k2zRIouaK3+YxfMW8Yy1KmKThW0Kz0Dr9/fwt/7eb6b2UVjlNNT49ZKwQTSFiOYsVfMDsukBWdhW4wBF3ZIsoEtRNmKUe201bpPQifA8aLXXWOtH6kOQcgJURQzKCKwMIwofrBgHlcNQ4zdYO4x0euAWH9Tgh1UBuC4AywNIjQ+qdoPVDrDODqnHja1Os87Vr3MPtrhtDS6jygMq/Pq6sEE+oa8K6yvC+oqAQeoFa92gchxqGka7viPtw2DDmKHeBcn8sNRnkATAihAsDRvlQaTOC9WNdFW0l2cCWqVkCGkcNam/GKqHdDx7c4G7Md+rKQqoGGFlyYSCMakujqgLfcpcR/2bUUXeiJox2sgcaygcb8p3NuU5m3JdTTmOhld2zatRzZuRhqKRFs54Z6W7T+GDVT5TlQcSOXXl4y1Mp6bIo8rzq9/4Na/9mtdeTa5bU+DUlDgamPYGpl1dbFflj6ty3A2v/E0vPZrnHvVzr/qlV/Xao8x11+cNyfI0jIdAs0r60dg6gqiGOoSfVQXfhQ+cgrsewT0//16w/E6Ic2ui/FaElxbgJrs5SU5OqpN328m/a+fcspfftPNvjgtSxvmJ4zyak0d38VIdwvv26pd2TZmzq8ZjUHgNFW5t2bgi1y556uDfdfPSvMIUrzjJI0nyiFN9onS/4J6Pf9/Bu+Mov+3gpjq5SR4e3ceneflUL4/q5SV4eInu8hQXN/UjN0PxNg3QaKQf0BYHJB/RFH4TPBgtpPuKEyKshNky6iwTN1MEzBUDCyXAj1JgvhQzV4KbLSHMlZBn8shTBeRwESFUjA0XA1PFwI8iIFqEmSmhBvkP3QqGs7fOY2r19MicSuZYeaY9j+59iw0XABMsIMQFguXABAeYYWIWi/HRItIEgxxhEKcY+Jli7Gzxjdni6+d+MIE5FjBTBkyVxU2yMcNsiuI1GWhSS4aMGjdYNa5+M8a/7WGQp1jkRQFtvZK2WUXeqIzfqMJsSjEb1dj1aty6lLQmpaxX0bYrkzarktZqElZl5DUZYbMG+1Ma/7OSsCpNmql/HNQWe5Bqr63B1V3tUJaO8Z46ihODJYRZbtyiFButjVuou7Ekj1urjt+pIOxUULZqErdk9G0ZbVtG/ikj/pThN2uwG9WY9Rrsak38sgy/LCP4qpNbipKBFpXwG6LwgWKX+j8OfvIEC7fII/ysoR1rEs9a6Wft1FMtMaYlHGuJx1rykZZ2pKUftyddtKWet6ecdCQfd9JjndSzDtKFlnzennDQfmu1+9kUXOQfEPsG61zdleNKxpjgiYuVNMUjr1YTdlsoe13EHR1+vwt/rCVctJKuWqlXHSmXHcmXnUkXXQkXXdRzHeVYSzjU4g+1hAMtaV9L2ddSZ5szdOw7QLuSPwzXBQxCt/qFg58wXQasC4HDesJFO/WPnvYHJv9CCBdI/AWCu0AIFzDpAqZeQbTffeRfevKlgXQOEs5B3JUB8wfC/4EoJ3DqlunxnO1N4APL/17s7RE5lfkjgnsuNnVGQtxSEE56qWcI6QTFnRmxVwj2XxD7Pwbc/9OT/zWQ/oLE3xDuCom/NGJPYcwJjI3BuBOIcAKSTkHyki6jl3cfaFOKvsNKLygZ17weFSZPsIElMbCjJJx00i6hhEsT5dxMPDXjT02EMxPxHKWcG2kXCO3cQDgD8acQ/joRjj+FMOcI/txIPTSnrdsezw7m+D4wvIPl/j6+Q/3mmzB9jEOKVBDXNaRjA/3URD22EE7MuHNT/BUa/xvB/wYJvyD8JYw7M8afoNhjE+YAjdtHMftG3AFCOIRJRxAl2n2nh3sXaFFWfkGaXGDNcEPBkDjDzcVOS7DLKsrPrqQDKOXARN8zUXdN5D2Usm+kHSKJR3DyEZx0CFEOYPI+TN5Hrh3ApH2YvGukb5nTF21PJwZz3e8ZzgFuAOTbG3I+iW4PsYneCuKChrqjT903Ju2aaLsmyh5KOUApRwjlBKLGYMoRQt5HSTsm4raFuI7i1oz4dYS0AVM2oYRtMHG6815XWTqgbVR+RjodSINdJ3a0MDzKrJDmyWRb5lzPs0Uke8WatWp7tmp9ump5topmrcLPV8Hny4asTWv2pjVry5q9ZcnaMGWuGx+to09WzVlR66up/iLfu/Lx95XjgzKvSeroZg83vB5TPg00PZ3verYKv1hDs9cs2avW7GVL1iL6bBHJXNA/XIQeLSKPF02PfqD3Z413o9ZHi7bMJevTZUv2ivmfVdPLKf0bg+AR0FQr+6jXOuBmV5/M0y10dbC9urKgviyClM2Yy+b7WfM25pyNOW/jzFt58xbhrEk0g/IX3nEX33GWBrhLNs6ShbVoYiyYiufMJVMWdtAqdttq7f0N9v4mp7luHJSMdrHt7QxvZ3GklzEPM3+grHkTa9bCnrJwJi2cCRMnhLInzOwpG2faxpqylkTMRVMWxrSlZMZSMmtmzZrYsyZOoI/ZU34faJVKh3ravHBLCFKEYZnXqPKgap9ZFbTUhy21Eas8iFb7EGnAogzYmv39Wo+tw2VpDQ4oQ9basKk2YpRHkJpJWDpplEZQacgk95nVbnO7w9w9btE5zA1Ok9JlrPfCcj9UEwKrJxH5lLF2Aq0LmZV+i9pra3T1t4zZmsf7m90DTb5+td9S70drQiZZ+P+g8jBaGzLVOXtEHax0oFvIHWmqCbSJJ9pYE+0lPp3Q0y32dQn8neV+LdvfznK1MMfb2M7eKpdRPW5pG7Zov5taHIYql07kbhd4W8oDLdyJVs5Ee1lYywxoy3xavldb4W2XubUyR6fI1S3y9YoDPaJglyCo5U1o+eF2QaBd4NGKXN0VLoNsHFENW9pHza0OtNFtqPd0VXrb+ME2XritPNzGDbaX+7Xl3g7ecCOjqTAZ6Cr4Z0iQ6xBmufjpTkHqaOWT4cqno5LHo8IHY/x7o+V3h4WPhqv/GW0sGeut/G5UfUAbPsKKr42Mkfq8kaocu/ilW/IyWPXSK3niFN4bF90bFz5yCJ45+S/tgpdfxM++VWaNSLPHal7Yq56PS7KckmyHKHuEn/VVmD1U9Z+viryhFs4w2jwKaezd8vEmvl1e7BC/cvKz3fxnbn6mQ5g5Ks78LskcED5S5FCA7n8yvjLue0qT/QxcsBTwcUg+NjnIIoZL8eESXIhBcJWQxnkpzvpsV1fpCCz+hFZ9BgXDssxx4R0766azKCnASJ4uS44wKaHS+GApNlyCjxRTJgvp4eIkR0mCvTTBzkxwsOgednKQnRIuSw2WJrmLE+wldHt5mqPq7rjmlddU5zVIvW1cj+yNi/PAmZcUKkyaLKJHimjBEqqXSXGWUd6z6PJ/8AD8NtUrSJ8X0RZFcStiYFGMXRRhV0Rxa0JgTQisCONmBPEhSUJI+STUyfAYKobBmuHuijHJUyf7tqs4MVhMmWVRlvikJRE2KgYWJMCiCFgRxG3w4jfK8VEecY5PmBbgpkS42QrCQiVxuYK8LCZHBeRZEW1amjKlyAi0/sdrrvcbqvwtTG/lMy8zJfAWt1BKXGUT13jEFRExWkGcryTaJUnKt3TgPS9lQZ2+10g91MQda4BDJeZIiTlWAjElcKwEDlTATw1xtTFtoTV7TlcW6at1d2scrXVO8WsP536QlbbAS9qRJR9paPtNuJ/NwHYLsNMMHDYAZyrgUoE5ryPElIR9TfxWE2azOW6r+cZ+E/a4ER9roO43Jm0131xpzZjseuWyaryQzNfC9FU8DpUlzJZg1vnY3UrskQJ/3EQ+aqXsNZOnGtI7yh8B36vSNrTpZ7qEqy7sr07gqpdy2Ue56iNc9eEu9bhzA+FQn7DZd3PRkP0DZUbMVS6odlxX6ah+5hHeCgkSl6oTDpoSz3W0Mz0xBmKP4LgTEHOux/7uwf3VEX93ki+6ibFe/IEBewBiDg1xp/r4817CRQ/1pDdpX39rG7zzw5jrHWzxmxQ+LcctzfRy6RFm3LoUv6ckHLeSTnTUWB/1sJcyq71zXXdUnrrVk34OJvwyxP8B434Z6Vdo4i+U9gulXJrI52bqoSlpC01fNj2ftzEiNrHTWDXWzRuruucU0P0CUlRGOmilnfdSLmDSGYo/McefmXAXRuJvmPwHov6BaJcI5QwlxSz4mAV3ao6/QAlXCPkKTjhDUo/Q9F3TvSVrvn+wLYCqvO1cZ9VTF4ceYMatySl7TZTjLtqpgR6DE44g6pzu7nXdLzL6cu/NQ5h6AmPOkLgYRI+BKTEwMQbRjmHqIULbQVLWkTtRY/a8hRGxiNxwhUPHHZVkOHg0H48wLyXsNlJPu6hnfaSYAX8M4o9BYsxAOe1LOOtLOIcTT5GEE5RybCIdm4gnKOEcIV9CtAso6QS6dQjf2zU+WjYVBi2tIVAVaOG7K5+7OanBMsKqnL7TRD/UJcbApBiceAjRZnX3rutaZWmRvgcr6O1NU+K2KWkTfLRpeLppeLwJPtyE7q9DD5agJ/Pg82m4YMoiDNsUblTl6KsZr89xVj32VN6Zrr+z0f7woPfBvuHuDpi+Dd7ZAu9vgo83DU83wKcbcOY68ngdebhuvLdpvLONZOwh9w/gR/vwsx34n03kzZoxb87E91nb/Uijt6PCVZfvqsz0V2TMq+8vt91f73u4bXy8bXq0hd6P9GRd1wXrHzmhV1O2F3P9mdH+rKixKIqURo3FUWNhFM1fQPOnkcIQxAgaBWGbMjTY6e7XOZBWT4fY3Vji1eRNtuetGIp+okXbpvx1U+6quWDJzIiay35YuHOW8oiJOWkqmUKLZ9H8eePbKJK7guavoUWraOkSyl0wCedNkoi1zj3Y5bW2ufV1jhauQ13g1bwOt+dM9eTMG/MWbYVLAwWLtrygoeC6bqc6f9gqCn4WT3zmT37khy0Vk9bqmYHq2UHpzGDF1DvxxDtJ8F21753C/a7ZOdA1PtDnHOj1WZqCZmXYLJ80V06bhbNm7uJ70eKniskBkdcidlik9v46+3v194G6sXd1rne1wYGaCVvlpEU8bZVM2yonbdIJmzzYrwz0q93vGr8Ptoy+a3L2a/xWRchSO2GpnrBJwwOVwXcVwUFJcFASeidxwYIufibQpOF+sCjHBpXjNrkLlXp6RYFeUcggCoP8IMjx6Zk+kO2H+F5I4oFqXKDCCWpcoMbVV+PWV3r0Qp+eG9CzQn0lEZAVgThePdduEA4bZcP9DcMf2r8MtH6zNo6hShdY49NLQr2CsF4QMggCoNAHSryQ1APVOOGaYbhyDKpwgBK3Xuy9JvJCYjcsdiISF1Lhhiu8UOVIF6+l7D6gbKi0mNo+mdo+9qq+tEnttYXe2rf++lyf4rWn/oWzLtNd/8yrfOFR/sejfONR5Hvqi931DKeiwKHKHVe9dqr+cauyfMqnvvpnnrrnjvrXIw2M4S7xKKKy29q/o23DvaqR1kq7iu2uKwrU5fnrc3yKV27VK5cqx6nKdSrzHKq3dvWr6yhljlvxxqV461Dm21WFo+qiYQ1jRF06pmI6FKzP8kJV4U1A01AxgDR/0Td8apR+rWaNld7xMlP97NQANznATfByiD4O0c8hBTiUADshWJYUYqUEWWkeTqqbm+wqp7vLKZ5yUoBDCJSRAyy6l3PbJclyqYq9uooApHDr5E4Nb0ySO8567C+9M8m6OVGWGGRTfRyKl0vxcqk+Du3/BNgJATY9WJbkZ6d4OGkO7k17+a1RXrq9PMPBzXCzMz6x79XlJgHNDcJPkGZMpxiuE4yW546/IQXysBOM+Oky3CwHO8u9McMGZljALBOYKwV+lAALjBs/SjAzZfhJDi7CxUa4N6a4wCwbmGfFzTMJ0+ykiPhhWPk23MmbNFQHtUKPPH+c9cD5JiH8hrBQEB9l3JgvvQ6cLrs2w7pe51EWsMgEFpk3okzMPCt+ugwfYuP8HLyPgw+w8eEyfISFGy6j171NAto17BGwzt9Z7a1mecpeeApxIeaNGT5uUUpcqyVtKIgb9biNOsx2LWZHht2tid+vxu9VE7frEjYUtDUlZU1FWlcSt+sJO7XUnzVJ67KMBeXTaW3BJCyYtlaH9DyvKsfOve3Kx08VYdbYcbuV2F3Zje1aYKvu2s9aYE8OxGRxMRk2Jos/lOP3aonb9aQVBSGqJCyo8IvK+BUFdr0OE5AlqgvTgA4VaxSqDeiq3PISJ+eJryRuhgesyYj7jQnH7YmxDlqsk3zSSTrtJJ51ks46SOcd5HMt9awz6bQr6URHP9XRzrqol52Uq46Ec23KkfbOpi4rCubPWLjT/RUhg8CnznVzM0KFxCUm7kAUf9lAvuggxHTYmA5z2hV32RH3S4v51Yn/1Un41Um87CSdd5FOdeQjHemgm3jQTTzsJhzp8DEdbq4trYlz+7ruMCj39lSO1RV9595zl1x/pewoiWcdib96ky56qRd95IvrgU78341OOAOJZyD5Qk+90lN/6Sm/+sh/+oh/+/B/9aTfIO0UvrljfLxkzpmxlkSsfH+f0Kt462FnTBWQt8oIZ1WEP1rapYF0jMTHEMw5hPmrx/ztw55D8f/VQm9aqzgDaFeyvxpqnd3S4XrGEPehsxSYEQKbSmKsM+miL+VcTz8z0E5ByilEPoFIMZgUg8kxiHoMJcSghJNr1DOQfA4SLyDKGUI/QG+tm5/M23ImBkoCAzwvLHBocuzltwPFxBUeKVZPPdclxmDKrom4hxIOjYQziHABEk4hwgn8X8z33m6W3AWaFeUf9YqxHvk3NWdI/MLBI0eqSMualJ9dGYfg3UM44wC+tQ+n7SGpu0jqjjF1x5i2Y7z503h725j+03h7B7m1i6TtI8kHxrQ9NH3T/Chq/ScyUOQd5LgGxQ6zZLS1YLjioYebHK1K3W9KP9Df2TbeXLOkrplTNk0pe0jqPpy6i6T8V5P6R42Sh4CmXvjO0DgKNnxvl35TlDprM0OaRzParMW+f1bgl2vGF6to1gr6dNn0dMn0dNH8dNH0bNGUvWh6HjU9j5qfL5qyl0zPVtDMVfOzFcvzBWvOZD/DM8gf+1A1/KH2u03+vad8WJ3rkWfPaZ5vdL5cg15GTdmz1qw5a9aCOWsZzV5BsxdNWf+VB3ytqsj8/2SU5uFdDGbEAAAAAElFTkSuQmCC;" vertex="1" parent="1">
          <mxGeometry x="311.19" y="380" width="27.62" height="20" as="geometry" />
        </mxCell>
        <mxCell id="mWnzP0U88Y1ZApxrXtzR-12" value="" style="shape=image;verticalLabelPosition=bottom;labelBackgroundColor=default;verticalAlign=top;aspect=fixed;imageAspect=0;image=data:image/png,iVBORw0KGgoAAAANSUhEUgAAADoAAAAqCAIAAABtD9/kAAAaiElEQVRYCYXZZ1daXaM14B1BOog1iaYnJprceRJjrCgISFdRUGl2UbHALmyaxjRTLEivYo/YW+xiT7nf87Pe4Tk/4Bnj+rTGGnPNr3MsQJ1JN+amfCygDxWQv+bjvuQDX/OAr2+xX94Sht5SPuZRBwoTrKVJVsG9D8o3nzu4H3UVQ+2i98yHHwrS3ucmDOVRvuUTv73FfM+9MXwN8z0X9/0N8dsb8pe3+I+FwKcCYCj/xtfrC9jhXMxIPvZbPuZTHmYwn/iekfyJff+9+NWnVun3VumomvdNlPO56O7nV7Th1+SxHNLYW9JwAWWokDpYSOnNTyh/ggc6X9O/cm/5xGnhisRJCXlWCMwLgHkBdlaAnxEQJ4XkoITmrU72qh+GdPkTqCholk1AVV7efX9pkp9BmWSRFnjkJT5+iYdZ4t1Y4t1Y5GGiPNwCD/+Dj50TAvNCYIF/fbhcjlkuj1sTxS+L4+eE2EkhIVKROC27G254HTLWRyD5ZAcvWPPSW3YrUECcYRAWmPilcuKCiDwtIQfFxE+CxNq8ZMBYmuCX31pqTFtvStxqJO2pMfsqzL4St6fC76iIW2ryahM92pY22/VoGnw7gZZ7YYmvqzzATw8zqeFS/A8efruafFhHOlbgjxXYYwXmSIk9UMbvK3H7Kuy+GjhU3jhSYGP18Sd18Sf12HMN4aQBv6vGrauJq02J6+0Z0Z6coKV2ApGGtUyf9ImHSQvlAWtc3L6EcCynHKqpW43kJQ3BpUhp5dwBPkmSF7R3Dw3pJ4aksz7y7x7i327Sn27y727KVQ/tvJd+bEjdgTPWjM8WLQXTVr4XrnB3cv2i9CCHEubio1XE/YaEyw76727a7x7Srx7CVS/hspd40Xftqhf3u4fwp5v8r47yv0j/00f500c66SHsdpO39Uk7cMaK+Y2vXx40Vga0DF/1Qz+bMlUM7FcQLuvJ/7bS//Ykn+npuz2kiPZWl+gBMFSduNyTfoyknCLkMxD7xxD/V4/7q8f/1RN+G4gXICmG0PfQmxumJ8u2gtl+UQCVerv5DmGak4N3c+Omq+O3W6lnevoFRDmH8Wcw9hTBnhixsf91DmMvIdwVSPhlIP02EH8b8L8R/AUSvw/GbRiwKxBpzZQ8b3vhtFW7EZG7vcBdfc/PJc8wgb1K7IUS96+W/K+Bdg6Tdw24SFdqt+QB8LEmca779haUuAuTjhD8JUz+DZJ/g5RfIOUKop7DtCOYvmu8uWl5tmwrnLEKAsaqQJ9ohJ/i4JE8Qvy0nLjZRj8BU87RpFOUcmwkHCDx+0bcvplwaCEdI4RjkBDTE0/6SOd68hVIPocIMQS3b8Rvo+R1M33FkjrX/0/ws9JvrvB0FLjlDzw8cqgE2KzExJT4Xx2U3yD9FKFtG/ChjhQtPwMYkN+a7Hu4ZszYNKXumlP24Fv7UPrBtYx9KGMXztiE764gj6PmnBkLK2CqdCC1zr7qEWnmeOUdV/XtsPL2ovbeT+jRvvnRnuXetun2uvHmKnpr1Zy+Zs7YMN7ahG5v6W/v6DMOwLsx5O4BcnvXmLaFpq2Z05cs939Yn0T6C10fG8dNstGuslHli/HKdC+fEpUnbjWkHOoyDuF7P413lqCb3q77naL7AFr3OAi9XrS+XLFlrfZnL5hzf5gKF0xFUbQ4ihYvmIpmTYxJc1nQKvTYaketzV9Mnd9grb1V5Gxmu1pKA1rGdF9J1Fi6YmMtD5T+sDJmzMWTZsakpXTKVjptLpxFi+bg4ijMWEVLt8zMDXPRqjl/yZL/w1Y008+c7Of63sm/fugdsmo/G+q/dghGmhlOdU64NWdOl7sEFy5ZSuatjIip0NFX0FORCejr37gR7nQ/e8bGmLYWT/aLIzbplLV6xiKbNctnzbJpq3zSVhfsV7psTaO2rm82w7DF4ENag5A6CNWHIfkUKpux1Mz118z0V09YqwMWmd9S57ep/QOqwIAsaK0JmWom0Zo5k2zRIouaK3+YxfMW8Yy1KmKThW0Kz0Dr9/fwt/7eb6b2UVjlNNT49ZKwQTSFiOYsVfMDsukBWdhW4wBF3ZIsoEtRNmKUe201bpPQifA8aLXXWOtH6kOQcgJURQzKCKwMIwofrBgHlcNQ4zdYO4x0euAWH9Tgh1UBuC4AywNIjQ+qdoPVDrDODqnHja1Os87Vr3MPtrhtDS6jygMq/Pq6sEE+oa8K6yvC+oqAQeoFa92gchxqGka7viPtw2DDmKHeBcn8sNRnkATAihAsDRvlQaTOC9WNdFW0l2cCWqVkCGkcNam/GKqHdDx7c4G7Md+rKQqoGGFlyYSCMakujqgLfcpcR/2bUUXeiJox2sgcaygcb8p3NuU5m3JdTTmOhld2zatRzZuRhqKRFs54Z6W7T+GDVT5TlQcSOXXl4y1Mp6bIo8rzq9/4Na/9mtdeTa5bU+DUlDgamPYGpl1dbFflj6ty3A2v/E0vPZrnHvVzr/qlV/Xao8x11+cNyfI0jIdAs0r60dg6gqiGOoSfVQXfhQ+cgrsewT0//16w/E6Ic2ui/FaElxbgJrs5SU5OqpN328m/a+fcspfftPNvjgtSxvmJ4zyak0d38VIdwvv26pd2TZmzq8ZjUHgNFW5t2bgi1y556uDfdfPSvMIUrzjJI0nyiFN9onS/4J6Pf9/Bu+Mov+3gpjq5SR4e3ceneflUL4/q5SV4eInu8hQXN/UjN0PxNg3QaKQf0BYHJB/RFH4TPBgtpPuKEyKshNky6iwTN1MEzBUDCyXAj1JgvhQzV4KbLSHMlZBn8shTBeRwESFUjA0XA1PFwI8iIFqEmSmhBvkP3QqGs7fOY2r19MicSuZYeaY9j+59iw0XABMsIMQFguXABAeYYWIWi/HRItIEgxxhEKcY+Jli7Gzxjdni6+d+MIE5FjBTBkyVxU2yMcNsiuI1GWhSS4aMGjdYNa5+M8a/7WGQp1jkRQFtvZK2WUXeqIzfqMJsSjEb1dj1aty6lLQmpaxX0bYrkzarktZqElZl5DUZYbMG+1Ma/7OSsCpNmql/HNQWe5Bqr63B1V3tUJaO8Z46ihODJYRZbtyiFButjVuou7Ekj1urjt+pIOxUULZqErdk9G0ZbVtG/ikj/pThN2uwG9WY9Rrsak38sgy/LCP4qpNbipKBFpXwG6LwgWKX+j8OfvIEC7fII/ysoR1rEs9a6Wft1FMtMaYlHGuJx1rykZZ2pKUftyddtKWet6ecdCQfd9JjndSzDtKFlnzennDQfmu1+9kUXOQfEPsG61zdleNKxpjgiYuVNMUjr1YTdlsoe13EHR1+vwt/rCVctJKuWqlXHSmXHcmXnUkXXQkXXdRzHeVYSzjU4g+1hAMtaV9L2ddSZ5szdOw7QLuSPwzXBQxCt/qFg58wXQasC4HDesJFO/WPnvYHJv9CCBdI/AWCu0AIFzDpAqZeQbTffeRfevKlgXQOEs5B3JUB8wfC/4EoJ3DqlunxnO1N4APL/17s7RE5lfkjgnsuNnVGQtxSEE56qWcI6QTFnRmxVwj2XxD7Pwbc/9OT/zWQ/oLE3xDuCom/NGJPYcwJjI3BuBOIcAKSTkHyki6jl3cfaFOKvsNKLygZ17weFSZPsIElMbCjJJx00i6hhEsT5dxMPDXjT02EMxPxHKWcG2kXCO3cQDgD8acQ/joRjj+FMOcI/txIPTSnrdsezw7m+D4wvIPl/j6+Q/3mmzB9jEOKVBDXNaRjA/3URD22EE7MuHNT/BUa/xvB/wYJvyD8JYw7M8afoNhjE+YAjdtHMftG3AFCOIRJRxAl2n2nh3sXaFFWfkGaXGDNcEPBkDjDzcVOS7DLKsrPrqQDKOXARN8zUXdN5D2Usm+kHSKJR3DyEZx0CFEOYPI+TN5Hrh3ApH2YvGukb5nTF21PJwZz3e8ZzgFuAOTbG3I+iW4PsYneCuKChrqjT903Ju2aaLsmyh5KOUApRwjlBKLGYMoRQt5HSTsm4raFuI7i1oz4dYS0AVM2oYRtMHG6815XWTqgbVR+RjodSINdJ3a0MDzKrJDmyWRb5lzPs0Uke8WatWp7tmp9ump5topmrcLPV8Hny4asTWv2pjVry5q9ZcnaMGWuGx+to09WzVlR66up/iLfu/Lx95XjgzKvSeroZg83vB5TPg00PZ3verYKv1hDs9cs2avW7GVL1iL6bBHJXNA/XIQeLSKPF02PfqD3Z413o9ZHi7bMJevTZUv2ivmfVdPLKf0bg+AR0FQr+6jXOuBmV5/M0y10dbC9urKgviyClM2Yy+b7WfM25pyNOW/jzFt58xbhrEk0g/IX3nEX33GWBrhLNs6ShbVoYiyYiufMJVMWdtAqdttq7f0N9v4mp7luHJSMdrHt7QxvZ3GklzEPM3+grHkTa9bCnrJwJi2cCRMnhLInzOwpG2faxpqylkTMRVMWxrSlZMZSMmtmzZrYsyZOoI/ZU34faJVKh3ravHBLCFKEYZnXqPKgap9ZFbTUhy21Eas8iFb7EGnAogzYmv39Wo+tw2VpDQ4oQ9basKk2YpRHkJpJWDpplEZQacgk95nVbnO7w9w9btE5zA1Ok9JlrPfCcj9UEwKrJxH5lLF2Aq0LmZV+i9pra3T1t4zZmsf7m90DTb5+td9S70drQiZZ+P+g8jBaGzLVOXtEHax0oFvIHWmqCbSJJ9pYE+0lPp3Q0y32dQn8neV+LdvfznK1MMfb2M7eKpdRPW5pG7Zov5taHIYql07kbhd4W8oDLdyJVs5Ee1lYywxoy3xavldb4W2XubUyR6fI1S3y9YoDPaJglyCo5U1o+eF2QaBd4NGKXN0VLoNsHFENW9pHza0OtNFtqPd0VXrb+ME2XritPNzGDbaX+7Xl3g7ecCOjqTAZ6Cr4Z0iQ6xBmufjpTkHqaOWT4cqno5LHo8IHY/x7o+V3h4WPhqv/GW0sGeut/G5UfUAbPsKKr42Mkfq8kaocu/ilW/IyWPXSK3niFN4bF90bFz5yCJ45+S/tgpdfxM++VWaNSLPHal7Yq56PS7KckmyHKHuEn/VVmD1U9Z+viryhFs4w2jwKaezd8vEmvl1e7BC/cvKz3fxnbn6mQ5g5Ks78LskcED5S5FCA7n8yvjLue0qT/QxcsBTwcUg+NjnIIoZL8eESXIhBcJWQxnkpzvpsV1fpCCz+hFZ9BgXDssxx4R0766azKCnASJ4uS44wKaHS+GApNlyCjxRTJgvp4eIkR0mCvTTBzkxwsOgednKQnRIuSw2WJrmLE+wldHt5mqPq7rjmlddU5zVIvW1cj+yNi/PAmZcUKkyaLKJHimjBEqqXSXGWUd6z6PJ/8AD8NtUrSJ8X0RZFcStiYFGMXRRhV0Rxa0JgTQisCONmBPEhSUJI+STUyfAYKobBmuHuijHJUyf7tqs4MVhMmWVRlvikJRE2KgYWJMCiCFgRxG3w4jfK8VEecY5PmBbgpkS42QrCQiVxuYK8LCZHBeRZEW1amjKlyAi0/sdrrvcbqvwtTG/lMy8zJfAWt1BKXGUT13jEFRExWkGcryTaJUnKt3TgPS9lQZ2+10g91MQda4BDJeZIiTlWAjElcKwEDlTATw1xtTFtoTV7TlcW6at1d2scrXVO8WsP536QlbbAS9qRJR9paPtNuJ/NwHYLsNMMHDYAZyrgUoE5ryPElIR9TfxWE2azOW6r+cZ+E/a4ER9roO43Jm0131xpzZjseuWyaryQzNfC9FU8DpUlzJZg1vnY3UrskQJ/3EQ+aqXsNZOnGtI7yh8B36vSNrTpZ7qEqy7sr07gqpdy2Ue56iNc9eEu9bhzA+FQn7DZd3PRkP0DZUbMVS6odlxX6ah+5hHeCgkSl6oTDpoSz3W0Mz0xBmKP4LgTEHOux/7uwf3VEX93ki+6ibFe/IEBewBiDg1xp/r4817CRQ/1pDdpX39rG7zzw5jrHWzxmxQ+LcctzfRy6RFm3LoUv6ckHLeSTnTUWB/1sJcyq71zXXdUnrrVk34OJvwyxP8B434Z6Vdo4i+U9gulXJrI52bqoSlpC01fNj2ftzEiNrHTWDXWzRuruucU0P0CUlRGOmilnfdSLmDSGYo/McefmXAXRuJvmPwHov6BaJcI5QwlxSz4mAV3ao6/QAlXCPkKTjhDUo/Q9F3TvSVrvn+wLYCqvO1cZ9VTF4ceYMatySl7TZTjLtqpgR6DE44g6pzu7nXdLzL6cu/NQ5h6AmPOkLgYRI+BKTEwMQbRjmHqIULbQVLWkTtRY/a8hRGxiNxwhUPHHZVkOHg0H48wLyXsNlJPu6hnfaSYAX8M4o9BYsxAOe1LOOtLOIcTT5GEE5RybCIdm4gnKOEcIV9CtAso6QS6dQjf2zU+WjYVBi2tIVAVaOG7K5+7OanBMsKqnL7TRD/UJcbApBiceAjRZnX3rutaZWmRvgcr6O1NU+K2KWkTfLRpeLppeLwJPtyE7q9DD5agJ/Pg82m4YMoiDNsUblTl6KsZr89xVj32VN6Zrr+z0f7woPfBvuHuDpi+Dd7ZAu9vgo83DU83wKcbcOY68ngdebhuvLdpvLONZOwh9w/gR/vwsx34n03kzZoxb87E91nb/Uijt6PCVZfvqsz0V2TMq+8vt91f73u4bXy8bXq0hd6P9GRd1wXrHzmhV1O2F3P9mdH+rKixKIqURo3FUWNhFM1fQPOnkcIQxAgaBWGbMjTY6e7XOZBWT4fY3Vji1eRNtuetGIp+okXbpvx1U+6quWDJzIiay35YuHOW8oiJOWkqmUKLZ9H8eePbKJK7guavoUWraOkSyl0wCedNkoi1zj3Y5bW2ufV1jhauQ13g1bwOt+dM9eTMG/MWbYVLAwWLtrygoeC6bqc6f9gqCn4WT3zmT37khy0Vk9bqmYHq2UHpzGDF1DvxxDtJ8F21753C/a7ZOdA1PtDnHOj1WZqCZmXYLJ80V06bhbNm7uJ70eKniskBkdcidlik9v46+3v194G6sXd1rne1wYGaCVvlpEU8bZVM2yonbdIJmzzYrwz0q93vGr8Ptoy+a3L2a/xWRchSO2GpnrBJwwOVwXcVwUFJcFASeidxwYIufibQpOF+sCjHBpXjNrkLlXp6RYFeUcggCoP8IMjx6Zk+kO2H+F5I4oFqXKDCCWpcoMbVV+PWV3r0Qp+eG9CzQn0lEZAVgThePdduEA4bZcP9DcMf2r8MtH6zNo6hShdY49NLQr2CsF4QMggCoNAHSryQ1APVOOGaYbhyDKpwgBK3Xuy9JvJCYjcsdiISF1Lhhiu8UOVIF6+l7D6gbKi0mNo+mdo+9qq+tEnttYXe2rf++lyf4rWn/oWzLtNd/8yrfOFR/sejfONR5Hvqi931DKeiwKHKHVe9dqr+cauyfMqnvvpnnrrnjvrXIw2M4S7xKKKy29q/o23DvaqR1kq7iu2uKwrU5fnrc3yKV27VK5cqx6nKdSrzHKq3dvWr6yhljlvxxqV461Dm21WFo+qiYQ1jRF06pmI6FKzP8kJV4U1A01AxgDR/0Td8apR+rWaNld7xMlP97NQANznATfByiD4O0c8hBTiUADshWJYUYqUEWWkeTqqbm+wqp7vLKZ5yUoBDCJSRAyy6l3PbJclyqYq9uooApHDr5E4Nb0ySO8567C+9M8m6OVGWGGRTfRyKl0vxcqk+Du3/BNgJATY9WJbkZ6d4OGkO7k17+a1RXrq9PMPBzXCzMz6x79XlJgHNDcJPkGZMpxiuE4yW546/IQXysBOM+Oky3CwHO8u9McMGZljALBOYKwV+lAALjBs/SjAzZfhJDi7CxUa4N6a4wCwbmGfFzTMJ0+ykiPhhWPk23MmbNFQHtUKPPH+c9cD5JiH8hrBQEB9l3JgvvQ6cLrs2w7pe51EWsMgEFpk3okzMPCt+ugwfYuP8HLyPgw+w8eEyfISFGy6j171NAto17BGwzt9Z7a1mecpeeApxIeaNGT5uUUpcqyVtKIgb9biNOsx2LWZHht2tid+vxu9VE7frEjYUtDUlZU1FWlcSt+sJO7XUnzVJ67KMBeXTaW3BJCyYtlaH9DyvKsfOve3Kx08VYdbYcbuV2F3Zje1aYKvu2s9aYE8OxGRxMRk2Jos/lOP3aonb9aQVBSGqJCyo8IvK+BUFdr0OE5AlqgvTgA4VaxSqDeiq3PISJ+eJryRuhgesyYj7jQnH7YmxDlqsk3zSSTrtJJ51ks46SOcd5HMt9awz6bQr6URHP9XRzrqol52Uq46Ec23KkfbOpi4rCubPWLjT/RUhg8CnznVzM0KFxCUm7kAUf9lAvuggxHTYmA5z2hV32RH3S4v51Yn/1Un41Um87CSdd5FOdeQjHemgm3jQTTzsJhzp8DEdbq4trYlz+7ruMCj39lSO1RV9595zl1x/pewoiWcdib96ky56qRd95IvrgU78341OOAOJZyD5Qk+90lN/6Sm/+sh/+oh/+/B/9aTfIO0UvrljfLxkzpmxlkSsfH+f0Kt462FnTBWQt8oIZ1WEP1rapYF0jMTHEMw5hPmrx/ztw55D8f/VQm9aqzgDaFeyvxpqnd3S4XrGEPehsxSYEQKbSmKsM+miL+VcTz8z0E5ByilEPoFIMZgUg8kxiHoMJcSghJNr1DOQfA4SLyDKGUI/QG+tm5/M23ImBkoCAzwvLHBocuzltwPFxBUeKVZPPdclxmDKrom4hxIOjYQziHABEk4hwgn8X8z33m6W3AWaFeUf9YqxHvk3NWdI/MLBI0eqSMualJ9dGYfg3UM44wC+tQ+n7SGpu0jqjjF1x5i2Y7z503h725j+03h7B7m1i6TtI8kHxrQ9NH3T/Chq/ScyUOQd5LgGxQ6zZLS1YLjioYebHK1K3W9KP9Df2TbeXLOkrplTNk0pe0jqPpy6i6T8V5P6R42Sh4CmXvjO0DgKNnxvl35TlDprM0OaRzParMW+f1bgl2vGF6to1gr6dNn0dMn0dNH8dNH0bNGUvWh6HjU9j5qfL5qyl0zPVtDMVfOzFcvzBWvOZD/DM8gf+1A1/KH2u03+vad8WJ3rkWfPaZ5vdL5cg15GTdmz1qw5a9aCOWsZzV5BsxdNWf+VB3ytqsj8/2SU5uFdDGbEAAAAAElFTkSuQmCC;" vertex="1" parent="1">
          <mxGeometry x="310" y="565" width="27.62" height="20" as="geometry" />
        </mxCell>
        <mxCell id="mWnzP0U88Y1ZApxrXtzR-13" value="" style="shape=image;verticalLabelPosition=bottom;labelBackgroundColor=default;verticalAlign=top;aspect=fixed;imageAspect=0;image=data:image/png,iVBORw0KGgoAAAANSUhEUgAAADoAAAAqCAIAAABtD9/kAAAaiElEQVRYCYXZZ1daXaM14B1BOog1iaYnJprceRJjrCgISFdRUGl2UbHALmyaxjRTLEivYo/YW+xiT7nf87Pe4Tk/4Bnj+rTGGnPNr3MsQJ1JN+amfCygDxWQv+bjvuQDX/OAr2+xX94Sht5SPuZRBwoTrKVJVsG9D8o3nzu4H3UVQ+2i98yHHwrS3ucmDOVRvuUTv73FfM+9MXwN8z0X9/0N8dsb8pe3+I+FwKcCYCj/xtfrC9jhXMxIPvZbPuZTHmYwn/iekfyJff+9+NWnVun3VumomvdNlPO56O7nV7Th1+SxHNLYW9JwAWWokDpYSOnNTyh/ggc6X9O/cm/5xGnhisRJCXlWCMwLgHkBdlaAnxEQJ4XkoITmrU72qh+GdPkTqCholk1AVV7efX9pkp9BmWSRFnjkJT5+iYdZ4t1Y4t1Y5GGiPNwCD/+Dj50TAvNCYIF/fbhcjlkuj1sTxS+L4+eE2EkhIVKROC27G254HTLWRyD5ZAcvWPPSW3YrUECcYRAWmPilcuKCiDwtIQfFxE+CxNq8ZMBYmuCX31pqTFtvStxqJO2pMfsqzL4St6fC76iIW2ryahM92pY22/VoGnw7gZZ7YYmvqzzATw8zqeFS/A8efruafFhHOlbgjxXYYwXmSIk9UMbvK3H7Kuy+GjhU3jhSYGP18Sd18Sf12HMN4aQBv6vGrauJq02J6+0Z0Z6coKV2ApGGtUyf9ImHSQvlAWtc3L6EcCynHKqpW43kJQ3BpUhp5dwBPkmSF7R3Dw3pJ4aksz7y7x7i327Sn27y727KVQ/tvJd+bEjdgTPWjM8WLQXTVr4XrnB3cv2i9CCHEubio1XE/YaEyw76727a7x7Srx7CVS/hspd40Xftqhf3u4fwp5v8r47yv0j/00f500c66SHsdpO39Uk7cMaK+Y2vXx40Vga0DF/1Qz+bMlUM7FcQLuvJ/7bS//Ykn+npuz2kiPZWl+gBMFSduNyTfoyknCLkMxD7xxD/V4/7q8f/1RN+G4gXICmG0PfQmxumJ8u2gtl+UQCVerv5DmGak4N3c+Omq+O3W6lnevoFRDmH8Wcw9hTBnhixsf91DmMvIdwVSPhlIP02EH8b8L8R/AUSvw/GbRiwKxBpzZQ8b3vhtFW7EZG7vcBdfc/PJc8wgb1K7IUS96+W/K+Bdg6Tdw24SFdqt+QB8LEmca779haUuAuTjhD8JUz+DZJ/g5RfIOUKop7DtCOYvmu8uWl5tmwrnLEKAsaqQJ9ohJ/i4JE8Qvy0nLjZRj8BU87RpFOUcmwkHCDx+0bcvplwaCEdI4RjkBDTE0/6SOd68hVIPocIMQS3b8Rvo+R1M33FkjrX/0/ws9JvrvB0FLjlDzw8cqgE2KzExJT4Xx2U3yD9FKFtG/ChjhQtPwMYkN+a7Hu4ZszYNKXumlP24Fv7UPrBtYx9KGMXztiE764gj6PmnBkLK2CqdCC1zr7qEWnmeOUdV/XtsPL2ovbeT+jRvvnRnuXetun2uvHmKnpr1Zy+Zs7YMN7ahG5v6W/v6DMOwLsx5O4BcnvXmLaFpq2Z05cs939Yn0T6C10fG8dNstGuslHli/HKdC+fEpUnbjWkHOoyDuF7P413lqCb3q77naL7AFr3OAi9XrS+XLFlrfZnL5hzf5gKF0xFUbQ4ihYvmIpmTYxJc1nQKvTYaketzV9Mnd9grb1V5Gxmu1pKA1rGdF9J1Fi6YmMtD5T+sDJmzMWTZsakpXTKVjptLpxFi+bg4ijMWEVLt8zMDXPRqjl/yZL/w1Y008+c7Of63sm/fugdsmo/G+q/dghGmhlOdU64NWdOl7sEFy5ZSuatjIip0NFX0FORCejr37gR7nQ/e8bGmLYWT/aLIzbplLV6xiKbNctnzbJpq3zSVhfsV7psTaO2rm82w7DF4ENag5A6CNWHIfkUKpux1Mz118z0V09YqwMWmd9S57ep/QOqwIAsaK0JmWom0Zo5k2zRIouaK3+YxfMW8Yy1KmKThW0Kz0Dr9/fwt/7eb6b2UVjlNNT49ZKwQTSFiOYsVfMDsukBWdhW4wBF3ZIsoEtRNmKUe201bpPQifA8aLXXWOtH6kOQcgJURQzKCKwMIwofrBgHlcNQ4zdYO4x0euAWH9Tgh1UBuC4AywNIjQ+qdoPVDrDODqnHja1Os87Vr3MPtrhtDS6jygMq/Pq6sEE+oa8K6yvC+oqAQeoFa92gchxqGka7viPtw2DDmKHeBcn8sNRnkATAihAsDRvlQaTOC9WNdFW0l2cCWqVkCGkcNam/GKqHdDx7c4G7Md+rKQqoGGFlyYSCMakujqgLfcpcR/2bUUXeiJox2sgcaygcb8p3NuU5m3JdTTmOhld2zatRzZuRhqKRFs54Z6W7T+GDVT5TlQcSOXXl4y1Mp6bIo8rzq9/4Na/9mtdeTa5bU+DUlDgamPYGpl1dbFflj6ty3A2v/E0vPZrnHvVzr/qlV/Xao8x11+cNyfI0jIdAs0r60dg6gqiGOoSfVQXfhQ+cgrsewT0//16w/E6Ic2ui/FaElxbgJrs5SU5OqpN328m/a+fcspfftPNvjgtSxvmJ4zyak0d38VIdwvv26pd2TZmzq8ZjUHgNFW5t2bgi1y556uDfdfPSvMIUrzjJI0nyiFN9onS/4J6Pf9/Bu+Mov+3gpjq5SR4e3ceneflUL4/q5SV4eInu8hQXN/UjN0PxNg3QaKQf0BYHJB/RFH4TPBgtpPuKEyKshNky6iwTN1MEzBUDCyXAj1JgvhQzV4KbLSHMlZBn8shTBeRwESFUjA0XA1PFwI8iIFqEmSmhBvkP3QqGs7fOY2r19MicSuZYeaY9j+59iw0XABMsIMQFguXABAeYYWIWi/HRItIEgxxhEKcY+Jli7Gzxjdni6+d+MIE5FjBTBkyVxU2yMcNsiuI1GWhSS4aMGjdYNa5+M8a/7WGQp1jkRQFtvZK2WUXeqIzfqMJsSjEb1dj1aty6lLQmpaxX0bYrkzarktZqElZl5DUZYbMG+1Ma/7OSsCpNmql/HNQWe5Bqr63B1V3tUJaO8Z46ihODJYRZbtyiFButjVuou7Ekj1urjt+pIOxUULZqErdk9G0ZbVtG/ikj/pThN2uwG9WY9Rrsak38sgy/LCP4qpNbipKBFpXwG6LwgWKX+j8OfvIEC7fII/ysoR1rEs9a6Wft1FMtMaYlHGuJx1rykZZ2pKUftyddtKWet6ecdCQfd9JjndSzDtKFlnzennDQfmu1+9kUXOQfEPsG61zdleNKxpjgiYuVNMUjr1YTdlsoe13EHR1+vwt/rCVctJKuWqlXHSmXHcmXnUkXXQkXXdRzHeVYSzjU4g+1hAMtaV9L2ddSZ5szdOw7QLuSPwzXBQxCt/qFg58wXQasC4HDesJFO/WPnvYHJv9CCBdI/AWCu0AIFzDpAqZeQbTffeRfevKlgXQOEs5B3JUB8wfC/4EoJ3DqlunxnO1N4APL/17s7RE5lfkjgnsuNnVGQtxSEE56qWcI6QTFnRmxVwj2XxD7Pwbc/9OT/zWQ/oLE3xDuCom/NGJPYcwJjI3BuBOIcAKSTkHyki6jl3cfaFOKvsNKLygZ17weFSZPsIElMbCjJJx00i6hhEsT5dxMPDXjT02EMxPxHKWcG2kXCO3cQDgD8acQ/joRjj+FMOcI/txIPTSnrdsezw7m+D4wvIPl/j6+Q/3mmzB9jEOKVBDXNaRjA/3URD22EE7MuHNT/BUa/xvB/wYJvyD8JYw7M8afoNhjE+YAjdtHMftG3AFCOIRJRxAl2n2nh3sXaFFWfkGaXGDNcEPBkDjDzcVOS7DLKsrPrqQDKOXARN8zUXdN5D2Usm+kHSKJR3DyEZx0CFEOYPI+TN5Hrh3ApH2YvGukb5nTF21PJwZz3e8ZzgFuAOTbG3I+iW4PsYneCuKChrqjT903Ju2aaLsmyh5KOUApRwjlBKLGYMoRQt5HSTsm4raFuI7i1oz4dYS0AVM2oYRtMHG6815XWTqgbVR+RjodSINdJ3a0MDzKrJDmyWRb5lzPs0Uke8WatWp7tmp9ump5topmrcLPV8Hny4asTWv2pjVry5q9ZcnaMGWuGx+to09WzVlR66up/iLfu/Lx95XjgzKvSeroZg83vB5TPg00PZ3verYKv1hDs9cs2avW7GVL1iL6bBHJXNA/XIQeLSKPF02PfqD3Z413o9ZHi7bMJevTZUv2ivmfVdPLKf0bg+AR0FQr+6jXOuBmV5/M0y10dbC9urKgviyClM2Yy+b7WfM25pyNOW/jzFt58xbhrEk0g/IX3nEX33GWBrhLNs6ShbVoYiyYiufMJVMWdtAqdttq7f0N9v4mp7luHJSMdrHt7QxvZ3GklzEPM3+grHkTa9bCnrJwJi2cCRMnhLInzOwpG2faxpqylkTMRVMWxrSlZMZSMmtmzZrYsyZOoI/ZU34faJVKh3ravHBLCFKEYZnXqPKgap9ZFbTUhy21Eas8iFb7EGnAogzYmv39Wo+tw2VpDQ4oQ9basKk2YpRHkJpJWDpplEZQacgk95nVbnO7w9w9btE5zA1Ok9JlrPfCcj9UEwKrJxH5lLF2Aq0LmZV+i9pra3T1t4zZmsf7m90DTb5+td9S70drQiZZ+P+g8jBaGzLVOXtEHax0oFvIHWmqCbSJJ9pYE+0lPp3Q0y32dQn8neV+LdvfznK1MMfb2M7eKpdRPW5pG7Zov5taHIYql07kbhd4W8oDLdyJVs5Ee1lYywxoy3xavldb4W2XubUyR6fI1S3y9YoDPaJglyCo5U1o+eF2QaBd4NGKXN0VLoNsHFENW9pHza0OtNFtqPd0VXrb+ME2XritPNzGDbaX+7Xl3g7ecCOjqTAZ6Cr4Z0iQ6xBmufjpTkHqaOWT4cqno5LHo8IHY/x7o+V3h4WPhqv/GW0sGeut/G5UfUAbPsKKr42Mkfq8kaocu/ilW/IyWPXSK3niFN4bF90bFz5yCJ45+S/tgpdfxM++VWaNSLPHal7Yq56PS7KckmyHKHuEn/VVmD1U9Z+viryhFs4w2jwKaezd8vEmvl1e7BC/cvKz3fxnbn6mQ5g5Ks78LskcED5S5FCA7n8yvjLue0qT/QxcsBTwcUg+NjnIIoZL8eESXIhBcJWQxnkpzvpsV1fpCCz+hFZ9BgXDssxx4R0766azKCnASJ4uS44wKaHS+GApNlyCjxRTJgvp4eIkR0mCvTTBzkxwsOgednKQnRIuSw2WJrmLE+wldHt5mqPq7rjmlddU5zVIvW1cj+yNi/PAmZcUKkyaLKJHimjBEqqXSXGWUd6z6PJ/8AD8NtUrSJ8X0RZFcStiYFGMXRRhV0Rxa0JgTQisCONmBPEhSUJI+STUyfAYKobBmuHuijHJUyf7tqs4MVhMmWVRlvikJRE2KgYWJMCiCFgRxG3w4jfK8VEecY5PmBbgpkS42QrCQiVxuYK8LCZHBeRZEW1amjKlyAi0/sdrrvcbqvwtTG/lMy8zJfAWt1BKXGUT13jEFRExWkGcryTaJUnKt3TgPS9lQZ2+10g91MQda4BDJeZIiTlWAjElcKwEDlTATw1xtTFtoTV7TlcW6at1d2scrXVO8WsP536QlbbAS9qRJR9paPtNuJ/NwHYLsNMMHDYAZyrgUoE5ryPElIR9TfxWE2azOW6r+cZ+E/a4ER9roO43Jm0131xpzZjseuWyaryQzNfC9FU8DpUlzJZg1vnY3UrskQJ/3EQ+aqXsNZOnGtI7yh8B36vSNrTpZ7qEqy7sr07gqpdy2Ue56iNc9eEu9bhzA+FQn7DZd3PRkP0DZUbMVS6odlxX6ah+5hHeCgkSl6oTDpoSz3W0Mz0xBmKP4LgTEHOux/7uwf3VEX93ki+6ibFe/IEBewBiDg1xp/r4817CRQ/1pDdpX39rG7zzw5jrHWzxmxQ+LcctzfRy6RFm3LoUv6ckHLeSTnTUWB/1sJcyq71zXXdUnrrVk34OJvwyxP8B434Z6Vdo4i+U9gulXJrI52bqoSlpC01fNj2ftzEiNrHTWDXWzRuruucU0P0CUlRGOmilnfdSLmDSGYo/McefmXAXRuJvmPwHov6BaJcI5QwlxSz4mAV3ao6/QAlXCPkKTjhDUo/Q9F3TvSVrvn+wLYCqvO1cZ9VTF4ceYMatySl7TZTjLtqpgR6DE44g6pzu7nXdLzL6cu/NQ5h6AmPOkLgYRI+BKTEwMQbRjmHqIULbQVLWkTtRY/a8hRGxiNxwhUPHHZVkOHg0H48wLyXsNlJPu6hnfaSYAX8M4o9BYsxAOe1LOOtLOIcTT5GEE5RybCIdm4gnKOEcIV9CtAso6QS6dQjf2zU+WjYVBi2tIVAVaOG7K5+7OanBMsKqnL7TRD/UJcbApBiceAjRZnX3rutaZWmRvgcr6O1NU+K2KWkTfLRpeLppeLwJPtyE7q9DD5agJ/Pg82m4YMoiDNsUblTl6KsZr89xVj32VN6Zrr+z0f7woPfBvuHuDpi+Dd7ZAu9vgo83DU83wKcbcOY68ngdebhuvLdpvLONZOwh9w/gR/vwsx34n03kzZoxb87E91nb/Uijt6PCVZfvqsz0V2TMq+8vt91f73u4bXy8bXq0hd6P9GRd1wXrHzmhV1O2F3P9mdH+rKixKIqURo3FUWNhFM1fQPOnkcIQxAgaBWGbMjTY6e7XOZBWT4fY3Vji1eRNtuetGIp+okXbpvx1U+6quWDJzIiay35YuHOW8oiJOWkqmUKLZ9H8eePbKJK7guavoUWraOkSyl0wCedNkoi1zj3Y5bW2ufV1jhauQ13g1bwOt+dM9eTMG/MWbYVLAwWLtrygoeC6bqc6f9gqCn4WT3zmT37khy0Vk9bqmYHq2UHpzGDF1DvxxDtJ8F21753C/a7ZOdA1PtDnHOj1WZqCZmXYLJ80V06bhbNm7uJ70eKniskBkdcidlik9v46+3v194G6sXd1rne1wYGaCVvlpEU8bZVM2yonbdIJmzzYrwz0q93vGr8Ptoy+a3L2a/xWRchSO2GpnrBJwwOVwXcVwUFJcFASeidxwYIufibQpOF+sCjHBpXjNrkLlXp6RYFeUcggCoP8IMjx6Zk+kO2H+F5I4oFqXKDCCWpcoMbVV+PWV3r0Qp+eG9CzQn0lEZAVgThePdduEA4bZcP9DcMf2r8MtH6zNo6hShdY49NLQr2CsF4QMggCoNAHSryQ1APVOOGaYbhyDKpwgBK3Xuy9JvJCYjcsdiISF1Lhhiu8UOVIF6+l7D6gbKi0mNo+mdo+9qq+tEnttYXe2rf++lyf4rWn/oWzLtNd/8yrfOFR/sejfONR5Hvqi931DKeiwKHKHVe9dqr+cauyfMqnvvpnnrrnjvrXIw2M4S7xKKKy29q/o23DvaqR1kq7iu2uKwrU5fnrc3yKV27VK5cqx6nKdSrzHKq3dvWr6yhljlvxxqV461Dm21WFo+qiYQ1jRF06pmI6FKzP8kJV4U1A01AxgDR/0Td8apR+rWaNld7xMlP97NQANznATfByiD4O0c8hBTiUADshWJYUYqUEWWkeTqqbm+wqp7vLKZ5yUoBDCJSRAyy6l3PbJclyqYq9uooApHDr5E4Nb0ySO8567C+9M8m6OVGWGGRTfRyKl0vxcqk+Du3/BNgJATY9WJbkZ6d4OGkO7k17+a1RXrq9PMPBzXCzMz6x79XlJgHNDcJPkGZMpxiuE4yW546/IQXysBOM+Oky3CwHO8u9McMGZljALBOYKwV+lAALjBs/SjAzZfhJDi7CxUa4N6a4wCwbmGfFzTMJ0+ykiPhhWPk23MmbNFQHtUKPPH+c9cD5JiH8hrBQEB9l3JgvvQ6cLrs2w7pe51EWsMgEFpk3okzMPCt+ugwfYuP8HLyPgw+w8eEyfISFGy6j171NAto17BGwzt9Z7a1mecpeeApxIeaNGT5uUUpcqyVtKIgb9biNOsx2LWZHht2tid+vxu9VE7frEjYUtDUlZU1FWlcSt+sJO7XUnzVJ67KMBeXTaW3BJCyYtlaH9DyvKsfOve3Kx08VYdbYcbuV2F3Zje1aYKvu2s9aYE8OxGRxMRk2Jos/lOP3aonb9aQVBSGqJCyo8IvK+BUFdr0OE5AlqgvTgA4VaxSqDeiq3PISJ+eJryRuhgesyYj7jQnH7YmxDlqsk3zSSTrtJJ51ks46SOcd5HMt9awz6bQr6URHP9XRzrqol52Uq46Ec23KkfbOpi4rCubPWLjT/RUhg8CnznVzM0KFxCUm7kAUf9lAvuggxHTYmA5z2hV32RH3S4v51Yn/1Un41Um87CSdd5FOdeQjHemgm3jQTTzsJhzp8DEdbq4trYlz+7ruMCj39lSO1RV9595zl1x/pewoiWcdib96ky56qRd95IvrgU78341OOAOJZyD5Qk+90lN/6Sm/+sh/+oh/+/B/9aTfIO0UvrljfLxkzpmxlkSsfH+f0Kt462FnTBWQt8oIZ1WEP1rapYF0jMTHEMw5hPmrx/ztw55D8f/VQm9aqzgDaFeyvxpqnd3S4XrGEPehsxSYEQKbSmKsM+miL+VcTz8z0E5ByilEPoFIMZgUg8kxiHoMJcSghJNr1DOQfA4SLyDKGUI/QG+tm5/M23ImBkoCAzwvLHBocuzltwPFxBUeKVZPPdclxmDKrom4hxIOjYQziHABEk4hwgn8X8z33m6W3AWaFeUf9YqxHvk3NWdI/MLBI0eqSMualJ9dGYfg3UM44wC+tQ+n7SGpu0jqjjF1x5i2Y7z503h725j+03h7B7m1i6TtI8kHxrQ9NH3T/Chq/ScyUOQd5LgGxQ6zZLS1YLjioYebHK1K3W9KP9Df2TbeXLOkrplTNk0pe0jqPpy6i6T8V5P6R42Sh4CmXvjO0DgKNnxvl35TlDprM0OaRzParMW+f1bgl2vGF6to1gr6dNn0dMn0dNH8dNH0bNGUvWh6HjU9j5qfL5qyl0zPVtDMVfOzFcvzBWvOZD/DM8gf+1A1/KH2u03+vad8WJ3rkWfPaZ5vdL5cg15GTdmz1qw5a9aCOWsZzV5BsxdNWf+VB3ytqsj8/2SU5uFdDGbEAAAAAElFTkSuQmCC;" vertex="1" parent="1">
          <mxGeometry x="532.38" y="490" width="27.62" height="20" as="geometry" />
        </mxCell>
        <mxCell id="mWnzP0U88Y1ZApxrXtzR-14" value="" style="shape=image;verticalLabelPosition=bottom;labelBackgroundColor=default;verticalAlign=top;aspect=fixed;imageAspect=0;image=data:image/png,iVBORw0KGgoAAAANSUhEUgAAADoAAAAqCAIAAABtD9/kAAAaiElEQVRYCYXZZ1daXaM14B1BOog1iaYnJprceRJjrCgISFdRUGl2UbHALmyaxjRTLEivYo/YW+xiT7nf87Pe4Tk/4Bnj+rTGGnPNr3MsQJ1JN+amfCygDxWQv+bjvuQDX/OAr2+xX94Sht5SPuZRBwoTrKVJVsG9D8o3nzu4H3UVQ+2i98yHHwrS3ucmDOVRvuUTv73FfM+9MXwN8z0X9/0N8dsb8pe3+I+FwKcCYCj/xtfrC9jhXMxIPvZbPuZTHmYwn/iekfyJff+9+NWnVun3VumomvdNlPO56O7nV7Th1+SxHNLYW9JwAWWokDpYSOnNTyh/ggc6X9O/cm/5xGnhisRJCXlWCMwLgHkBdlaAnxEQJ4XkoITmrU72qh+GdPkTqCholk1AVV7efX9pkp9BmWSRFnjkJT5+iYdZ4t1Y4t1Y5GGiPNwCD/+Dj50TAvNCYIF/fbhcjlkuj1sTxS+L4+eE2EkhIVKROC27G254HTLWRyD5ZAcvWPPSW3YrUECcYRAWmPilcuKCiDwtIQfFxE+CxNq8ZMBYmuCX31pqTFtvStxqJO2pMfsqzL4St6fC76iIW2ryahM92pY22/VoGnw7gZZ7YYmvqzzATw8zqeFS/A8efruafFhHOlbgjxXYYwXmSIk9UMbvK3H7Kuy+GjhU3jhSYGP18Sd18Sf12HMN4aQBv6vGrauJq02J6+0Z0Z6coKV2ApGGtUyf9ImHSQvlAWtc3L6EcCynHKqpW43kJQ3BpUhp5dwBPkmSF7R3Dw3pJ4aksz7y7x7i327Sn27y727KVQ/tvJd+bEjdgTPWjM8WLQXTVr4XrnB3cv2i9CCHEubio1XE/YaEyw76727a7x7Srx7CVS/hspd40Xftqhf3u4fwp5v8r47yv0j/00f500c66SHsdpO39Uk7cMaK+Y2vXx40Vga0DF/1Qz+bMlUM7FcQLuvJ/7bS//Ykn+npuz2kiPZWl+gBMFSduNyTfoyknCLkMxD7xxD/V4/7q8f/1RN+G4gXICmG0PfQmxumJ8u2gtl+UQCVerv5DmGak4N3c+Omq+O3W6lnevoFRDmH8Wcw9hTBnhixsf91DmMvIdwVSPhlIP02EH8b8L8R/AUSvw/GbRiwKxBpzZQ8b3vhtFW7EZG7vcBdfc/PJc8wgb1K7IUS96+W/K+Bdg6Tdw24SFdqt+QB8LEmca779haUuAuTjhD8JUz+DZJ/g5RfIOUKop7DtCOYvmu8uWl5tmwrnLEKAsaqQJ9ohJ/i4JE8Qvy0nLjZRj8BU87RpFOUcmwkHCDx+0bcvplwaCEdI4RjkBDTE0/6SOd68hVIPocIMQS3b8Rvo+R1M33FkjrX/0/ws9JvrvB0FLjlDzw8cqgE2KzExJT4Xx2U3yD9FKFtG/ChjhQtPwMYkN+a7Hu4ZszYNKXumlP24Fv7UPrBtYx9KGMXztiE764gj6PmnBkLK2CqdCC1zr7qEWnmeOUdV/XtsPL2ovbeT+jRvvnRnuXetun2uvHmKnpr1Zy+Zs7YMN7ahG5v6W/v6DMOwLsx5O4BcnvXmLaFpq2Z05cs939Yn0T6C10fG8dNstGuslHli/HKdC+fEpUnbjWkHOoyDuF7P413lqCb3q77naL7AFr3OAi9XrS+XLFlrfZnL5hzf5gKF0xFUbQ4ihYvmIpmTYxJc1nQKvTYaketzV9Mnd9grb1V5Gxmu1pKA1rGdF9J1Fi6YmMtD5T+sDJmzMWTZsakpXTKVjptLpxFi+bg4ijMWEVLt8zMDXPRqjl/yZL/w1Y008+c7Of63sm/fugdsmo/G+q/dghGmhlOdU64NWdOl7sEFy5ZSuatjIip0NFX0FORCejr37gR7nQ/e8bGmLYWT/aLIzbplLV6xiKbNctnzbJpq3zSVhfsV7psTaO2rm82w7DF4ENag5A6CNWHIfkUKpux1Mz118z0V09YqwMWmd9S57ep/QOqwIAsaK0JmWom0Zo5k2zRIouaK3+YxfMW8Yy1KmKThW0Kz0Dr9/fwt/7eb6b2UVjlNNT49ZKwQTSFiOYsVfMDsukBWdhW4wBF3ZIsoEtRNmKUe201bpPQifA8aLXXWOtH6kOQcgJURQzKCKwMIwofrBgHlcNQ4zdYO4x0euAWH9Tgh1UBuC4AywNIjQ+qdoPVDrDODqnHja1Os87Vr3MPtrhtDS6jygMq/Pq6sEE+oa8K6yvC+oqAQeoFa92gchxqGka7viPtw2DDmKHeBcn8sNRnkATAihAsDRvlQaTOC9WNdFW0l2cCWqVkCGkcNam/GKqHdDx7c4G7Md+rKQqoGGFlyYSCMakujqgLfcpcR/2bUUXeiJox2sgcaygcb8p3NuU5m3JdTTmOhld2zatRzZuRhqKRFs54Z6W7T+GDVT5TlQcSOXXl4y1Mp6bIo8rzq9/4Na/9mtdeTa5bU+DUlDgamPYGpl1dbFflj6ty3A2v/E0vPZrnHvVzr/qlV/Xao8x11+cNyfI0jIdAs0r60dg6gqiGOoSfVQXfhQ+cgrsewT0//16w/E6Ic2ui/FaElxbgJrs5SU5OqpN328m/a+fcspfftPNvjgtSxvmJ4zyak0d38VIdwvv26pd2TZmzq8ZjUHgNFW5t2bgi1y556uDfdfPSvMIUrzjJI0nyiFN9onS/4J6Pf9/Bu+Mov+3gpjq5SR4e3ceneflUL4/q5SV4eInu8hQXN/UjN0PxNg3QaKQf0BYHJB/RFH4TPBgtpPuKEyKshNky6iwTN1MEzBUDCyXAj1JgvhQzV4KbLSHMlZBn8shTBeRwESFUjA0XA1PFwI8iIFqEmSmhBvkP3QqGs7fOY2r19MicSuZYeaY9j+59iw0XABMsIMQFguXABAeYYWIWi/HRItIEgxxhEKcY+Jli7Gzxjdni6+d+MIE5FjBTBkyVxU2yMcNsiuI1GWhSS4aMGjdYNa5+M8a/7WGQp1jkRQFtvZK2WUXeqIzfqMJsSjEb1dj1aty6lLQmpaxX0bYrkzarktZqElZl5DUZYbMG+1Ma/7OSsCpNmql/HNQWe5Bqr63B1V3tUJaO8Z46ihODJYRZbtyiFButjVuou7Ekj1urjt+pIOxUULZqErdk9G0ZbVtG/ikj/pThN2uwG9WY9Rrsak38sgy/LCP4qpNbipKBFpXwG6LwgWKX+j8OfvIEC7fII/ysoR1rEs9a6Wft1FMtMaYlHGuJx1rykZZ2pKUftyddtKWet6ecdCQfd9JjndSzDtKFlnzennDQfmu1+9kUXOQfEPsG61zdleNKxpjgiYuVNMUjr1YTdlsoe13EHR1+vwt/rCVctJKuWqlXHSmXHcmXnUkXXQkXXdRzHeVYSzjU4g+1hAMtaV9L2ddSZ5szdOw7QLuSPwzXBQxCt/qFg58wXQasC4HDesJFO/WPnvYHJv9CCBdI/AWCu0AIFzDpAqZeQbTffeRfevKlgXQOEs5B3JUB8wfC/4EoJ3DqlunxnO1N4APL/17s7RE5lfkjgnsuNnVGQtxSEE56qWcI6QTFnRmxVwj2XxD7Pwbc/9OT/zWQ/oLE3xDuCom/NGJPYcwJjI3BuBOIcAKSTkHyki6jl3cfaFOKvsNKLygZ17weFSZPsIElMbCjJJx00i6hhEsT5dxMPDXjT02EMxPxHKWcG2kXCO3cQDgD8acQ/joRjj+FMOcI/txIPTSnrdsezw7m+D4wvIPl/j6+Q/3mmzB9jEOKVBDXNaRjA/3URD22EE7MuHNT/BUa/xvB/wYJvyD8JYw7M8afoNhjE+YAjdtHMftG3AFCOIRJRxAl2n2nh3sXaFFWfkGaXGDNcEPBkDjDzcVOS7DLKsrPrqQDKOXARN8zUXdN5D2Usm+kHSKJR3DyEZx0CFEOYPI+TN5Hrh3ApH2YvGukb5nTF21PJwZz3e8ZzgFuAOTbG3I+iW4PsYneCuKChrqjT903Ju2aaLsmyh5KOUApRwjlBKLGYMoRQt5HSTsm4raFuI7i1oz4dYS0AVM2oYRtMHG6815XWTqgbVR+RjodSINdJ3a0MDzKrJDmyWRb5lzPs0Uke8WatWp7tmp9ump5topmrcLPV8Hny4asTWv2pjVry5q9ZcnaMGWuGx+to09WzVlR66up/iLfu/Lx95XjgzKvSeroZg83vB5TPg00PZ3verYKv1hDs9cs2avW7GVL1iL6bBHJXNA/XIQeLSKPF02PfqD3Z413o9ZHi7bMJevTZUv2ivmfVdPLKf0bg+AR0FQr+6jXOuBmV5/M0y10dbC9urKgviyClM2Yy+b7WfM25pyNOW/jzFt58xbhrEk0g/IX3nEX33GWBrhLNs6ShbVoYiyYiufMJVMWdtAqdttq7f0N9v4mp7luHJSMdrHt7QxvZ3GklzEPM3+grHkTa9bCnrJwJi2cCRMnhLInzOwpG2faxpqylkTMRVMWxrSlZMZSMmtmzZrYsyZOoI/ZU34faJVKh3ravHBLCFKEYZnXqPKgap9ZFbTUhy21Eas8iFb7EGnAogzYmv39Wo+tw2VpDQ4oQ9basKk2YpRHkJpJWDpplEZQacgk95nVbnO7w9w9btE5zA1Ok9JlrPfCcj9UEwKrJxH5lLF2Aq0LmZV+i9pra3T1t4zZmsf7m90DTb5+td9S70drQiZZ+P+g8jBaGzLVOXtEHax0oFvIHWmqCbSJJ9pYE+0lPp3Q0y32dQn8neV+LdvfznK1MMfb2M7eKpdRPW5pG7Zov5taHIYql07kbhd4W8oDLdyJVs5Ee1lYywxoy3xavldb4W2XubUyR6fI1S3y9YoDPaJglyCo5U1o+eF2QaBd4NGKXN0VLoNsHFENW9pHza0OtNFtqPd0VXrb+ME2XritPNzGDbaX+7Xl3g7ecCOjqTAZ6Cr4Z0iQ6xBmufjpTkHqaOWT4cqno5LHo8IHY/x7o+V3h4WPhqv/GW0sGeut/G5UfUAbPsKKr42Mkfq8kaocu/ilW/IyWPXSK3niFN4bF90bFz5yCJ45+S/tgpdfxM++VWaNSLPHal7Yq56PS7KckmyHKHuEn/VVmD1U9Z+viryhFs4w2jwKaezd8vEmvl1e7BC/cvKz3fxnbn6mQ5g5Ks78LskcED5S5FCA7n8yvjLue0qT/QxcsBTwcUg+NjnIIoZL8eESXIhBcJWQxnkpzvpsV1fpCCz+hFZ9BgXDssxx4R0766azKCnASJ4uS44wKaHS+GApNlyCjxRTJgvp4eIkR0mCvTTBzkxwsOgednKQnRIuSw2WJrmLE+wldHt5mqPq7rjmlddU5zVIvW1cj+yNi/PAmZcUKkyaLKJHimjBEqqXSXGWUd6z6PJ/8AD8NtUrSJ8X0RZFcStiYFGMXRRhV0Rxa0JgTQisCONmBPEhSUJI+STUyfAYKobBmuHuijHJUyf7tqs4MVhMmWVRlvikJRE2KgYWJMCiCFgRxG3w4jfK8VEecY5PmBbgpkS42QrCQiVxuYK8LCZHBeRZEW1amjKlyAi0/sdrrvcbqvwtTG/lMy8zJfAWt1BKXGUT13jEFRExWkGcryTaJUnKt3TgPS9lQZ2+10g91MQda4BDJeZIiTlWAjElcKwEDlTATw1xtTFtoTV7TlcW6at1d2scrXVO8WsP536QlbbAS9qRJR9paPtNuJ/NwHYLsNMMHDYAZyrgUoE5ryPElIR9TfxWE2azOW6r+cZ+E/a4ER9roO43Jm0131xpzZjseuWyaryQzNfC9FU8DpUlzJZg1vnY3UrskQJ/3EQ+aqXsNZOnGtI7yh8B36vSNrTpZ7qEqy7sr07gqpdy2Ue56iNc9eEu9bhzA+FQn7DZd3PRkP0DZUbMVS6odlxX6ah+5hHeCgkSl6oTDpoSz3W0Mz0xBmKP4LgTEHOux/7uwf3VEX93ki+6ibFe/IEBewBiDg1xp/r4817CRQ/1pDdpX39rG7zzw5jrHWzxmxQ+LcctzfRy6RFm3LoUv6ckHLeSTnTUWB/1sJcyq71zXXdUnrrVk34OJvwyxP8B434Z6Vdo4i+U9gulXJrI52bqoSlpC01fNj2ftzEiNrHTWDXWzRuruucU0P0CUlRGOmilnfdSLmDSGYo/McefmXAXRuJvmPwHov6BaJcI5QwlxSz4mAV3ao6/QAlXCPkKTjhDUo/Q9F3TvSVrvn+wLYCqvO1cZ9VTF4ceYMatySl7TZTjLtqpgR6DE44g6pzu7nXdLzL6cu/NQ5h6AmPOkLgYRI+BKTEwMQbRjmHqIULbQVLWkTtRY/a8hRGxiNxwhUPHHZVkOHg0H48wLyXsNlJPu6hnfaSYAX8M4o9BYsxAOe1LOOtLOIcTT5GEE5RybCIdm4gnKOEcIV9CtAso6QS6dQjf2zU+WjYVBi2tIVAVaOG7K5+7OanBMsKqnL7TRD/UJcbApBiceAjRZnX3rutaZWmRvgcr6O1NU+K2KWkTfLRpeLppeLwJPtyE7q9DD5agJ/Pg82m4YMoiDNsUblTl6KsZr89xVj32VN6Zrr+z0f7woPfBvuHuDpi+Dd7ZAu9vgo83DU83wKcbcOY68ngdebhuvLdpvLONZOwh9w/gR/vwsx34n03kzZoxb87E91nb/Uijt6PCVZfvqsz0V2TMq+8vt91f73u4bXy8bXq0hd6P9GRd1wXrHzmhV1O2F3P9mdH+rKixKIqURo3FUWNhFM1fQPOnkcIQxAgaBWGbMjTY6e7XOZBWT4fY3Vji1eRNtuetGIp+okXbpvx1U+6quWDJzIiay35YuHOW8oiJOWkqmUKLZ9H8eePbKJK7guavoUWraOkSyl0wCedNkoi1zj3Y5bW2ufV1jhauQ13g1bwOt+dM9eTMG/MWbYVLAwWLtrygoeC6bqc6f9gqCn4WT3zmT37khy0Vk9bqmYHq2UHpzGDF1DvxxDtJ8F21753C/a7ZOdA1PtDnHOj1WZqCZmXYLJ80V06bhbNm7uJ70eKniskBkdcidlik9v46+3v194G6sXd1rne1wYGaCVvlpEU8bZVM2yonbdIJmzzYrwz0q93vGr8Ptoy+a3L2a/xWRchSO2GpnrBJwwOVwXcVwUFJcFASeidxwYIufibQpOF+sCjHBpXjNrkLlXp6RYFeUcggCoP8IMjx6Zk+kO2H+F5I4oFqXKDCCWpcoMbVV+PWV3r0Qp+eG9CzQn0lEZAVgThePdduEA4bZcP9DcMf2r8MtH6zNo6hShdY49NLQr2CsF4QMggCoNAHSryQ1APVOOGaYbhyDKpwgBK3Xuy9JvJCYjcsdiISF1Lhhiu8UOVIF6+l7D6gbKi0mNo+mdo+9qq+tEnttYXe2rf++lyf4rWn/oWzLtNd/8yrfOFR/sejfONR5Hvqi931DKeiwKHKHVe9dqr+cauyfMqnvvpnnrrnjvrXIw2M4S7xKKKy29q/o23DvaqR1kq7iu2uKwrU5fnrc3yKV27VK5cqx6nKdSrzHKq3dvWr6yhljlvxxqV461Dm21WFo+qiYQ1jRF06pmI6FKzP8kJV4U1A01AxgDR/0Td8apR+rWaNld7xMlP97NQANznATfByiD4O0c8hBTiUADshWJYUYqUEWWkeTqqbm+wqp7vLKZ5yUoBDCJSRAyy6l3PbJclyqYq9uooApHDr5E4Nb0ySO8567C+9M8m6OVGWGGRTfRyKl0vxcqk+Du3/BNgJATY9WJbkZ6d4OGkO7k17+a1RXrq9PMPBzXCzMz6x79XlJgHNDcJPkGZMpxiuE4yW546/IQXysBOM+Oky3CwHO8u9McMGZljALBOYKwV+lAALjBs/SjAzZfhJDi7CxUa4N6a4wCwbmGfFzTMJ0+ykiPhhWPk23MmbNFQHtUKPPH+c9cD5JiH8hrBQEB9l3JgvvQ6cLrs2w7pe51EWsMgEFpk3okzMPCt+ugwfYuP8HLyPgw+w8eEyfISFGy6j171NAto17BGwzt9Z7a1mecpeeApxIeaNGT5uUUpcqyVtKIgb9biNOsx2LWZHht2tid+vxu9VE7frEjYUtDUlZU1FWlcSt+sJO7XUnzVJ67KMBeXTaW3BJCyYtlaH9DyvKsfOve3Kx08VYdbYcbuV2F3Zje1aYKvu2s9aYE8OxGRxMRk2Jos/lOP3aonb9aQVBSGqJCyo8IvK+BUFdr0OE5AlqgvTgA4VaxSqDeiq3PISJ+eJryRuhgesyYj7jQnH7YmxDlqsk3zSSTrtJJ51ks46SOcd5HMt9awz6bQr6URHP9XRzrqol52Uq46Ec23KkfbOpi4rCubPWLjT/RUhg8CnznVzM0KFxCUm7kAUf9lAvuggxHTYmA5z2hV32RH3S4v51Yn/1Un41Um87CSdd5FOdeQjHemgm3jQTTzsJhzp8DEdbq4trYlz+7ruMCj39lSO1RV9595zl1x/pewoiWcdib96ky56qRd95IvrgU78341OOAOJZyD5Qk+90lN/6Sm/+sh/+oh/+/B/9aTfIO0UvrljfLxkzpmxlkSsfH+f0Kt462FnTBWQt8oIZ1WEP1rapYF0jMTHEMw5hPmrx/ztw55D8f/VQm9aqzgDaFeyvxpqnd3S4XrGEPehsxSYEQKbSmKsM+miL+VcTz8z0E5ByilEPoFIMZgUg8kxiHoMJcSghJNr1DOQfA4SLyDKGUI/QG+tm5/M23ImBkoCAzwvLHBocuzltwPFxBUeKVZPPdclxmDKrom4hxIOjYQziHABEk4hwgn8X8z33m6W3AWaFeUf9YqxHvk3NWdI/MLBI0eqSMualJ9dGYfg3UM44wC+tQ+n7SGpu0jqjjF1x5i2Y7z503h725j+03h7B7m1i6TtI8kHxrQ9NH3T/Chq/ScyUOQd5LgGxQ6zZLS1YLjioYebHK1K3W9KP9Df2TbeXLOkrplTNk0pe0jqPpy6i6T8V5P6R42Sh4CmXvjO0DgKNnxvl35TlDprM0OaRzParMW+f1bgl2vGF6to1gr6dNn0dMn0dNH8dNH0bNGUvWh6HjU9j5qfL5qyl0zPVtDMVfOzFcvzBWvOZD/DM8gf+1A1/KH2u03+vad8WJ3rkWfPaZ5vdL5cg15GTdmz1qw5a9aCOWsZzV5BsxdNWf+VB3ytqsj8/2SU5uFdDGbEAAAAAElFTkSuQmCC;" vertex="1" parent="1">
          <mxGeometry x="526.19" y="390" width="27.62" height="20" as="geometry" />
        </mxCell>
        <mxCell id="mWnzP0U88Y1ZApxrXtzR-16" value="" style="shape=image;verticalLabelPosition=bottom;labelBackgroundColor=default;verticalAlign=top;aspect=fixed;imageAspect=0;image=data:image/png,iVBORw0KGgoAAAANSUhEUgAAADoAAAAqCAIAAABtD9/kAAAaiElEQVRYCYXZZ1daXaM14B1BOog1iaYnJprceRJjrCgISFdRUGl2UbHALmyaxjRTLEivYo/YW+xiT7nf87Pe4Tk/4Bnj+rTGGnPNr3MsQJ1JN+amfCygDxWQv+bjvuQDX/OAr2+xX94Sht5SPuZRBwoTrKVJVsG9D8o3nzu4H3UVQ+2i98yHHwrS3ucmDOVRvuUTv73FfM+9MXwN8z0X9/0N8dsb8pe3+I+FwKcCYCj/xtfrC9jhXMxIPvZbPuZTHmYwn/iekfyJff+9+NWnVun3VumomvdNlPO56O7nV7Th1+SxHNLYW9JwAWWokDpYSOnNTyh/ggc6X9O/cm/5xGnhisRJCXlWCMwLgHkBdlaAnxEQJ4XkoITmrU72qh+GdPkTqCholk1AVV7efX9pkp9BmWSRFnjkJT5+iYdZ4t1Y4t1Y5GGiPNwCD/+Dj50TAvNCYIF/fbhcjlkuj1sTxS+L4+eE2EkhIVKROC27G254HTLWRyD5ZAcvWPPSW3YrUECcYRAWmPilcuKCiDwtIQfFxE+CxNq8ZMBYmuCX31pqTFtvStxqJO2pMfsqzL4St6fC76iIW2ryahM92pY22/VoGnw7gZZ7YYmvqzzATw8zqeFS/A8efruafFhHOlbgjxXYYwXmSIk9UMbvK3H7Kuy+GjhU3jhSYGP18Sd18Sf12HMN4aQBv6vGrauJq02J6+0Z0Z6coKV2ApGGtUyf9ImHSQvlAWtc3L6EcCynHKqpW43kJQ3BpUhp5dwBPkmSF7R3Dw3pJ4aksz7y7x7i327Sn27y727KVQ/tvJd+bEjdgTPWjM8WLQXTVr4XrnB3cv2i9CCHEubio1XE/YaEyw76727a7x7Srx7CVS/hspd40Xftqhf3u4fwp5v8r47yv0j/00f500c66SHsdpO39Uk7cMaK+Y2vXx40Vga0DF/1Qz+bMlUM7FcQLuvJ/7bS//Ykn+npuz2kiPZWl+gBMFSduNyTfoyknCLkMxD7xxD/V4/7q8f/1RN+G4gXICmG0PfQmxumJ8u2gtl+UQCVerv5DmGak4N3c+Omq+O3W6lnevoFRDmH8Wcw9hTBnhixsf91DmMvIdwVSPhlIP02EH8b8L8R/AUSvw/GbRiwKxBpzZQ8b3vhtFW7EZG7vcBdfc/PJc8wgb1K7IUS96+W/K+Bdg6Tdw24SFdqt+QB8LEmca779haUuAuTjhD8JUz+DZJ/g5RfIOUKop7DtCOYvmu8uWl5tmwrnLEKAsaqQJ9ohJ/i4JE8Qvy0nLjZRj8BU87RpFOUcmwkHCDx+0bcvplwaCEdI4RjkBDTE0/6SOd68hVIPocIMQS3b8Rvo+R1M33FkjrX/0/ws9JvrvB0FLjlDzw8cqgE2KzExJT4Xx2U3yD9FKFtG/ChjhQtPwMYkN+a7Hu4ZszYNKXumlP24Fv7UPrBtYx9KGMXztiE764gj6PmnBkLK2CqdCC1zr7qEWnmeOUdV/XtsPL2ovbeT+jRvvnRnuXetun2uvHmKnpr1Zy+Zs7YMN7ahG5v6W/v6DMOwLsx5O4BcnvXmLaFpq2Z05cs939Yn0T6C10fG8dNstGuslHli/HKdC+fEpUnbjWkHOoyDuF7P413lqCb3q77naL7AFr3OAi9XrS+XLFlrfZnL5hzf5gKF0xFUbQ4ihYvmIpmTYxJc1nQKvTYaketzV9Mnd9grb1V5Gxmu1pKA1rGdF9J1Fi6YmMtD5T+sDJmzMWTZsakpXTKVjptLpxFi+bg4ijMWEVLt8zMDXPRqjl/yZL/w1Y008+c7Of63sm/fugdsmo/G+q/dghGmhlOdU64NWdOl7sEFy5ZSuatjIip0NFX0FORCejr37gR7nQ/e8bGmLYWT/aLIzbplLV6xiKbNctnzbJpq3zSVhfsV7psTaO2rm82w7DF4ENag5A6CNWHIfkUKpux1Mz118z0V09YqwMWmd9S57ep/QOqwIAsaK0JmWom0Zo5k2zRIouaK3+YxfMW8Yy1KmKThW0Kz0Dr9/fwt/7eb6b2UVjlNNT49ZKwQTSFiOYsVfMDsukBWdhW4wBF3ZIsoEtRNmKUe201bpPQifA8aLXXWOtH6kOQcgJURQzKCKwMIwofrBgHlcNQ4zdYO4x0euAWH9Tgh1UBuC4AywNIjQ+qdoPVDrDODqnHja1Os87Vr3MPtrhtDS6jygMq/Pq6sEE+oa8K6yvC+oqAQeoFa92gchxqGka7viPtw2DDmKHeBcn8sNRnkATAihAsDRvlQaTOC9WNdFW0l2cCWqVkCGkcNam/GKqHdDx7c4G7Md+rKQqoGGFlyYSCMakujqgLfcpcR/2bUUXeiJox2sgcaygcb8p3NuU5m3JdTTmOhld2zatRzZuRhqKRFs54Z6W7T+GDVT5TlQcSOXXl4y1Mp6bIo8rzq9/4Na/9mtdeTa5bU+DUlDgamPYGpl1dbFflj6ty3A2v/E0vPZrnHvVzr/qlV/Xao8x11+cNyfI0jIdAs0r60dg6gqiGOoSfVQXfhQ+cgrsewT0//16w/E6Ic2ui/FaElxbgJrs5SU5OqpN328m/a+fcspfftPNvjgtSxvmJ4zyak0d38VIdwvv26pd2TZmzq8ZjUHgNFW5t2bgi1y556uDfdfPSvMIUrzjJI0nyiFN9onS/4J6Pf9/Bu+Mov+3gpjq5SR4e3ceneflUL4/q5SV4eInu8hQXN/UjN0PxNg3QaKQf0BYHJB/RFH4TPBgtpPuKEyKshNky6iwTN1MEzBUDCyXAj1JgvhQzV4KbLSHMlZBn8shTBeRwESFUjA0XA1PFwI8iIFqEmSmhBvkP3QqGs7fOY2r19MicSuZYeaY9j+59iw0XABMsIMQFguXABAeYYWIWi/HRItIEgxxhEKcY+Jli7Gzxjdni6+d+MIE5FjBTBkyVxU2yMcNsiuI1GWhSS4aMGjdYNa5+M8a/7WGQp1jkRQFtvZK2WUXeqIzfqMJsSjEb1dj1aty6lLQmpaxX0bYrkzarktZqElZl5DUZYbMG+1Ma/7OSsCpNmql/HNQWe5Bqr63B1V3tUJaO8Z46ihODJYRZbtyiFButjVuou7Ekj1urjt+pIOxUULZqErdk9G0ZbVtG/ikj/pThN2uwG9WY9Rrsak38sgy/LCP4qpNbipKBFpXwG6LwgWKX+j8OfvIEC7fII/ysoR1rEs9a6Wft1FMtMaYlHGuJx1rykZZ2pKUftyddtKWet6ecdCQfd9JjndSzDtKFlnzennDQfmu1+9kUXOQfEPsG61zdleNKxpjgiYuVNMUjr1YTdlsoe13EHR1+vwt/rCVctJKuWqlXHSmXHcmXnUkXXQkXXdRzHeVYSzjU4g+1hAMtaV9L2ddSZ5szdOw7QLuSPwzXBQxCt/qFg58wXQasC4HDesJFO/WPnvYHJv9CCBdI/AWCu0AIFzDpAqZeQbTffeRfevKlgXQOEs5B3JUB8wfC/4EoJ3DqlunxnO1N4APL/17s7RE5lfkjgnsuNnVGQtxSEE56qWcI6QTFnRmxVwj2XxD7Pwbc/9OT/zWQ/oLE3xDuCom/NGJPYcwJjI3BuBOIcAKSTkHyki6jl3cfaFOKvsNKLygZ17weFSZPsIElMbCjJJx00i6hhEsT5dxMPDXjT02EMxPxHKWcG2kXCO3cQDgD8acQ/joRjj+FMOcI/txIPTSnrdsezw7m+D4wvIPl/j6+Q/3mmzB9jEOKVBDXNaRjA/3URD22EE7MuHNT/BUa/xvB/wYJvyD8JYw7M8afoNhjE+YAjdtHMftG3AFCOIRJRxAl2n2nh3sXaFFWfkGaXGDNcEPBkDjDzcVOS7DLKsrPrqQDKOXARN8zUXdN5D2Usm+kHSKJR3DyEZx0CFEOYPI+TN5Hrh3ApH2YvGukb5nTF21PJwZz3e8ZzgFuAOTbG3I+iW4PsYneCuKChrqjT903Ju2aaLsmyh5KOUApRwjlBKLGYMoRQt5HSTsm4raFuI7i1oz4dYS0AVM2oYRtMHG6815XWTqgbVR+RjodSINdJ3a0MDzKrJDmyWRb5lzPs0Uke8WatWp7tmp9ump5topmrcLPV8Hny4asTWv2pjVry5q9ZcnaMGWuGx+to09WzVlR66up/iLfu/Lx95XjgzKvSeroZg83vB5TPg00PZ3verYKv1hDs9cs2avW7GVL1iL6bBHJXNA/XIQeLSKPF02PfqD3Z413o9ZHi7bMJevTZUv2ivmfVdPLKf0bg+AR0FQr+6jXOuBmV5/M0y10dbC9urKgviyClM2Yy+b7WfM25pyNOW/jzFt58xbhrEk0g/IX3nEX33GWBrhLNs6ShbVoYiyYiufMJVMWdtAqdttq7f0N9v4mp7luHJSMdrHt7QxvZ3GklzEPM3+grHkTa9bCnrJwJi2cCRMnhLInzOwpG2faxpqylkTMRVMWxrSlZMZSMmtmzZrYsyZOoI/ZU34faJVKh3ravHBLCFKEYZnXqPKgap9ZFbTUhy21Eas8iFb7EGnAogzYmv39Wo+tw2VpDQ4oQ9basKk2YpRHkJpJWDpplEZQacgk95nVbnO7w9w9btE5zA1Ok9JlrPfCcj9UEwKrJxH5lLF2Aq0LmZV+i9pra3T1t4zZmsf7m90DTb5+td9S70drQiZZ+P+g8jBaGzLVOXtEHax0oFvIHWmqCbSJJ9pYE+0lPp3Q0y32dQn8neV+LdvfznK1MMfb2M7eKpdRPW5pG7Zov5taHIYql07kbhd4W8oDLdyJVs5Ee1lYywxoy3xavldb4W2XubUyR6fI1S3y9YoDPaJglyCo5U1o+eF2QaBd4NGKXN0VLoNsHFENW9pHza0OtNFtqPd0VXrb+ME2XritPNzGDbaX+7Xl3g7ecCOjqTAZ6Cr4Z0iQ6xBmufjpTkHqaOWT4cqno5LHo8IHY/x7o+V3h4WPhqv/GW0sGeut/G5UfUAbPsKKr42Mkfq8kaocu/ilW/IyWPXSK3niFN4bF90bFz5yCJ45+S/tgpdfxM++VWaNSLPHal7Yq56PS7KckmyHKHuEn/VVmD1U9Z+viryhFs4w2jwKaezd8vEmvl1e7BC/cvKz3fxnbn6mQ5g5Ks78LskcED5S5FCA7n8yvjLue0qT/QxcsBTwcUg+NjnIIoZL8eESXIhBcJWQxnkpzvpsV1fpCCz+hFZ9BgXDssxx4R0766azKCnASJ4uS44wKaHS+GApNlyCjxRTJgvp4eIkR0mCvTTBzkxwsOgednKQnRIuSw2WJrmLE+wldHt5mqPq7rjmlddU5zVIvW1cj+yNi/PAmZcUKkyaLKJHimjBEqqXSXGWUd6z6PJ/8AD8NtUrSJ8X0RZFcStiYFGMXRRhV0Rxa0JgTQisCONmBPEhSUJI+STUyfAYKobBmuHuijHJUyf7tqs4MVhMmWVRlvikJRE2KgYWJMCiCFgRxG3w4jfK8VEecY5PmBbgpkS42QrCQiVxuYK8LCZHBeRZEW1amjKlyAi0/sdrrvcbqvwtTG/lMy8zJfAWt1BKXGUT13jEFRExWkGcryTaJUnKt3TgPS9lQZ2+10g91MQda4BDJeZIiTlWAjElcKwEDlTATw1xtTFtoTV7TlcW6at1d2scrXVO8WsP536QlbbAS9qRJR9paPtNuJ/NwHYLsNMMHDYAZyrgUoE5ryPElIR9TfxWE2azOW6r+cZ+E/a4ER9roO43Jm0131xpzZjseuWyaryQzNfC9FU8DpUlzJZg1vnY3UrskQJ/3EQ+aqXsNZOnGtI7yh8B36vSNrTpZ7qEqy7sr07gqpdy2Ue56iNc9eEu9bhzA+FQn7DZd3PRkP0DZUbMVS6odlxX6ah+5hHeCgkSl6oTDpoSz3W0Mz0xBmKP4LgTEHOux/7uwf3VEX93ki+6ibFe/IEBewBiDg1xp/r4817CRQ/1pDdpX39rG7zzw5jrHWzxmxQ+LcctzfRy6RFm3LoUv6ckHLeSTnTUWB/1sJcyq71zXXdUnrrVk34OJvwyxP8B434Z6Vdo4i+U9gulXJrI52bqoSlpC01fNj2ftzEiNrHTWDXWzRuruucU0P0CUlRGOmilnfdSLmDSGYo/McefmXAXRuJvmPwHov6BaJcI5QwlxSz4mAV3ao6/QAlXCPkKTjhDUo/Q9F3TvSVrvn+wLYCqvO1cZ9VTF4ceYMatySl7TZTjLtqpgR6DE44g6pzu7nXdLzL6cu/NQ5h6AmPOkLgYRI+BKTEwMQbRjmHqIULbQVLWkTtRY/a8hRGxiNxwhUPHHZVkOHg0H48wLyXsNlJPu6hnfaSYAX8M4o9BYsxAOe1LOOtLOIcTT5GEE5RybCIdm4gnKOEcIV9CtAso6QS6dQjf2zU+WjYVBi2tIVAVaOG7K5+7OanBMsKqnL7TRD/UJcbApBiceAjRZnX3rutaZWmRvgcr6O1NU+K2KWkTfLRpeLppeLwJPtyE7q9DD5agJ/Pg82m4YMoiDNsUblTl6KsZr89xVj32VN6Zrr+z0f7woPfBvuHuDpi+Dd7ZAu9vgo83DU83wKcbcOY68ngdebhuvLdpvLONZOwh9w/gR/vwsx34n03kzZoxb87E91nb/Uijt6PCVZfvqsz0V2TMq+8vt91f73u4bXy8bXq0hd6P9GRd1wXrHzmhV1O2F3P9mdH+rKixKIqURo3FUWNhFM1fQPOnkcIQxAgaBWGbMjTY6e7XOZBWT4fY3Vji1eRNtuetGIp+okXbpvx1U+6quWDJzIiay35YuHOW8oiJOWkqmUKLZ9H8eePbKJK7guavoUWraOkSyl0wCedNkoi1zj3Y5bW2ufV1jhauQ13g1bwOt+dM9eTMG/MWbYVLAwWLtrygoeC6bqc6f9gqCn4WT3zmT37khy0Vk9bqmYHq2UHpzGDF1DvxxDtJ8F21753C/a7ZOdA1PtDnHOj1WZqCZmXYLJ80V06bhbNm7uJ70eKniskBkdcidlik9v46+3v194G6sXd1rne1wYGaCVvlpEU8bZVM2yonbdIJmzzYrwz0q93vGr8Ptoy+a3L2a/xWRchSO2GpnrBJwwOVwXcVwUFJcFASeidxwYIufibQpOF+sCjHBpXjNrkLlXp6RYFeUcggCoP8IMjx6Zk+kO2H+F5I4oFqXKDCCWpcoMbVV+PWV3r0Qp+eG9CzQn0lEZAVgThePdduEA4bZcP9DcMf2r8MtH6zNo6hShdY49NLQr2CsF4QMggCoNAHSryQ1APVOOGaYbhyDKpwgBK3Xuy9JvJCYjcsdiISF1Lhhiu8UOVIF6+l7D6gbKi0mNo+mdo+9qq+tEnttYXe2rf++lyf4rWn/oWzLtNd/8yrfOFR/sejfONR5Hvqi931DKeiwKHKHVe9dqr+cauyfMqnvvpnnrrnjvrXIw2M4S7xKKKy29q/o23DvaqR1kq7iu2uKwrU5fnrc3yKV27VK5cqx6nKdSrzHKq3dvWr6yhljlvxxqV461Dm21WFo+qiYQ1jRF06pmI6FKzP8kJV4U1A01AxgDR/0Td8apR+rWaNld7xMlP97NQANznATfByiD4O0c8hBTiUADshWJYUYqUEWWkeTqqbm+wqp7vLKZ5yUoBDCJSRAyy6l3PbJclyqYq9uooApHDr5E4Nb0ySO8567C+9M8m6OVGWGGRTfRyKl0vxcqk+Du3/BNgJATY9WJbkZ6d4OGkO7k17+a1RXrq9PMPBzXCzMz6x79XlJgHNDcJPkGZMpxiuE4yW546/IQXysBOM+Oky3CwHO8u9McMGZljALBOYKwV+lAALjBs/SjAzZfhJDi7CxUa4N6a4wCwbmGfFzTMJ0+ykiPhhWPk23MmbNFQHtUKPPH+c9cD5JiH8hrBQEB9l3JgvvQ6cLrs2w7pe51EWsMgEFpk3okzMPCt+ugwfYuP8HLyPgw+w8eEyfISFGy6j171NAto17BGwzt9Z7a1mecpeeApxIeaNGT5uUUpcqyVtKIgb9biNOsx2LWZHht2tid+vxu9VE7frEjYUtDUlZU1FWlcSt+sJO7XUnzVJ67KMBeXTaW3BJCyYtlaH9DyvKsfOve3Kx08VYdbYcbuV2F3Zje1aYKvu2s9aYE8OxGRxMRk2Jos/lOP3aonb9aQVBSGqJCyo8IvK+BUFdr0OE5AlqgvTgA4VaxSqDeiq3PISJ+eJryRuhgesyYj7jQnH7YmxDlqsk3zSSTrtJJ51ks46SOcd5HMt9awz6bQr6URHP9XRzrqol52Uq46Ec23KkfbOpi4rCubPWLjT/RUhg8CnznVzM0KFxCUm7kAUf9lAvuggxHTYmA5z2hV32RH3S4v51Yn/1Un41Um87CSdd5FOdeQjHemgm3jQTTzsJhzp8DEdbq4trYlz+7ruMCj39lSO1RV9595zl1x/pewoiWcdib96ky56qRd95IvrgU78341OOAOJZyD5Qk+90lN/6Sm/+sh/+oh/+/B/9aTfIO0UvrljfLxkzpmxlkSsfH+f0Kt462FnTBWQt8oIZ1WEP1rapYF0jMTHEMw5hPmrx/ztw55D8f/VQm9aqzgDaFeyvxpqnd3S4XrGEPehsxSYEQKbSmKsM+miL+VcTz8z0E5ByilEPoFIMZgUg8kxiHoMJcSghJNr1DOQfA4SLyDKGUI/QG+tm5/M23ImBkoCAzwvLHBocuzltwPFxBUeKVZPPdclxmDKrom4hxIOjYQziHABEk4hwgn8X8z33m6W3AWaFeUf9YqxHvk3NWdI/MLBI0eqSMualJ9dGYfg3UM44wC+tQ+n7SGpu0jqjjF1x5i2Y7z503h725j+03h7B7m1i6TtI8kHxrQ9NH3T/Chq/ScyUOQd5LgGxQ6zZLS1YLjioYebHK1K3W9KP9Df2TbeXLOkrplTNk0pe0jqPpy6i6T8V5P6R42Sh4CmXvjO0DgKNnxvl35TlDprM0OaRzParMW+f1bgl2vGF6to1gr6dNn0dMn0dNH8dNH0bNGUvWh6HjU9j5qfL5qyl0zPVtDMVfOzFcvzBWvOZD/DM8gf+1A1/KH2u03+vad8WJ3rkWfPaZ5vdL5cg15GTdmz1qw5a9aCOWsZzV5BsxdNWf+VB3ytqsj8/2SU5uFdDGbEAAAAAElFTkSuQmCC;" vertex="1" parent="1">
          <mxGeometry x="394.76" y="370" width="27.62" height="20" as="geometry" />
        </mxCell>
        <mxCell id="mWnzP0U88Y1ZApxrXtzR-17" value="" style="shape=image;verticalLabelPosition=bottom;labelBackgroundColor=default;verticalAlign=top;aspect=fixed;imageAspect=0;image=data:image/png,iVBORw0KGgoAAAANSUhEUgAAADoAAAAqCAIAAABtD9/kAAAaiElEQVRYCYXZZ1daXaM14B1BOog1iaYnJprceRJjrCgISFdRUGl2UbHALmyaxjRTLEivYo/YW+xiT7nf87Pe4Tk/4Bnj+rTGGnPNr3MsQJ1JN+amfCygDxWQv+bjvuQDX/OAr2+xX94Sht5SPuZRBwoTrKVJVsG9D8o3nzu4H3UVQ+2i98yHHwrS3ucmDOVRvuUTv73FfM+9MXwN8z0X9/0N8dsb8pe3+I+FwKcCYCj/xtfrC9jhXMxIPvZbPuZTHmYwn/iekfyJff+9+NWnVun3VumomvdNlPO56O7nV7Th1+SxHNLYW9JwAWWokDpYSOnNTyh/ggc6X9O/cm/5xGnhisRJCXlWCMwLgHkBdlaAnxEQJ4XkoITmrU72qh+GdPkTqCholk1AVV7efX9pkp9BmWSRFnjkJT5+iYdZ4t1Y4t1Y5GGiPNwCD/+Dj50TAvNCYIF/fbhcjlkuj1sTxS+L4+eE2EkhIVKROC27G254HTLWRyD5ZAcvWPPSW3YrUECcYRAWmPilcuKCiDwtIQfFxE+CxNq8ZMBYmuCX31pqTFtvStxqJO2pMfsqzL4St6fC76iIW2ryahM92pY22/VoGnw7gZZ7YYmvqzzATw8zqeFS/A8efruafFhHOlbgjxXYYwXmSIk9UMbvK3H7Kuy+GjhU3jhSYGP18Sd18Sf12HMN4aQBv6vGrauJq02J6+0Z0Z6coKV2ApGGtUyf9ImHSQvlAWtc3L6EcCynHKqpW43kJQ3BpUhp5dwBPkmSF7R3Dw3pJ4aksz7y7x7i327Sn27y727KVQ/tvJd+bEjdgTPWjM8WLQXTVr4XrnB3cv2i9CCHEubio1XE/YaEyw76727a7x7Srx7CVS/hspd40Xftqhf3u4fwp5v8r47yv0j/00f500c66SHsdpO39Uk7cMaK+Y2vXx40Vga0DF/1Qz+bMlUM7FcQLuvJ/7bS//Ykn+npuz2kiPZWl+gBMFSduNyTfoyknCLkMxD7xxD/V4/7q8f/1RN+G4gXICmG0PfQmxumJ8u2gtl+UQCVerv5DmGak4N3c+Omq+O3W6lnevoFRDmH8Wcw9hTBnhixsf91DmMvIdwVSPhlIP02EH8b8L8R/AUSvw/GbRiwKxBpzZQ8b3vhtFW7EZG7vcBdfc/PJc8wgb1K7IUS96+W/K+Bdg6Tdw24SFdqt+QB8LEmca779haUuAuTjhD8JUz+DZJ/g5RfIOUKop7DtCOYvmu8uWl5tmwrnLEKAsaqQJ9ohJ/i4JE8Qvy0nLjZRj8BU87RpFOUcmwkHCDx+0bcvplwaCEdI4RjkBDTE0/6SOd68hVIPocIMQS3b8Rvo+R1M33FkjrX/0/ws9JvrvB0FLjlDzw8cqgE2KzExJT4Xx2U3yD9FKFtG/ChjhQtPwMYkN+a7Hu4ZszYNKXumlP24Fv7UPrBtYx9KGMXztiE764gj6PmnBkLK2CqdCC1zr7qEWnmeOUdV/XtsPL2ovbeT+jRvvnRnuXetun2uvHmKnpr1Zy+Zs7YMN7ahG5v6W/v6DMOwLsx5O4BcnvXmLaFpq2Z05cs939Yn0T6C10fG8dNstGuslHli/HKdC+fEpUnbjWkHOoyDuF7P413lqCb3q77naL7AFr3OAi9XrS+XLFlrfZnL5hzf5gKF0xFUbQ4ihYvmIpmTYxJc1nQKvTYaketzV9Mnd9grb1V5Gxmu1pKA1rGdF9J1Fi6YmMtD5T+sDJmzMWTZsakpXTKVjptLpxFi+bg4ijMWEVLt8zMDXPRqjl/yZL/w1Y008+c7Of63sm/fugdsmo/G+q/dghGmhlOdU64NWdOl7sEFy5ZSuatjIip0NFX0FORCejr37gR7nQ/e8bGmLYWT/aLIzbplLV6xiKbNctnzbJpq3zSVhfsV7psTaO2rm82w7DF4ENag5A6CNWHIfkUKpux1Mz118z0V09YqwMWmd9S57ep/QOqwIAsaK0JmWom0Zo5k2zRIouaK3+YxfMW8Yy1KmKThW0Kz0Dr9/fwt/7eb6b2UVjlNNT49ZKwQTSFiOYsVfMDsukBWdhW4wBF3ZIsoEtRNmKUe201bpPQifA8aLXXWOtH6kOQcgJURQzKCKwMIwofrBgHlcNQ4zdYO4x0euAWH9Tgh1UBuC4AywNIjQ+qdoPVDrDODqnHja1Os87Vr3MPtrhtDS6jygMq/Pq6sEE+oa8K6yvC+oqAQeoFa92gchxqGka7viPtw2DDmKHeBcn8sNRnkATAihAsDRvlQaTOC9WNdFW0l2cCWqVkCGkcNam/GKqHdDx7c4G7Md+rKQqoGGFlyYSCMakujqgLfcpcR/2bUUXeiJox2sgcaygcb8p3NuU5m3JdTTmOhld2zatRzZuRhqKRFs54Z6W7T+GDVT5TlQcSOXXl4y1Mp6bIo8rzq9/4Na/9mtdeTa5bU+DUlDgamPYGpl1dbFflj6ty3A2v/E0vPZrnHvVzr/qlV/Xao8x11+cNyfI0jIdAs0r60dg6gqiGOoSfVQXfhQ+cgrsewT0//16w/E6Ic2ui/FaElxbgJrs5SU5OqpN328m/a+fcspfftPNvjgtSxvmJ4zyak0d38VIdwvv26pd2TZmzq8ZjUHgNFW5t2bgi1y556uDfdfPSvMIUrzjJI0nyiFN9onS/4J6Pf9/Bu+Mov+3gpjq5SR4e3ceneflUL4/q5SV4eInu8hQXN/UjN0PxNg3QaKQf0BYHJB/RFH4TPBgtpPuKEyKshNky6iwTN1MEzBUDCyXAj1JgvhQzV4KbLSHMlZBn8shTBeRwESFUjA0XA1PFwI8iIFqEmSmhBvkP3QqGs7fOY2r19MicSuZYeaY9j+59iw0XABMsIMQFguXABAeYYWIWi/HRItIEgxxhEKcY+Jli7Gzxjdni6+d+MIE5FjBTBkyVxU2yMcNsiuI1GWhSS4aMGjdYNa5+M8a/7WGQp1jkRQFtvZK2WUXeqIzfqMJsSjEb1dj1aty6lLQmpaxX0bYrkzarktZqElZl5DUZYbMG+1Ma/7OSsCpNmql/HNQWe5Bqr63B1V3tUJaO8Z46ihODJYRZbtyiFButjVuou7Ekj1urjt+pIOxUULZqErdk9G0ZbVtG/ikj/pThN2uwG9WY9Rrsak38sgy/LCP4qpNbipKBFpXwG6LwgWKX+j8OfvIEC7fII/ysoR1rEs9a6Wft1FMtMaYlHGuJx1rykZZ2pKUftyddtKWet6ecdCQfd9JjndSzDtKFlnzennDQfmu1+9kUXOQfEPsG61zdleNKxpjgiYuVNMUjr1YTdlsoe13EHR1+vwt/rCVctJKuWqlXHSmXHcmXnUkXXQkXXdRzHeVYSzjU4g+1hAMtaV9L2ddSZ5szdOw7QLuSPwzXBQxCt/qFg58wXQasC4HDesJFO/WPnvYHJv9CCBdI/AWCu0AIFzDpAqZeQbTffeRfevKlgXQOEs5B3JUB8wfC/4EoJ3DqlunxnO1N4APL/17s7RE5lfkjgnsuNnVGQtxSEE56qWcI6QTFnRmxVwj2XxD7Pwbc/9OT/zWQ/oLE3xDuCom/NGJPYcwJjI3BuBOIcAKSTkHyki6jl3cfaFOKvsNKLygZ17weFSZPsIElMbCjJJx00i6hhEsT5dxMPDXjT02EMxPxHKWcG2kXCO3cQDgD8acQ/joRjj+FMOcI/txIPTSnrdsezw7m+D4wvIPl/j6+Q/3mmzB9jEOKVBDXNaRjA/3URD22EE7MuHNT/BUa/xvB/wYJvyD8JYw7M8afoNhjE+YAjdtHMftG3AFCOIRJRxAl2n2nh3sXaFFWfkGaXGDNcEPBkDjDzcVOS7DLKsrPrqQDKOXARN8zUXdN5D2Usm+kHSKJR3DyEZx0CFEOYPI+TN5Hrh3ApH2YvGukb5nTF21PJwZz3e8ZzgFuAOTbG3I+iW4PsYneCuKChrqjT903Ju2aaLsmyh5KOUApRwjlBKLGYMoRQt5HSTsm4raFuI7i1oz4dYS0AVM2oYRtMHG6815XWTqgbVR+RjodSINdJ3a0MDzKrJDmyWRb5lzPs0Uke8WatWp7tmp9ump5topmrcLPV8Hny4asTWv2pjVry5q9ZcnaMGWuGx+to09WzVlR66up/iLfu/Lx95XjgzKvSeroZg83vB5TPg00PZ3verYKv1hDs9cs2avW7GVL1iL6bBHJXNA/XIQeLSKPF02PfqD3Z413o9ZHi7bMJevTZUv2ivmfVdPLKf0bg+AR0FQr+6jXOuBmV5/M0y10dbC9urKgviyClM2Yy+b7WfM25pyNOW/jzFt58xbhrEk0g/IX3nEX33GWBrhLNs6ShbVoYiyYiufMJVMWdtAqdttq7f0N9v4mp7luHJSMdrHt7QxvZ3GklzEPM3+grHkTa9bCnrJwJi2cCRMnhLInzOwpG2faxpqylkTMRVMWxrSlZMZSMmtmzZrYsyZOoI/ZU34faJVKh3ravHBLCFKEYZnXqPKgap9ZFbTUhy21Eas8iFb7EGnAogzYmv39Wo+tw2VpDQ4oQ9basKk2YpRHkJpJWDpplEZQacgk95nVbnO7w9w9btE5zA1Ok9JlrPfCcj9UEwKrJxH5lLF2Aq0LmZV+i9pra3T1t4zZmsf7m90DTb5+td9S70drQiZZ+P+g8jBaGzLVOXtEHax0oFvIHWmqCbSJJ9pYE+0lPp3Q0y32dQn8neV+LdvfznK1MMfb2M7eKpdRPW5pG7Zov5taHIYql07kbhd4W8oDLdyJVs5Ee1lYywxoy3xavldb4W2XubUyR6fI1S3y9YoDPaJglyCo5U1o+eF2QaBd4NGKXN0VLoNsHFENW9pHza0OtNFtqPd0VXrb+ME2XritPNzGDbaX+7Xl3g7ecCOjqTAZ6Cr4Z0iQ6xBmufjpTkHqaOWT4cqno5LHo8IHY/x7o+V3h4WPhqv/GW0sGeut/G5UfUAbPsKKr42Mkfq8kaocu/ilW/IyWPXSK3niFN4bF90bFz5yCJ45+S/tgpdfxM++VWaNSLPHal7Yq56PS7KckmyHKHuEn/VVmD1U9Z+viryhFs4w2jwKaezd8vEmvl1e7BC/cvKz3fxnbn6mQ5g5Ks78LskcED5S5FCA7n8yvjLue0qT/QxcsBTwcUg+NjnIIoZL8eESXIhBcJWQxnkpzvpsV1fpCCz+hFZ9BgXDssxx4R0766azKCnASJ4uS44wKaHS+GApNlyCjxRTJgvp4eIkR0mCvTTBzkxwsOgednKQnRIuSw2WJrmLE+wldHt5mqPq7rjmlddU5zVIvW1cj+yNi/PAmZcUKkyaLKJHimjBEqqXSXGWUd6z6PJ/8AD8NtUrSJ8X0RZFcStiYFGMXRRhV0Rxa0JgTQisCONmBPEhSUJI+STUyfAYKobBmuHuijHJUyf7tqs4MVhMmWVRlvikJRE2KgYWJMCiCFgRxG3w4jfK8VEecY5PmBbgpkS42QrCQiVxuYK8LCZHBeRZEW1amjKlyAi0/sdrrvcbqvwtTG/lMy8zJfAWt1BKXGUT13jEFRExWkGcryTaJUnKt3TgPS9lQZ2+10g91MQda4BDJeZIiTlWAjElcKwEDlTATw1xtTFtoTV7TlcW6at1d2scrXVO8WsP536QlbbAS9qRJR9paPtNuJ/NwHYLsNMMHDYAZyrgUoE5ryPElIR9TfxWE2azOW6r+cZ+E/a4ER9roO43Jm0131xpzZjseuWyaryQzNfC9FU8DpUlzJZg1vnY3UrskQJ/3EQ+aqXsNZOnGtI7yh8B36vSNrTpZ7qEqy7sr07gqpdy2Ue56iNc9eEu9bhzA+FQn7DZd3PRkP0DZUbMVS6odlxX6ah+5hHeCgkSl6oTDpoSz3W0Mz0xBmKP4LgTEHOux/7uwf3VEX93ki+6ibFe/IEBewBiDg1xp/r4817CRQ/1pDdpX39rG7zzw5jrHWzxmxQ+LcctzfRy6RFm3LoUv6ckHLeSTnTUWB/1sJcyq71zXXdUnrrVk34OJvwyxP8B434Z6Vdo4i+U9gulXJrI52bqoSlpC01fNj2ftzEiNrHTWDXWzRuruucU0P0CUlRGOmilnfdSLmDSGYo/McefmXAXRuJvmPwHov6BaJcI5QwlxSz4mAV3ao6/QAlXCPkKTjhDUo/Q9F3TvSVrvn+wLYCqvO1cZ9VTF4ceYMatySl7TZTjLtqpgR6DE44g6pzu7nXdLzL6cu/NQ5h6AmPOkLgYRI+BKTEwMQbRjmHqIULbQVLWkTtRY/a8hRGxiNxwhUPHHZVkOHg0H48wLyXsNlJPu6hnfaSYAX8M4o9BYsxAOe1LOOtLOIcTT5GEE5RybCIdm4gnKOEcIV9CtAso6QS6dQjf2zU+WjYVBi2tIVAVaOG7K5+7OanBMsKqnL7TRD/UJcbApBiceAjRZnX3rutaZWmRvgcr6O1NU+K2KWkTfLRpeLppeLwJPtyE7q9DD5agJ/Pg82m4YMoiDNsUblTl6KsZr89xVj32VN6Zrr+z0f7woPfBvuHuDpi+Dd7ZAu9vgo83DU83wKcbcOY68ngdebhuvLdpvLONZOwh9w/gR/vwsx34n03kzZoxb87E91nb/Uijt6PCVZfvqsz0V2TMq+8vt91f73u4bXy8bXq0hd6P9GRd1wXrHzmhV1O2F3P9mdH+rKixKIqURo3FUWNhFM1fQPOnkcIQxAgaBWGbMjTY6e7XOZBWT4fY3Vji1eRNtuetGIp+okXbpvx1U+6quWDJzIiay35YuHOW8oiJOWkqmUKLZ9H8eePbKJK7guavoUWraOkSyl0wCedNkoi1zj3Y5bW2ufV1jhauQ13g1bwOt+dM9eTMG/MWbYVLAwWLtrygoeC6bqc6f9gqCn4WT3zmT37khy0Vk9bqmYHq2UHpzGDF1DvxxDtJ8F21753C/a7ZOdA1PtDnHOj1WZqCZmXYLJ80V06bhbNm7uJ70eKniskBkdcidlik9v46+3v194G6sXd1rne1wYGaCVvlpEU8bZVM2yonbdIJmzzYrwz0q93vGr8Ptoy+a3L2a/xWRchSO2GpnrBJwwOVwXcVwUFJcFASeidxwYIufibQpOF+sCjHBpXjNrkLlXp6RYFeUcggCoP8IMjx6Zk+kO2H+F5I4oFqXKDCCWpcoMbVV+PWV3r0Qp+eG9CzQn0lEZAVgThePdduEA4bZcP9DcMf2r8MtH6zNo6hShdY49NLQr2CsF4QMggCoNAHSryQ1APVOOGaYbhyDKpwgBK3Xuy9JvJCYjcsdiISF1Lhhiu8UOVIF6+l7D6gbKi0mNo+mdo+9qq+tEnttYXe2rf++lyf4rWn/oWzLtNd/8yrfOFR/sejfONR5Hvqi931DKeiwKHKHVe9dqr+cauyfMqnvvpnnrrnjvrXIw2M4S7xKKKy29q/o23DvaqR1kq7iu2uKwrU5fnrc3yKV27VK5cqx6nKdSrzHKq3dvWr6yhljlvxxqV461Dm21WFo+qiYQ1jRF06pmI6FKzP8kJV4U1A01AxgDR/0Td8apR+rWaNld7xMlP97NQANznATfByiD4O0c8hBTiUADshWJYUYqUEWWkeTqqbm+wqp7vLKZ5yUoBDCJSRAyy6l3PbJclyqYq9uooApHDr5E4Nb0ySO8567C+9M8m6OVGWGGRTfRyKl0vxcqk+Du3/BNgJATY9WJbkZ6d4OGkO7k17+a1RXrq9PMPBzXCzMz6x79XlJgHNDcJPkGZMpxiuE4yW546/IQXysBOM+Oky3CwHO8u9McMGZljALBOYKwV+lAALjBs/SjAzZfhJDi7CxUa4N6a4wCwbmGfFzTMJ0+ykiPhhWPk23MmbNFQHtUKPPH+c9cD5JiH8hrBQEB9l3JgvvQ6cLrs2w7pe51EWsMgEFpk3okzMPCt+ugwfYuP8HLyPgw+w8eEyfISFGy6j171NAto17BGwzt9Z7a1mecpeeApxIeaNGT5uUUpcqyVtKIgb9biNOsx2LWZHht2tid+vxu9VE7frEjYUtDUlZU1FWlcSt+sJO7XUnzVJ67KMBeXTaW3BJCyYtlaH9DyvKsfOve3Kx08VYdbYcbuV2F3Zje1aYKvu2s9aYE8OxGRxMRk2Jos/lOP3aonb9aQVBSGqJCyo8IvK+BUFdr0OE5AlqgvTgA4VaxSqDeiq3PISJ+eJryRuhgesyYj7jQnH7YmxDlqsk3zSSTrtJJ51ks46SOcd5HMt9awz6bQr6URHP9XRzrqol52Uq46Ec23KkfbOpi4rCubPWLjT/RUhg8CnznVzM0KFxCUm7kAUf9lAvuggxHTYmA5z2hV32RH3S4v51Yn/1Un41Um87CSdd5FOdeQjHemgm3jQTTzsJhzp8DEdbq4trYlz+7ruMCj39lSO1RV9595zl1x/pewoiWcdib96ky56qRd95IvrgU78341OOAOJZyD5Qk+90lN/6Sm/+sh/+oh/+/B/9aTfIO0UvrljfLxkzpmxlkSsfH+f0Kt462FnTBWQt8oIZ1WEP1rapYF0jMTHEMw5hPmrx/ztw55D8f/VQm9aqzgDaFeyvxpqnd3S4XrGEPehsxSYEQKbSmKsM+miL+VcTz8z0E5ByilEPoFIMZgUg8kxiHoMJcSghJNr1DOQfA4SLyDKGUI/QG+tm5/M23ImBkoCAzwvLHBocuzltwPFxBUeKVZPPdclxmDKrom4hxIOjYQziHABEk4hwgn8X8z33m6W3AWaFeUf9YqxHvk3NWdI/MLBI0eqSMualJ9dGYfg3UM44wC+tQ+n7SGpu0jqjjF1x5i2Y7z503h725j+03h7B7m1i6TtI8kHxrQ9NH3T/Chq/ScyUOQd5LgGxQ6zZLS1YLjioYebHK1K3W9KP9Df2TbeXLOkrplTNk0pe0jqPpy6i6T8V5P6R42Sh4CmXvjO0DgKNnxvl35TlDprM0OaRzParMW+f1bgl2vGF6to1gr6dNn0dMn0dNH8dNH0bNGUvWh6HjU9j5qfL5qyl0zPVtDMVfOzFcvzBWvOZD/DM8gf+1A1/KH2u03+vad8WJ3rkWfPaZ5vdL5cg15GTdmz1qw5a9aCOWsZzV5BsxdNWf+VB3ytqsj8/2SU5uFdDGbEAAAAAElFTkSuQmCC;" vertex="1" parent="1">
          <mxGeometry x="310" y="450" width="27.62" height="20" as="geometry" />
        </mxCell>
        <mxCell id="mWnzP0U88Y1ZApxrXtzR-18" value="" style="shape=image;verticalLabelPosition=bottom;labelBackgroundColor=default;verticalAlign=top;aspect=fixed;imageAspect=0;image=data:image/png,iVBORw0KGgoAAAANSUhEUgAAADoAAAAqCAIAAABtD9/kAAAaiElEQVRYCYXZZ1daXaM14B1BOog1iaYnJprceRJjrCgISFdRUGl2UbHALmyaxjRTLEivYo/YW+xiT7nf87Pe4Tk/4Bnj+rTGGnPNr3MsQJ1JN+amfCygDxWQv+bjvuQDX/OAr2+xX94Sht5SPuZRBwoTrKVJVsG9D8o3nzu4H3UVQ+2i98yHHwrS3ucmDOVRvuUTv73FfM+9MXwN8z0X9/0N8dsb8pe3+I+FwKcCYCj/xtfrC9jhXMxIPvZbPuZTHmYwn/iekfyJff+9+NWnVun3VumomvdNlPO56O7nV7Th1+SxHNLYW9JwAWWokDpYSOnNTyh/ggc6X9O/cm/5xGnhisRJCXlWCMwLgHkBdlaAnxEQJ4XkoITmrU72qh+GdPkTqCholk1AVV7efX9pkp9BmWSRFnjkJT5+iYdZ4t1Y4t1Y5GGiPNwCD/+Dj50TAvNCYIF/fbhcjlkuj1sTxS+L4+eE2EkhIVKROC27G254HTLWRyD5ZAcvWPPSW3YrUECcYRAWmPilcuKCiDwtIQfFxE+CxNq8ZMBYmuCX31pqTFtvStxqJO2pMfsqzL4St6fC76iIW2ryahM92pY22/VoGnw7gZZ7YYmvqzzATw8zqeFS/A8efruafFhHOlbgjxXYYwXmSIk9UMbvK3H7Kuy+GjhU3jhSYGP18Sd18Sf12HMN4aQBv6vGrauJq02J6+0Z0Z6coKV2ApGGtUyf9ImHSQvlAWtc3L6EcCynHKqpW43kJQ3BpUhp5dwBPkmSF7R3Dw3pJ4aksz7y7x7i327Sn27y727KVQ/tvJd+bEjdgTPWjM8WLQXTVr4XrnB3cv2i9CCHEubio1XE/YaEyw76727a7x7Srx7CVS/hspd40Xftqhf3u4fwp5v8r47yv0j/00f500c66SHsdpO39Uk7cMaK+Y2vXx40Vga0DF/1Qz+bMlUM7FcQLuvJ/7bS//Ykn+npuz2kiPZWl+gBMFSduNyTfoyknCLkMxD7xxD/V4/7q8f/1RN+G4gXICmG0PfQmxumJ8u2gtl+UQCVerv5DmGak4N3c+Omq+O3W6lnevoFRDmH8Wcw9hTBnhixsf91DmMvIdwVSPhlIP02EH8b8L8R/AUSvw/GbRiwKxBpzZQ8b3vhtFW7EZG7vcBdfc/PJc8wgb1K7IUS96+W/K+Bdg6Tdw24SFdqt+QB8LEmca779haUuAuTjhD8JUz+DZJ/g5RfIOUKop7DtCOYvmu8uWl5tmwrnLEKAsaqQJ9ohJ/i4JE8Qvy0nLjZRj8BU87RpFOUcmwkHCDx+0bcvplwaCEdI4RjkBDTE0/6SOd68hVIPocIMQS3b8Rvo+R1M33FkjrX/0/ws9JvrvB0FLjlDzw8cqgE2KzExJT4Xx2U3yD9FKFtG/ChjhQtPwMYkN+a7Hu4ZszYNKXumlP24Fv7UPrBtYx9KGMXztiE764gj6PmnBkLK2CqdCC1zr7qEWnmeOUdV/XtsPL2ovbeT+jRvvnRnuXetun2uvHmKnpr1Zy+Zs7YMN7ahG5v6W/v6DMOwLsx5O4BcnvXmLaFpq2Z05cs939Yn0T6C10fG8dNstGuslHli/HKdC+fEpUnbjWkHOoyDuF7P413lqCb3q77naL7AFr3OAi9XrS+XLFlrfZnL5hzf5gKF0xFUbQ4ihYvmIpmTYxJc1nQKvTYaketzV9Mnd9grb1V5Gxmu1pKA1rGdF9J1Fi6YmMtD5T+sDJmzMWTZsakpXTKVjptLpxFi+bg4ijMWEVLt8zMDXPRqjl/yZL/w1Y008+c7Of63sm/fugdsmo/G+q/dghGmhlOdU64NWdOl7sEFy5ZSuatjIip0NFX0FORCejr37gR7nQ/e8bGmLYWT/aLIzbplLV6xiKbNctnzbJpq3zSVhfsV7psTaO2rm82w7DF4ENag5A6CNWHIfkUKpux1Mz118z0V09YqwMWmd9S57ep/QOqwIAsaK0JmWom0Zo5k2zRIouaK3+YxfMW8Yy1KmKThW0Kz0Dr9/fwt/7eb6b2UVjlNNT49ZKwQTSFiOYsVfMDsukBWdhW4wBF3ZIsoEtRNmKUe201bpPQifA8aLXXWOtH6kOQcgJURQzKCKwMIwofrBgHlcNQ4zdYO4x0euAWH9Tgh1UBuC4AywNIjQ+qdoPVDrDODqnHja1Os87Vr3MPtrhtDS6jygMq/Pq6sEE+oa8K6yvC+oqAQeoFa92gchxqGka7viPtw2DDmKHeBcn8sNRnkATAihAsDRvlQaTOC9WNdFW0l2cCWqVkCGkcNam/GKqHdDx7c4G7Md+rKQqoGGFlyYSCMakujqgLfcpcR/2bUUXeiJox2sgcaygcb8p3NuU5m3JdTTmOhld2zatRzZuRhqKRFs54Z6W7T+GDVT5TlQcSOXXl4y1Mp6bIo8rzq9/4Na/9mtdeTa5bU+DUlDgamPYGpl1dbFflj6ty3A2v/E0vPZrnHvVzr/qlV/Xao8x11+cNyfI0jIdAs0r60dg6gqiGOoSfVQXfhQ+cgrsewT0//16w/E6Ic2ui/FaElxbgJrs5SU5OqpN328m/a+fcspfftPNvjgtSxvmJ4zyak0d38VIdwvv26pd2TZmzq8ZjUHgNFW5t2bgi1y556uDfdfPSvMIUrzjJI0nyiFN9onS/4J6Pf9/Bu+Mov+3gpjq5SR4e3ceneflUL4/q5SV4eInu8hQXN/UjN0PxNg3QaKQf0BYHJB/RFH4TPBgtpPuKEyKshNky6iwTN1MEzBUDCyXAj1JgvhQzV4KbLSHMlZBn8shTBeRwESFUjA0XA1PFwI8iIFqEmSmhBvkP3QqGs7fOY2r19MicSuZYeaY9j+59iw0XABMsIMQFguXABAeYYWIWi/HRItIEgxxhEKcY+Jli7Gzxjdni6+d+MIE5FjBTBkyVxU2yMcNsiuI1GWhSS4aMGjdYNa5+M8a/7WGQp1jkRQFtvZK2WUXeqIzfqMJsSjEb1dj1aty6lLQmpaxX0bYrkzarktZqElZl5DUZYbMG+1Ma/7OSsCpNmql/HNQWe5Bqr63B1V3tUJaO8Z46ihODJYRZbtyiFButjVuou7Ekj1urjt+pIOxUULZqErdk9G0ZbVtG/ikj/pThN2uwG9WY9Rrsak38sgy/LCP4qpNbipKBFpXwG6LwgWKX+j8OfvIEC7fII/ysoR1rEs9a6Wft1FMtMaYlHGuJx1rykZZ2pKUftyddtKWet6ecdCQfd9JjndSzDtKFlnzennDQfmu1+9kUXOQfEPsG61zdleNKxpjgiYuVNMUjr1YTdlsoe13EHR1+vwt/rCVctJKuWqlXHSmXHcmXnUkXXQkXXdRzHeVYSzjU4g+1hAMtaV9L2ddSZ5szdOw7QLuSPwzXBQxCt/qFg58wXQasC4HDesJFO/WPnvYHJv9CCBdI/AWCu0AIFzDpAqZeQbTffeRfevKlgXQOEs5B3JUB8wfC/4EoJ3DqlunxnO1N4APL/17s7RE5lfkjgnsuNnVGQtxSEE56qWcI6QTFnRmxVwj2XxD7Pwbc/9OT/zWQ/oLE3xDuCom/NGJPYcwJjI3BuBOIcAKSTkHyki6jl3cfaFOKvsNKLygZ17weFSZPsIElMbCjJJx00i6hhEsT5dxMPDXjT02EMxPxHKWcG2kXCO3cQDgD8acQ/joRjj+FMOcI/txIPTSnrdsezw7m+D4wvIPl/j6+Q/3mmzB9jEOKVBDXNaRjA/3URD22EE7MuHNT/BUa/xvB/wYJvyD8JYw7M8afoNhjE+YAjdtHMftG3AFCOIRJRxAl2n2nh3sXaFFWfkGaXGDNcEPBkDjDzcVOS7DLKsrPrqQDKOXARN8zUXdN5D2Usm+kHSKJR3DyEZx0CFEOYPI+TN5Hrh3ApH2YvGukb5nTF21PJwZz3e8ZzgFuAOTbG3I+iW4PsYneCuKChrqjT903Ju2aaLsmyh5KOUApRwjlBKLGYMoRQt5HSTsm4raFuI7i1oz4dYS0AVM2oYRtMHG6815XWTqgbVR+RjodSINdJ3a0MDzKrJDmyWRb5lzPs0Uke8WatWp7tmp9ump5topmrcLPV8Hny4asTWv2pjVry5q9ZcnaMGWuGx+to09WzVlR66up/iLfu/Lx95XjgzKvSeroZg83vB5TPg00PZ3verYKv1hDs9cs2avW7GVL1iL6bBHJXNA/XIQeLSKPF02PfqD3Z413o9ZHi7bMJevTZUv2ivmfVdPLKf0bg+AR0FQr+6jXOuBmV5/M0y10dbC9urKgviyClM2Yy+b7WfM25pyNOW/jzFt58xbhrEk0g/IX3nEX33GWBrhLNs6ShbVoYiyYiufMJVMWdtAqdttq7f0N9v4mp7luHJSMdrHt7QxvZ3GklzEPM3+grHkTa9bCnrJwJi2cCRMnhLInzOwpG2faxpqylkTMRVMWxrSlZMZSMmtmzZrYsyZOoI/ZU34faJVKh3ravHBLCFKEYZnXqPKgap9ZFbTUhy21Eas8iFb7EGnAogzYmv39Wo+tw2VpDQ4oQ9basKk2YpRHkJpJWDpplEZQacgk95nVbnO7w9w9btE5zA1Ok9JlrPfCcj9UEwKrJxH5lLF2Aq0LmZV+i9pra3T1t4zZmsf7m90DTb5+td9S70drQiZZ+P+g8jBaGzLVOXtEHax0oFvIHWmqCbSJJ9pYE+0lPp3Q0y32dQn8neV+LdvfznK1MMfb2M7eKpdRPW5pG7Zov5taHIYql07kbhd4W8oDLdyJVs5Ee1lYywxoy3xavldb4W2XubUyR6fI1S3y9YoDPaJglyCo5U1o+eF2QaBd4NGKXN0VLoNsHFENW9pHza0OtNFtqPd0VXrb+ME2XritPNzGDbaX+7Xl3g7ecCOjqTAZ6Cr4Z0iQ6xBmufjpTkHqaOWT4cqno5LHo8IHY/x7o+V3h4WPhqv/GW0sGeut/G5UfUAbPsKKr42Mkfq8kaocu/ilW/IyWPXSK3niFN4bF90bFz5yCJ45+S/tgpdfxM++VWaNSLPHal7Yq56PS7KckmyHKHuEn/VVmD1U9Z+viryhFs4w2jwKaezd8vEmvl1e7BC/cvKz3fxnbn6mQ5g5Ks78LskcED5S5FCA7n8yvjLue0qT/QxcsBTwcUg+NjnIIoZL8eESXIhBcJWQxnkpzvpsV1fpCCz+hFZ9BgXDssxx4R0766azKCnASJ4uS44wKaHS+GApNlyCjxRTJgvp4eIkR0mCvTTBzkxwsOgednKQnRIuSw2WJrmLE+wldHt5mqPq7rjmlddU5zVIvW1cj+yNi/PAmZcUKkyaLKJHimjBEqqXSXGWUd6z6PJ/8AD8NtUrSJ8X0RZFcStiYFGMXRRhV0Rxa0JgTQisCONmBPEhSUJI+STUyfAYKobBmuHuijHJUyf7tqs4MVhMmWVRlvikJRE2KgYWJMCiCFgRxG3w4jfK8VEecY5PmBbgpkS42QrCQiVxuYK8LCZHBeRZEW1amjKlyAi0/sdrrvcbqvwtTG/lMy8zJfAWt1BKXGUT13jEFRExWkGcryTaJUnKt3TgPS9lQZ2+10g91MQda4BDJeZIiTlWAjElcKwEDlTATw1xtTFtoTV7TlcW6at1d2scrXVO8WsP536QlbbAS9qRJR9paPtNuJ/NwHYLsNMMHDYAZyrgUoE5ryPElIR9TfxWE2azOW6r+cZ+E/a4ER9roO43Jm0131xpzZjseuWyaryQzNfC9FU8DpUlzJZg1vnY3UrskQJ/3EQ+aqXsNZOnGtI7yh8B36vSNrTpZ7qEqy7sr07gqpdy2Ue56iNc9eEu9bhzA+FQn7DZd3PRkP0DZUbMVS6odlxX6ah+5hHeCgkSl6oTDpoSz3W0Mz0xBmKP4LgTEHOux/7uwf3VEX93ki+6ibFe/IEBewBiDg1xp/r4817CRQ/1pDdpX39rG7zzw5jrHWzxmxQ+LcctzfRy6RFm3LoUv6ckHLeSTnTUWB/1sJcyq71zXXdUnrrVk34OJvwyxP8B434Z6Vdo4i+U9gulXJrI52bqoSlpC01fNj2ftzEiNrHTWDXWzRuruucU0P0CUlRGOmilnfdSLmDSGYo/McefmXAXRuJvmPwHov6BaJcI5QwlxSz4mAV3ao6/QAlXCPkKTjhDUo/Q9F3TvSVrvn+wLYCqvO1cZ9VTF4ceYMatySl7TZTjLtqpgR6DE44g6pzu7nXdLzL6cu/NQ5h6AmPOkLgYRI+BKTEwMQbRjmHqIULbQVLWkTtRY/a8hRGxiNxwhUPHHZVkOHg0H48wLyXsNlJPu6hnfaSYAX8M4o9BYsxAOe1LOOtLOIcTT5GEE5RybCIdm4gnKOEcIV9CtAso6QS6dQjf2zU+WjYVBi2tIVAVaOG7K5+7OanBMsKqnL7TRD/UJcbApBiceAjRZnX3rutaZWmRvgcr6O1NU+K2KWkTfLRpeLppeLwJPtyE7q9DD5agJ/Pg82m4YMoiDNsUblTl6KsZr89xVj32VN6Zrr+z0f7woPfBvuHuDpi+Dd7ZAu9vgo83DU83wKcbcOY68ngdebhuvLdpvLONZOwh9w/gR/vwsx34n03kzZoxb87E91nb/Uijt6PCVZfvqsz0V2TMq+8vt91f73u4bXy8bXq0hd6P9GRd1wXrHzmhV1O2F3P9mdH+rKixKIqURo3FUWNhFM1fQPOnkcIQxAgaBWGbMjTY6e7XOZBWT4fY3Vji1eRNtuetGIp+okXbpvx1U+6quWDJzIiay35YuHOW8oiJOWkqmUKLZ9H8eePbKJK7guavoUWraOkSyl0wCedNkoi1zj3Y5bW2ufV1jhauQ13g1bwOt+dM9eTMG/MWbYVLAwWLtrygoeC6bqc6f9gqCn4WT3zmT37khy0Vk9bqmYHq2UHpzGDF1DvxxDtJ8F21753C/a7ZOdA1PtDnHOj1WZqCZmXYLJ80V06bhbNm7uJ70eKniskBkdcidlik9v46+3v194G6sXd1rne1wYGaCVvlpEU8bZVM2yonbdIJmzzYrwz0q93vGr8Ptoy+a3L2a/xWRchSO2GpnrBJwwOVwXcVwUFJcFASeidxwYIufibQpOF+sCjHBpXjNrkLlXp6RYFeUcggCoP8IMjx6Zk+kO2H+F5I4oFqXKDCCWpcoMbVV+PWV3r0Qp+eG9CzQn0lEZAVgThePdduEA4bZcP9DcMf2r8MtH6zNo6hShdY49NLQr2CsF4QMggCoNAHSryQ1APVOOGaYbhyDKpwgBK3Xuy9JvJCYjcsdiISF1Lhhiu8UOVIF6+l7D6gbKi0mNo+mdo+9qq+tEnttYXe2rf++lyf4rWn/oWzLtNd/8yrfOFR/sejfONR5Hvqi931DKeiwKHKHVe9dqr+cauyfMqnvvpnnrrnjvrXIw2M4S7xKKKy29q/o23DvaqR1kq7iu2uKwrU5fnrc3yKV27VK5cqx6nKdSrzHKq3dvWr6yhljlvxxqV461Dm21WFo+qiYQ1jRF06pmI6FKzP8kJV4U1A01AxgDR/0Td8apR+rWaNld7xMlP97NQANznATfByiD4O0c8hBTiUADshWJYUYqUEWWkeTqqbm+wqp7vLKZ5yUoBDCJSRAyy6l3PbJclyqYq9uooApHDr5E4Nb0ySO8567C+9M8m6OVGWGGRTfRyKl0vxcqk+Du3/BNgJATY9WJbkZ6d4OGkO7k17+a1RXrq9PMPBzXCzMz6x79XlJgHNDcJPkGZMpxiuE4yW546/IQXysBOM+Oky3CwHO8u9McMGZljALBOYKwV+lAALjBs/SjAzZfhJDi7CxUa4N6a4wCwbmGfFzTMJ0+ykiPhhWPk23MmbNFQHtUKPPH+c9cD5JiH8hrBQEB9l3JgvvQ6cLrs2w7pe51EWsMgEFpk3okzMPCt+ugwfYuP8HLyPgw+w8eEyfISFGy6j171NAto17BGwzt9Z7a1mecpeeApxIeaNGT5uUUpcqyVtKIgb9biNOsx2LWZHht2tid+vxu9VE7frEjYUtDUlZU1FWlcSt+sJO7XUnzVJ67KMBeXTaW3BJCyYtlaH9DyvKsfOve3Kx08VYdbYcbuV2F3Zje1aYKvu2s9aYE8OxGRxMRk2Jos/lOP3aonb9aQVBSGqJCyo8IvK+BUFdr0OE5AlqgvTgA4VaxSqDeiq3PISJ+eJryRuhgesyYj7jQnH7YmxDlqsk3zSSTrtJJ51ks46SOcd5HMt9awz6bQr6URHP9XRzrqol52Uq46Ec23KkfbOpi4rCubPWLjT/RUhg8CnznVzM0KFxCUm7kAUf9lAvuggxHTYmA5z2hV32RH3S4v51Yn/1Un41Um87CSdd5FOdeQjHemgm3jQTTzsJhzp8DEdbq4trYlz+7ruMCj39lSO1RV9595zl1x/pewoiWcdib96ky56qRd95IvrgU78341OOAOJZyD5Qk+90lN/6Sm/+sh/+oh/+/B/9aTfIO0UvrljfLxkzpmxlkSsfH+f0Kt462FnTBWQt8oIZ1WEP1rapYF0jMTHEMw5hPmrx/ztw55D8f/VQm9aqzgDaFeyvxpqnd3S4XrGEPehsxSYEQKbSmKsM+miL+VcTz8z0E5ByilEPoFIMZgUg8kxiHoMJcSghJNr1DOQfA4SLyDKGUI/QG+tm5/M23ImBkoCAzwvLHBocuzltwPFxBUeKVZPPdclxmDKrom4hxIOjYQziHABEk4hwgn8X8z33m6W3AWaFeUf9YqxHvk3NWdI/MLBI0eqSMualJ9dGYfg3UM44wC+tQ+n7SGpu0jqjjF1x5i2Y7z503h725j+03h7B7m1i6TtI8kHxrQ9NH3T/Chq/ScyUOQd5LgGxQ6zZLS1YLjioYebHK1K3W9KP9Df2TbeXLOkrplTNk0pe0jqPpy6i6T8V5P6R42Sh4CmXvjO0DgKNnxvl35TlDprM0OaRzParMW+f1bgl2vGF6to1gr6dNn0dMn0dNH8dNH0bNGUvWh6HjU9j5qfL5qyl0zPVtDMVfOzFcvzBWvOZD/DM8gf+1A1/KH2u03+vad8WJ3rkWfPaZ5vdL5cg15GTdmz1qw5a9aCOWsZzV5BsxdNWf+VB3ytqsj8/2SU5uFdDGbEAAAAAElFTkSuQmCC;" vertex="1" parent="1">
          <mxGeometry x="394.76" y="565" width="27.62" height="20" as="geometry" />
        </mxCell>
        <mxCell id="mWnzP0U88Y1ZApxrXtzR-19" value="" style="shape=image;verticalLabelPosition=bottom;labelBackgroundColor=default;verticalAlign=top;aspect=fixed;imageAspect=0;image=data:image/png,iVBORw0KGgoAAAANSUhEUgAAADoAAAAqCAIAAABtD9/kAAAaiElEQVRYCYXZZ1daXaM14B1BOog1iaYnJprceRJjrCgISFdRUGl2UbHALmyaxjRTLEivYo/YW+xiT7nf87Pe4Tk/4Bnj+rTGGnPNr3MsQJ1JN+amfCygDxWQv+bjvuQDX/OAr2+xX94Sht5SPuZRBwoTrKVJVsG9D8o3nzu4H3UVQ+2i98yHHwrS3ucmDOVRvuUTv73FfM+9MXwN8z0X9/0N8dsb8pe3+I+FwKcCYCj/xtfrC9jhXMxIPvZbPuZTHmYwn/iekfyJff+9+NWnVun3VumomvdNlPO56O7nV7Th1+SxHNLYW9JwAWWokDpYSOnNTyh/ggc6X9O/cm/5xGnhisRJCXlWCMwLgHkBdlaAnxEQJ4XkoITmrU72qh+GdPkTqCholk1AVV7efX9pkp9BmWSRFnjkJT5+iYdZ4t1Y4t1Y5GGiPNwCD/+Dj50TAvNCYIF/fbhcjlkuj1sTxS+L4+eE2EkhIVKROC27G254HTLWRyD5ZAcvWPPSW3YrUECcYRAWmPilcuKCiDwtIQfFxE+CxNq8ZMBYmuCX31pqTFtvStxqJO2pMfsqzL4St6fC76iIW2ryahM92pY22/VoGnw7gZZ7YYmvqzzATw8zqeFS/A8efruafFhHOlbgjxXYYwXmSIk9UMbvK3H7Kuy+GjhU3jhSYGP18Sd18Sf12HMN4aQBv6vGrauJq02J6+0Z0Z6coKV2ApGGtUyf9ImHSQvlAWtc3L6EcCynHKqpW43kJQ3BpUhp5dwBPkmSF7R3Dw3pJ4aksz7y7x7i327Sn27y727KVQ/tvJd+bEjdgTPWjM8WLQXTVr4XrnB3cv2i9CCHEubio1XE/YaEyw76727a7x7Srx7CVS/hspd40Xftqhf3u4fwp5v8r47yv0j/00f500c66SHsdpO39Uk7cMaK+Y2vXx40Vga0DF/1Qz+bMlUM7FcQLuvJ/7bS//Ykn+npuz2kiPZWl+gBMFSduNyTfoyknCLkMxD7xxD/V4/7q8f/1RN+G4gXICmG0PfQmxumJ8u2gtl+UQCVerv5DmGak4N3c+Omq+O3W6lnevoFRDmH8Wcw9hTBnhixsf91DmMvIdwVSPhlIP02EH8b8L8R/AUSvw/GbRiwKxBpzZQ8b3vhtFW7EZG7vcBdfc/PJc8wgb1K7IUS96+W/K+Bdg6Tdw24SFdqt+QB8LEmca779haUuAuTjhD8JUz+DZJ/g5RfIOUKop7DtCOYvmu8uWl5tmwrnLEKAsaqQJ9ohJ/i4JE8Qvy0nLjZRj8BU87RpFOUcmwkHCDx+0bcvplwaCEdI4RjkBDTE0/6SOd68hVIPocIMQS3b8Rvo+R1M33FkjrX/0/ws9JvrvB0FLjlDzw8cqgE2KzExJT4Xx2U3yD9FKFtG/ChjhQtPwMYkN+a7Hu4ZszYNKXumlP24Fv7UPrBtYx9KGMXztiE764gj6PmnBkLK2CqdCC1zr7qEWnmeOUdV/XtsPL2ovbeT+jRvvnRnuXetun2uvHmKnpr1Zy+Zs7YMN7ahG5v6W/v6DMOwLsx5O4BcnvXmLaFpq2Z05cs939Yn0T6C10fG8dNstGuslHli/HKdC+fEpUnbjWkHOoyDuF7P413lqCb3q77naL7AFr3OAi9XrS+XLFlrfZnL5hzf5gKF0xFUbQ4ihYvmIpmTYxJc1nQKvTYaketzV9Mnd9grb1V5Gxmu1pKA1rGdF9J1Fi6YmMtD5T+sDJmzMWTZsakpXTKVjptLpxFi+bg4ijMWEVLt8zMDXPRqjl/yZL/w1Y008+c7Of63sm/fugdsmo/G+q/dghGmhlOdU64NWdOl7sEFy5ZSuatjIip0NFX0FORCejr37gR7nQ/e8bGmLYWT/aLIzbplLV6xiKbNctnzbJpq3zSVhfsV7psTaO2rm82w7DF4ENag5A6CNWHIfkUKpux1Mz118z0V09YqwMWmd9S57ep/QOqwIAsaK0JmWom0Zo5k2zRIouaK3+YxfMW8Yy1KmKThW0Kz0Dr9/fwt/7eb6b2UVjlNNT49ZKwQTSFiOYsVfMDsukBWdhW4wBF3ZIsoEtRNmKUe201bpPQifA8aLXXWOtH6kOQcgJURQzKCKwMIwofrBgHlcNQ4zdYO4x0euAWH9Tgh1UBuC4AywNIjQ+qdoPVDrDODqnHja1Os87Vr3MPtrhtDS6jygMq/Pq6sEE+oa8K6yvC+oqAQeoFa92gchxqGka7viPtw2DDmKHeBcn8sNRnkATAihAsDRvlQaTOC9WNdFW0l2cCWqVkCGkcNam/GKqHdDx7c4G7Md+rKQqoGGFlyYSCMakujqgLfcpcR/2bUUXeiJox2sgcaygcb8p3NuU5m3JdTTmOhld2zatRzZuRhqKRFs54Z6W7T+GDVT5TlQcSOXXl4y1Mp6bIo8rzq9/4Na/9mtdeTa5bU+DUlDgamPYGpl1dbFflj6ty3A2v/E0vPZrnHvVzr/qlV/Xao8x11+cNyfI0jIdAs0r60dg6gqiGOoSfVQXfhQ+cgrsewT0//16w/E6Ic2ui/FaElxbgJrs5SU5OqpN328m/a+fcspfftPNvjgtSxvmJ4zyak0d38VIdwvv26pd2TZmzq8ZjUHgNFW5t2bgi1y556uDfdfPSvMIUrzjJI0nyiFN9onS/4J6Pf9/Bu+Mov+3gpjq5SR4e3ceneflUL4/q5SV4eInu8hQXN/UjN0PxNg3QaKQf0BYHJB/RFH4TPBgtpPuKEyKshNky6iwTN1MEzBUDCyXAj1JgvhQzV4KbLSHMlZBn8shTBeRwESFUjA0XA1PFwI8iIFqEmSmhBvkP3QqGs7fOY2r19MicSuZYeaY9j+59iw0XABMsIMQFguXABAeYYWIWi/HRItIEgxxhEKcY+Jli7Gzxjdni6+d+MIE5FjBTBkyVxU2yMcNsiuI1GWhSS4aMGjdYNa5+M8a/7WGQp1jkRQFtvZK2WUXeqIzfqMJsSjEb1dj1aty6lLQmpaxX0bYrkzarktZqElZl5DUZYbMG+1Ma/7OSsCpNmql/HNQWe5Bqr63B1V3tUJaO8Z46ihODJYRZbtyiFButjVuou7Ekj1urjt+pIOxUULZqErdk9G0ZbVtG/ikj/pThN2uwG9WY9Rrsak38sgy/LCP4qpNbipKBFpXwG6LwgWKX+j8OfvIEC7fII/ysoR1rEs9a6Wft1FMtMaYlHGuJx1rykZZ2pKUftyddtKWet6ecdCQfd9JjndSzDtKFlnzennDQfmu1+9kUXOQfEPsG61zdleNKxpjgiYuVNMUjr1YTdlsoe13EHR1+vwt/rCVctJKuWqlXHSmXHcmXnUkXXQkXXdRzHeVYSzjU4g+1hAMtaV9L2ddSZ5szdOw7QLuSPwzXBQxCt/qFg58wXQasC4HDesJFO/WPnvYHJv9CCBdI/AWCu0AIFzDpAqZeQbTffeRfevKlgXQOEs5B3JUB8wfC/4EoJ3DqlunxnO1N4APL/17s7RE5lfkjgnsuNnVGQtxSEE56qWcI6QTFnRmxVwj2XxD7Pwbc/9OT/zWQ/oLE3xDuCom/NGJPYcwJjI3BuBOIcAKSTkHyki6jl3cfaFOKvsNKLygZ17weFSZPsIElMbCjJJx00i6hhEsT5dxMPDXjT02EMxPxHKWcG2kXCO3cQDgD8acQ/joRjj+FMOcI/txIPTSnrdsezw7m+D4wvIPl/j6+Q/3mmzB9jEOKVBDXNaRjA/3URD22EE7MuHNT/BUa/xvB/wYJvyD8JYw7M8afoNhjE+YAjdtHMftG3AFCOIRJRxAl2n2nh3sXaFFWfkGaXGDNcEPBkDjDzcVOS7DLKsrPrqQDKOXARN8zUXdN5D2Usm+kHSKJR3DyEZx0CFEOYPI+TN5Hrh3ApH2YvGukb5nTF21PJwZz3e8ZzgFuAOTbG3I+iW4PsYneCuKChrqjT903Ju2aaLsmyh5KOUApRwjlBKLGYMoRQt5HSTsm4raFuI7i1oz4dYS0AVM2oYRtMHG6815XWTqgbVR+RjodSINdJ3a0MDzKrJDmyWRb5lzPs0Uke8WatWp7tmp9ump5topmrcLPV8Hny4asTWv2pjVry5q9ZcnaMGWuGx+to09WzVlR66up/iLfu/Lx95XjgzKvSeroZg83vB5TPg00PZ3verYKv1hDs9cs2avW7GVL1iL6bBHJXNA/XIQeLSKPF02PfqD3Z413o9ZHi7bMJevTZUv2ivmfVdPLKf0bg+AR0FQr+6jXOuBmV5/M0y10dbC9urKgviyClM2Yy+b7WfM25pyNOW/jzFt58xbhrEk0g/IX3nEX33GWBrhLNs6ShbVoYiyYiufMJVMWdtAqdttq7f0N9v4mp7luHJSMdrHt7QxvZ3GklzEPM3+grHkTa9bCnrJwJi2cCRMnhLInzOwpG2faxpqylkTMRVMWxrSlZMZSMmtmzZrYsyZOoI/ZU34faJVKh3ravHBLCFKEYZnXqPKgap9ZFbTUhy21Eas8iFb7EGnAogzYmv39Wo+tw2VpDQ4oQ9basKk2YpRHkJpJWDpplEZQacgk95nVbnO7w9w9btE5zA1Ok9JlrPfCcj9UEwKrJxH5lLF2Aq0LmZV+i9pra3T1t4zZmsf7m90DTb5+td9S70drQiZZ+P+g8jBaGzLVOXtEHax0oFvIHWmqCbSJJ9pYE+0lPp3Q0y32dQn8neV+LdvfznK1MMfb2M7eKpdRPW5pG7Zov5taHIYql07kbhd4W8oDLdyJVs5Ee1lYywxoy3xavldb4W2XubUyR6fI1S3y9YoDPaJglyCo5U1o+eF2QaBd4NGKXN0VLoNsHFENW9pHza0OtNFtqPd0VXrb+ME2XritPNzGDbaX+7Xl3g7ecCOjqTAZ6Cr4Z0iQ6xBmufjpTkHqaOWT4cqno5LHo8IHY/x7o+V3h4WPhqv/GW0sGeut/G5UfUAbPsKKr42Mkfq8kaocu/ilW/IyWPXSK3niFN4bF90bFz5yCJ45+S/tgpdfxM++VWaNSLPHal7Yq56PS7KckmyHKHuEn/VVmD1U9Z+viryhFs4w2jwKaezd8vEmvl1e7BC/cvKz3fxnbn6mQ5g5Ks78LskcED5S5FCA7n8yvjLue0qT/QxcsBTwcUg+NjnIIoZL8eESXIhBcJWQxnkpzvpsV1fpCCz+hFZ9BgXDssxx4R0766azKCnASJ4uS44wKaHS+GApNlyCjxRTJgvp4eIkR0mCvTTBzkxwsOgednKQnRIuSw2WJrmLE+wldHt5mqPq7rjmlddU5zVIvW1cj+yNi/PAmZcUKkyaLKJHimjBEqqXSXGWUd6z6PJ/8AD8NtUrSJ8X0RZFcStiYFGMXRRhV0Rxa0JgTQisCONmBPEhSUJI+STUyfAYKobBmuHuijHJUyf7tqs4MVhMmWVRlvikJRE2KgYWJMCiCFgRxG3w4jfK8VEecY5PmBbgpkS42QrCQiVxuYK8LCZHBeRZEW1amjKlyAi0/sdrrvcbqvwtTG/lMy8zJfAWt1BKXGUT13jEFRExWkGcryTaJUnKt3TgPS9lQZ2+10g91MQda4BDJeZIiTlWAjElcKwEDlTATw1xtTFtoTV7TlcW6at1d2scrXVO8WsP536QlbbAS9qRJR9paPtNuJ/NwHYLsNMMHDYAZyrgUoE5ryPElIR9TfxWE2azOW6r+cZ+E/a4ER9roO43Jm0131xpzZjseuWyaryQzNfC9FU8DpUlzJZg1vnY3UrskQJ/3EQ+aqXsNZOnGtI7yh8B36vSNrTpZ7qEqy7sr07gqpdy2Ue56iNc9eEu9bhzA+FQn7DZd3PRkP0DZUbMVS6odlxX6ah+5hHeCgkSl6oTDpoSz3W0Mz0xBmKP4LgTEHOux/7uwf3VEX93ki+6ibFe/IEBewBiDg1xp/r4817CRQ/1pDdpX39rG7zzw5jrHWzxmxQ+LcctzfRy6RFm3LoUv6ckHLeSTnTUWB/1sJcyq71zXXdUnrrVk34OJvwyxP8B434Z6Vdo4i+U9gulXJrI52bqoSlpC01fNj2ftzEiNrHTWDXWzRuruucU0P0CUlRGOmilnfdSLmDSGYo/McefmXAXRuJvmPwHov6BaJcI5QwlxSz4mAV3ao6/QAlXCPkKTjhDUo/Q9F3TvSVrvn+wLYCqvO1cZ9VTF4ceYMatySl7TZTjLtqpgR6DE44g6pzu7nXdLzL6cu/NQ5h6AmPOkLgYRI+BKTEwMQbRjmHqIULbQVLWkTtRY/a8hRGxiNxwhUPHHZVkOHg0H48wLyXsNlJPu6hnfaSYAX8M4o9BYsxAOe1LOOtLOIcTT5GEE5RybCIdm4gnKOEcIV9CtAso6QS6dQjf2zU+WjYVBi2tIVAVaOG7K5+7OanBMsKqnL7TRD/UJcbApBiceAjRZnX3rutaZWmRvgcr6O1NU+K2KWkTfLRpeLppeLwJPtyE7q9DD5agJ/Pg82m4YMoiDNsUblTl6KsZr89xVj32VN6Zrr+z0f7woPfBvuHuDpi+Dd7ZAu9vgo83DU83wKcbcOY68ngdebhuvLdpvLONZOwh9w/gR/vwsx34n03kzZoxb87E91nb/Uijt6PCVZfvqsz0V2TMq+8vt91f73u4bXy8bXq0hd6P9GRd1wXrHzmhV1O2F3P9mdH+rKixKIqURo3FUWNhFM1fQPOnkcIQxAgaBWGbMjTY6e7XOZBWT4fY3Vji1eRNtuetGIp+okXbpvx1U+6quWDJzIiay35YuHOW8oiJOWkqmUKLZ9H8eePbKJK7guavoUWraOkSyl0wCedNkoi1zj3Y5bW2ufV1jhauQ13g1bwOt+dM9eTMG/MWbYVLAwWLtrygoeC6bqc6f9gqCn4WT3zmT37khy0Vk9bqmYHq2UHpzGDF1DvxxDtJ8F21753C/a7ZOdA1PtDnHOj1WZqCZmXYLJ80V06bhbNm7uJ70eKniskBkdcidlik9v46+3v194G6sXd1rne1wYGaCVvlpEU8bZVM2yonbdIJmzzYrwz0q93vGr8Ptoy+a3L2a/xWRchSO2GpnrBJwwOVwXcVwUFJcFASeidxwYIufibQpOF+sCjHBpXjNrkLlXp6RYFeUcggCoP8IMjx6Zk+kO2H+F5I4oFqXKDCCWpcoMbVV+PWV3r0Qp+eG9CzQn0lEZAVgThePdduEA4bZcP9DcMf2r8MtH6zNo6hShdY49NLQr2CsF4QMggCoNAHSryQ1APVOOGaYbhyDKpwgBK3Xuy9JvJCYjcsdiISF1Lhhiu8UOVIF6+l7D6gbKi0mNo+mdo+9qq+tEnttYXe2rf++lyf4rWn/oWzLtNd/8yrfOFR/sejfONR5Hvqi931DKeiwKHKHVe9dqr+cauyfMqnvvpnnrrnjvrXIw2M4S7xKKKy29q/o23DvaqR1kq7iu2uKwrU5fnrc3yKV27VK5cqx6nKdSrzHKq3dvWr6yhljlvxxqV461Dm21WFo+qiYQ1jRF06pmI6FKzP8kJV4U1A01AxgDR/0Td8apR+rWaNld7xMlP97NQANznATfByiD4O0c8hBTiUADshWJYUYqUEWWkeTqqbm+wqp7vLKZ5yUoBDCJSRAyy6l3PbJclyqYq9uooApHDr5E4Nb0ySO8567C+9M8m6OVGWGGRTfRyKl0vxcqk+Du3/BNgJATY9WJbkZ6d4OGkO7k17+a1RXrq9PMPBzXCzMz6x79XlJgHNDcJPkGZMpxiuE4yW546/IQXysBOM+Oky3CwHO8u9McMGZljALBOYKwV+lAALjBs/SjAzZfhJDi7CxUa4N6a4wCwbmGfFzTMJ0+ykiPhhWPk23MmbNFQHtUKPPH+c9cD5JiH8hrBQEB9l3JgvvQ6cLrs2w7pe51EWsMgEFpk3okzMPCt+ugwfYuP8HLyPgw+w8eEyfISFGy6j171NAto17BGwzt9Z7a1mecpeeApxIeaNGT5uUUpcqyVtKIgb9biNOsx2LWZHht2tid+vxu9VE7frEjYUtDUlZU1FWlcSt+sJO7XUnzVJ67KMBeXTaW3BJCyYtlaH9DyvKsfOve3Kx08VYdbYcbuV2F3Zje1aYKvu2s9aYE8OxGRxMRk2Jos/lOP3aonb9aQVBSGqJCyo8IvK+BUFdr0OE5AlqgvTgA4VaxSqDeiq3PISJ+eJryRuhgesyYj7jQnH7YmxDlqsk3zSSTrtJJ51ks46SOcd5HMt9awz6bQr6URHP9XRzrqol52Uq46Ec23KkfbOpi4rCubPWLjT/RUhg8CnznVzM0KFxCUm7kAUf9lAvuggxHTYmA5z2hV32RH3S4v51Yn/1Un41Um87CSdd5FOdeQjHemgm3jQTTzsJhzp8DEdbq4trYlz+7ruMCj39lSO1RV9595zl1x/pewoiWcdib96ky56qRd95IvrgU78341OOAOJZyD5Qk+90lN/6Sm/+sh/+oh/+/B/9aTfIO0UvrljfLxkzpmxlkSsfH+f0Kt462FnTBWQt8oIZ1WEP1rapYF0jMTHEMw5hPmrx/ztw55D8f/VQm9aqzgDaFeyvxpqnd3S4XrGEPehsxSYEQKbSmKsM+miL+VcTz8z0E5ByilEPoFIMZgUg8kxiHoMJcSghJNr1DOQfA4SLyDKGUI/QG+tm5/M23ImBkoCAzwvLHBocuzltwPFxBUeKVZPPdclxmDKrom4hxIOjYQziHABEk4hwgn8X8z33m6W3AWaFeUf9YqxHvk3NWdI/MLBI0eqSMualJ9dGYfg3UM44wC+tQ+n7SGpu0jqjjF1x5i2Y7z503h725j+03h7B7m1i6TtI8kHxrQ9NH3T/Chq/ScyUOQd5LgGxQ6zZLS1YLjioYebHK1K3W9KP9Df2TbeXLOkrplTNk0pe0jqPpy6i6T8V5P6R42Sh4CmXvjO0DgKNnxvl35TlDprM0OaRzParMW+f1bgl2vGF6to1gr6dNn0dMn0dNH8dNH0bNGUvWh6HjU9j5qfL5qyl0zPVtDMVfOzFcvzBWvOZD/DM8gf+1A1/KH2u03+vad8WJ3rkWfPaZ5vdL5cg15GTdmz1qw5a9aCOWsZzV5BsxdNWf+VB3ytqsj8/2SU5uFdDGbEAAAAAElFTkSuQmCC;" vertex="1" parent="1">
          <mxGeometry x="532.38" y="565" width="27.62" height="20" as="geometry" />
        </mxCell>
        <mxCell id="mWnzP0U88Y1ZApxrXtzR-21" value="" style="shape=image;verticalLabelPosition=bottom;labelBackgroundColor=default;verticalAlign=top;aspect=fixed;imageAspect=0;image=data:image/png,iVBORw0KGgoAAAANSUhEUgAAAD8AAAAnCAIAAAA3uAd+AAAaKklEQVRYCY2Yd1RT6dr2d5KdRhWxjIODXUQFxIoUsaAgvSlI7wKh9957J3RIIJDeEwIBEpIQQMTC0Iu9zSgqKk53zszwrsA37zn/fGfeZz1rr/yTtX772tdzP/d9AcW5iXkZMSkJYY5OVnr6B1XU4BAoAIUBUCgAAyFwOAwCAQAAAEFQU3PLnj379PT0zpw5Y2FhYWdnZ2tra2FhYWpqqqOjs2t96evrX7x40cbGxtLS8uTJk4cOHdLW1t67d++JEycsLS1tbGzMzc319fV37969Z88eAwMDM7NzDg7OVpa2J06c2bP7wDc7d+scPHzyxBkrS5vLl6+an7t4/PjpfXsPampuV1FWRaERIAIJwNAAVAkCQSEhUKA4NyEvI3qd/uo6PeLf9DAABoMq2AFAWVnlwAEdU5NzXr4+sQkxhcV5dfXV9XXVpSVFmRmZDnZOVy5bW1nZ+/sH5ebm1tfXVlVVevv42dk7Xbx02cbWPhwTWVFZVVlVnZiU7OnlbWl19aq1rY9vQGJSSkNDY1lpeWhohK2t08WLV21snW54+FRV1xaXlKakpvkHhFy2tNMzMNL65gBaWR2OUoOAKgBMBQpDI0AQKM6Ny8uMTEkIdXS01tPXVVFFQSAK4aFQheYQCACBQCEQmJqaxskTZ7y9/Qoqi7q4nbI7fQuP7iwvLz1anBHyhPnZVT4e0QF+iZUVzWNjY69eLt27N9aCI4dFJt3wCkpKyyHTORPT87OLj3oHJAUllZ6+wV5+oYUltQKh7NGjBxP3b3eRyAnJWR4+4ZFx6Y1tHTMLs4uP5mUj0qq6Jp/gOFMLL91jlju09VGqOwCoEgCBAVAApQQAxXmxf9Pb6Onpqqii1+khG/TrukMAAKqEVj1yWN/J6Vpidhq2s4EnZtydlLx4/u3S7ISQ25ufWe3vlRAcmFFV2TY8PPLs6dztcXlDM+EmJsHNMyAuOZ1Apt35dvLb2Tm+sC+vuNTDJ8DTNySvqJorEC0tzY6PS/Ed7TEJ6W7eYZjY1LoW3L2pu1Nz9wekvaU1dV7B8cYWPgcNrLZoHYUrbwdgSoDCHgAC/X+mB2FIbe29580t3P0DYrPSa1pq2Dzyndui28MSOpGakVzk5xV7Mzi9tKSht6dvcmJMJOqpqq0PDo247uEVFRfX1NYiGZYO3x6hMmmZudk3vL09ffyycgupDPb9+6ODYl5dAzY8Kv6aZ3BoVEIltk4iF8lHxSweNb+0zCsw2sTC84D+pc1f68DQmgCIhoCKwwlH/jM9BAKBAgofwbdu2WFoeOrcZTsX7+DYlNRabFU3l9LHZ7U3N6fGZwb6RmLCUgvyKshdFHGfgEEjllaUh2JCvf28YhIiquvKOAKaoJ+N72zKyE32C/LyC/LNzMlsJ7RLBvlcVkdlZVFkdLSXfzAmJqasqozFpfAEVAKxObewwD805qKN95GTFtt264DKmwAQCSJQIAxEKnz/X50DgUBgMDgEgEEh8M0aW3V19c+Y2di6BodFJpWWlHHpxP5uFgnfWpxXkJyQlp1ZVFlW09VO6GYzyUR8XUNVRnZSUmpkXlFKQ3MpnY1j8wkdRGx5dXZqRlRKekxZRX5nV5tQQGZRmxvqy3LzMhNSkrLyMuuba6h0PItN6CI2VtSUJ6XneATEXLC+tldPH7VJA4DBQTgSASLRIOof6KFQKAKBhMORcBCluXn7oUN6JucdndwiIqIzKsqqethUuYjPpeFpJByutYHYSaBRSAIuSybq7eXTWGxCe0cNvqOKRKljsJoEwg7hQBdfgKczGzs6q/DtlWRqc3c3STpA6+MRmHQckdTSgq9v72zk8EgCAXmgnyHoJlNoXc04fHZhtV9YlKGpkdq2LQAMClMIj1IGlYHCnJicdExSfIi9vdXRo4c2Ti0ECkDW6/wGPQKBQiKUtmhuP3Dg8BkTGzuXkNDwpMLcAiqheYBPErDbxP2U/j7qkKxbLu0ZlffdH5OOSAVyOVcsog4OUoeG6LIhinyYNjJKHx6hy+U0iYQiEpElEsbIMO/uCH9MyhqWcoaG+AODHGEffWCAIeqnDfRSe7vJPC6NTKVUYpsw8QknzE6rb98MKG4gKAKKVIGrArkZmPSkkPjogKtXLQ4f0dmgB9adDoVC198BAgAwOBytrrZ52zatvTonThlb29u7eXvciL7pVZ4fSyWUCHiNd8Y5i4uyxXn54uzI4tTo7IR0cU62NC97sCh7sChZWhQvzPcvzvcvLgwsLogWFwYX56WL87Kl+aHHc/JH07KH88NPHt2ZXxiVSlkUUl1LfUF+ZnRmMiY/JzU9PTXoZpi1o722jjZKFQko6g0UDoEr6PMyI7NSQxPjgh0cruobHFHfpKw4pQp6xVKUfMVPEA5HodGqqioamtt37dyje+Cg7uGDe42O7b9mZxyHcRYKGhbmhCvvJz+tzH16v/Tj+yc/vHv06e3Cp3fzq+/nVldmVlemP61Mrq5Mrn6YWl2ZXl2ZXV2ZX32/8Pn94g9vFj5/v/D57dKn90tPHo8P9JNaGvK9r1tanT95wcjAwtzY3MzE8Pjxg4cPae7QBFEwRbWBQeEQmDKIBsoKEopyYrLSo9zdnY1NTu/c+ZWyChqBhMNgsPViD0AgMBCGgIMoEIaCQRFwtApSRVVJCa2uDN+npX7l3JEQ38tiYfPzp9Lfvzz848uzf/3ycu3Xt2tf3q399v1fv77685fnf/zy9I9fHv/52+M/fnn4+08Pfv/p4e8/Pvr9x6e///js9x+e/7n6cu3zd2u/La/9a/ndmxnZILWlPtfK3NDw4Dd7t2/W0ty0SVkJhUSgldBIJRQECsBgABKEwgFACQSBlvqCxtrcmoqchIQoH1/PK5aXTp48vm/fXg0NDTgcrvgIEBgMBodBERAIHABgAAhDqKC2btPQO7TX8cq59JgAHDZrcpz78f3k2tqrtb9e//Xlzdqv79d+fvvHj69++/T0x3dLq8uzq8vTn99NKfbbqc9vZz6/nfu8vPB5efHz8tLP3z/8svx07efXa2srv/30dG5S1M1sSYsO9HO1vWx0SneXtioCoajZChPDIACAgEGQMAAEADQcADj0Fja1iU5uaWtrxNZVFRblxcZFOzjY6ejoqKqqQhQLuv43EAZFgCASRMO3fr3Z1PR0RIg/rqZ8tI/zeHp45bupP359trb2Zm3t/dqfH9d++/Tlw/cfXi68fjzxZHZk4f7A7N3eufs9D6b6H88OPp6VPp4dejwz/Hhm5Mn0rZfT46/n7q2+nPvr55d/fXn14c3M4reS8UE+q6O1MDnZxerqXq2dKigUGoGCAQgYAEVAADiwTo8CALmYKRMxxP3M7m6WoIfL47Pb2prDwkOPHTumpqa2bn1FpwABQDgcraykpqSO3qer7eV5DVdfOzk89PH5o399/P7L6os/fnn1x6+v1r4sr/35ee2X1Z/evHi1OPHgW/mEXDDST5EKCNKeDrmwa6SfNNJPHumnjvTRR/qYI0L23PDg4ujgs+mRH5bn1n578efPz39YXvyy8vLp5H1+Jyk2KPT4oSOaamrqSqpIiDIcABHr6CAEUFICgBEJWy5iDPbR+DyiSMSVSARUSntsTNhxQ71NasoIUHFyoYDim21SUzmwb7fJaYNr9pdzk6P5ZPzC+NC7p7M/vHmwurz0cXnh/Zv5j+8e/vDh+Yc3T189nl2aHpsYE8sGuD1sCp3Y0YVrxTc2tDXUtTVi2xpr21ux5M5mNp0wLO6+J++bn5B99+Tup+WZ1eWZD99NfXq9+GjmbjeTlhgfb2Rstk1r1+YtOzQ3bUUj0LB1HigAKHx9S8oZFjEl/ZSBPqJcxh6SciikxugI/xMGOhqqSBQIKG5aAFBVguoe/Mb6imlKRCA2J5nWXDnEJ8/c6ns0NfR0fmRxUjL37eDspGRhdmRxbmx2amRyYmjivmx4eKC3l0cmUqoqGlKTi6IjMxQ7OjUmNiklLbWkoqgFX983wB6WC+7fEc1PSR7MDC5NixenREszQ3duD1BohPi0lAu2DvsMz2rtP7xt2zY0Gv0fFxECGB/ij0rYw2L6yBBtVM6QiCjEjqq4SL9zRno7t6uqoyGbVWDbNBA6e7dZXTodHuxGbCoXMztGe2n3pdzJ4e6JYe4dGWNMQhsVU0YGKbdkzDEZa0hEFffTB2V9woFeJpvT3EJISyvy8oqwt/d1sPdxdfXz9AoIw2AyczJq6yv6++lyKXtYyhqVMm5Jabek9FEpc3ykRyzi4Qm4uLQMGzef0xaOR0+ZaWlpbdmyRUVFBfX3AkbXnSMboAxLuuSDXZI+Ao/R2FidnRIb6Otu42xtfs3ugpvjpSBvu6zkm231ebcH2Qt3Bx9+K3s0KXswMTg73jMxwnm5JH88I56/3zt1m3dniC7pxfM4eCKd3NrZWdPQmltYHRGd6e6BsbP3dXUJDAtLyMkurKmpweGbKdR2iZghH6TIRCRpf5dsgDgkosgHWRIRl8dn1re2RqfmOHqHXXQKuOzg4ejo6OTkZG1tffLkyR07dihK4rrwTLmIMirpHBkk3JIQx4cYd4bYo2KGvJ823M+Q9zOkPWSZkDRxi/98aWTlu7nVNw9/Wnny68env3548vPKgx/fLaz9+uK3j4sfXt17uShduMsbExP4bFxFY0NaQUloTLKnf6SL+017pwA399C4uOyWJoJ4QHJn7NbtW7JhWe+IlD4qIY4Mdg2LScODlBEJa1jaPSju5fD52BZCdHrJteBke7/E4Jis1tY2EonU1tYWFxdnbGy8adMmQNZHkwgp4t7Ovu5GHrOaQ6sW8lpHBhkTY8IH0yPfP5n67snk04XbD2bkzx+Mrbyeefv6wZvXT94uP1t59+LT+5er71+svnv24fWDN8+mni/dfjAlmbrdfUtM4nM6SrC1cRlZPiGYa54B7l7BXr5hsbGpDXUtw1LZ6xdPP7198erx9NyEZHyINi4ljsvIY1LasJg+2Mfs6+VwebxOCqu4GheaWOQanOYakh2TXs5gMAYGBvh8fn5+voWFxdatWwEerYVLbWaSsY11qcUF4ekpfpmpwaWFiU3YAkJbFbWzkU5qIhOwBFwltQvbzcH3i7r7JGLhoEgoFgkHBoR9wj5hj7i/V9TLF/dypP1sWT9TJCCy2Z21bU25FWVJ2VnJWVkFJaU1tdjW5mY+m/Fw9v6/fnyz9subz2/mXiwM3ZdT7g6R7g7Rbkno4h4qm0EkEon1jfjiypbo1LLrgSlWN2Ls/FJ9MekZGRkVFRVFRUW+vr6HDx9Go9FAU3VOfWVmZUlSUrKfm/tFE1PdU6cOmpgYmJ87dd78zHlzI/Nzpy+cP2Njfd7Dw/7mTc/o5KTItBxMcjYmKSc6tTApsywjtyoxpSA5NS+/oKy1Fc/j8cSivt5+fgetnUDrIDG7WDyaRCacnrz98unc6rsnf/z4au3nl7+tzC8/kj+4z7srI45LyXfkrFsyXp+ASWhvr6xuSEgtCghLc/aOtfOIueoeZWYfZGzhfP78hbNnz+rp6Wlra2toaCjoy/Lji7NjMlNDHV0u6B/fs0kTjlICVNSQqurKyipoJBqBQIJINFxdQ2Wn9nadw3uNLK6a2N4wtfM8Z+97ySnE0gVjcy3K1Svhune8f2haanYVtplIpPPoHA63ly4c5MpGhHfuSRcX77z5bv7zyuMvPzxb++XF2q/Pfv84t/J0+Ol0z7iUPDRAGhRSe3g0CpmMrWvNLcD6haQ6uEdetAswt/EzveplaO6kc8x4165dO3bs2OCGw+GKm7QoOyY/PSIlIdjW8ZKu/l60GgiAAAQOhYAgAAMBGByAgop8B4QilJFqmupfHzLQPnHx4Fkb/fPXT172M7IMMbYMO2cbaW6DsXSJvRGSHZOJza/pxLZ1MjnEfjH79h3RzOzoo0d3v3859e77mY9vZn94N/fTu9kPr+6+WpI+mOi5LWUO9FAZlI7WlpayivqUjPLw2EJHt+gL1v4nzV0MzlofPnlxt+6prVp70Gg0AoH4f53veg+j0L4oKzo9OczVzdbg5GG1zUpQBASGgEPhCBgcDUepQEE0AENA4QikkpKyuhpqq5bSN4e+OnxWx8j2+EXvs1Y3TawjTW2iTa2jzO2irNwSrt/MDk4qT8qraGjGUhmdA2L+6Jh4/I7k3j3J5IRsZlI+Nz08Py2fnpDcGxOODfGHpT3dXFZLc2tuXnlEbK6nf4qjW5y1c5TZFR8DI5v9R42+3nNIY9sOZTV1JSUlJBIJgiAUCoWtL6AkNzYvPSIlPsTR2eqo/kElVSQAWc9xABgAgUMgSABAAAAcgMAgUBgEBgJwFKC6Wenr/VqHTXSNHE9c8DOyDDeyjDS2jja1jTa1jzB3ibT0ivMITSwoKW5qbaIxqbweDq+HzRUweQJWdw+LL2DxBWwen8XhMVkcBofL7SCQ84tqwiKzXT3iL9mEn70YaG4VesbcXffYhZ27dTdpaqKVQBQKVFZWRiKRMBhsXXfFAyjMjMpJCUuMCXB2sjTQ11FXQ4NQAAGCcBgCpugSwL83VBFMARAAAQIqSgjNbRrah745bHbolL2+iafh+UAjK8w5hxgTB4yRXbCxY9DVGzcjYpPSs/NLq2oq6+orsNiymprSmpqS6pqiqurCypqiKmxJTWN5bUt5dXNWbuXNiEwXj1gL2/DT5wP0jbwOGDjuO2KhtcdQY8sOtBIciQCQCAAO//fUsTE/ASW5cevaBzvYWegd2a+qjIQBABwKhUNBGACD/nsr8jVFhAVd7/HgIIBWRWns3Kylt2Ov8TETd9OrN6+4xl+5FnPROeySS+jVa8H2rj4evmFB4XEhEfFBmNjA8JigiLigyAT/8Hi/8PjAiOSb0RmY+FxMTGZgSKKLe4SlXbDZ5YATZh5HTzurf3Vs03YdFY0dSCU0iFBENwiEYsbbUB0GgyEQCEXNKc7dyNJuOjhcNTA4rK6uvBG7KuZCCAQKhcJBhGIQA2AIELVJXVNZY7PmTq2vtL9R27x5k4am9m4d3SNGRmYO5y29rZ0wDq7Rjq5RLq6RLtfC7F38Ha8HOl4LsHHysXX2cbweaH/N38bZ187Fz/5agOP1ICe3YGf3kOtuwc7OAfZOAXbOQVYO/sYXHI4eN92hvWfL9q0qaki1zahtOzVUtqKRqgg1NbUNu4MguJ5SQv43EVHQK+ba/6BXDCbr9Io8B4rYseMbE+NzjtdcvQJ9fAO8nF3sHOwsr7s6e9zwCotIiIzNik0qTkwuTUoqTkkoSE7MS0zJS0rNS0zNi0/OiU/OSUzNS0jJjU/Kjk/OSUjJTUrLT0rLT0kvSE3JS0nMTUrKT0otikvOv4lJ8PINtHews7e7ctXKzMra3MbBwtTC+KjhEW1tbRQKpUDaKJfAv7O0/0YPAFAEQsnQ8FR4WGQLrpnFp7A5XYR2bEt9SSO2tLaqFIfHteIILTgiDtfVjusktLZ3tLV3EIi49k4cnoBv72wnEDsIxHYCEd/e1YbrUGw8Ad/RRegkETtIpHZSVwe1s5OO76A1tbRjsXUVpYW1lYXVZTnlpdmFRZmxiZFuHtcNDQ3V1NQgEAgCgdiQ//+kPQBA0SgVE2Pz9PRsYV/v/Ymx6cmxu7fEtyTdEiGLzyLzuSw6nU6h0phMhoDH6e/mCPmcbj6XTqdRKGQWkyEQdAuFvX3CXoGgm8mgk0lECpnEYjF7BN2DfcLB3l5ht4DL4TGYXAaDxWYyBByGuIczwKNzaJ2E9uaS0qJwTNjZs2c1NDQgEAh8fSlCg7+TwP+v9iAIBwAoCqlseOxkcFBoc3Mrj8uVivpHJQPj0n75gKCbRevAtzXU12OxdR3tOD6bPtjLGejhUCnE5qb62pqqttZmNpPeJxT0CXs4bCYe11JdVV5bU0nowHHZDLlYKBHy2XQyrq21oaEJ19ZGJREHhd0jIqGYz6IS8NiqytSUVC8vn+PHj6urq6+Hkwr/Kyrmf6HfuBQ26BFwtPY3e0xMzH28Q5MT86vLG4g4YjeNzaezu3CdmWk58XEp8fFpJcVlJEJnL4fFZ9Fra2vS0lJjYqKzs7NaWlqYTAabzcLj8fn5edFRUXGxscVFRe14nKiXK2CTmxqqMzJS4+ITsrJyaqqqeUxGD4tFwePL8otiImLd3HwuXLiyf/9+FRWVvzMyRQn6Z3oYDIRAQARCafu2r3V19czMbJ2dQ+JjcrGVbbROJrWT0VyPDw+L9/YN9Q3ApGfk4XEdXCaDTqXmF5aFYWI8vQPCMLHlFVgqjUNn8usb2+IT0zy8Anz8QlLTcxqa2gR8NpPWVVZeFIoJ9/DxD4+MzcsvopFpdBKttb45PTnLyyP44iXHY4bGO3fu3KDfCJr+mX49UINBoaCSkqqW1i69o4ZnzlpbWvtHRuY11pFYtF4qid/U2BUSlujuHerhH56WXdhOIHHYbBKJmp1fHRyW5Ooe7BsYU1DSwOCI2HwptpEYFZft4hbk7hWWlFbc2ELm87sZDEppZXlgGMb5hm9QeExOQRmDwaNTufgWYnZWmacnxuy861EDUy2tnX/HHBv8/9X36+gK+0ChIAqlsn27lo7OEeNz1jZO/pHRGXV1eDqVTSYxmprbQzCxHv4h3iHhaXn5uM4OJpvWSSKn51YHY1LdvDEBYcmF5S0UlpjGGays68LE5Ti5hVz3Co9PLa5tInH5PTQ6rbiiMjA82sUrODgiMaewikbvplK4rc1dmRllHl6RZhev6x0z++qrr/5T+384tf9LD1G0bejNGlt3ae87Y2Jxxfa6f1B4bl7hxkktKi319A9wuuHh6usblZRQVl3e1FxbVVuDic3y8ItydAv29I9OzqzANlPqWmlZhXV+NxOtnXztrwXejEzPLa7HtRMbGpqS07PdfUJsXX09AyJjE3Nqa9uqq5oK8srDw5Nt7LxPGNnsP3RSU1MTjUZv9Jgb7v8fxEAvFgD7prsAAAAASUVORK5CYII=;" vertex="1" parent="1">
          <mxGeometry x="250" y="350" width="32.31" height="20" as="geometry" />
        </mxCell>
        <mxCell id="mWnzP0U88Y1ZApxrXtzR-22" value="" style="shape=image;verticalLabelPosition=bottom;labelBackgroundColor=default;verticalAlign=top;aspect=fixed;imageAspect=0;image=data:image/png,iVBORw0KGgoAAAANSUhEUgAAAD8AAAAnCAIAAAA3uAd+AAAaKklEQVRYCY2Yd1RT6dr2d5KdRhWxjIODXUQFxIoUsaAgvSlI7wKh9957J3RIIJDeEwIBEpIQQMTC0Iu9zSgqKk53zszwrsA37zn/fGfeZz1rr/yTtX772tdzP/d9AcW5iXkZMSkJYY5OVnr6B1XU4BAoAIUBUCgAAyFwOAwCAQAAAEFQU3PLnj379PT0zpw5Y2FhYWdnZ2tra2FhYWpqqqOjs2t96evrX7x40cbGxtLS8uTJk4cOHdLW1t67d++JEycsLS1tbGzMzc319fV37969Z88eAwMDM7NzDg7OVpa2J06c2bP7wDc7d+scPHzyxBkrS5vLl6+an7t4/PjpfXsPampuV1FWRaERIAIJwNAAVAkCQSEhUKA4NyEvI3qd/uo6PeLf9DAABoMq2AFAWVnlwAEdU5NzXr4+sQkxhcV5dfXV9XXVpSVFmRmZDnZOVy5bW1nZ+/sH5ebm1tfXVlVVevv42dk7Xbx02cbWPhwTWVFZVVlVnZiU7OnlbWl19aq1rY9vQGJSSkNDY1lpeWhohK2t08WLV21snW54+FRV1xaXlKakpvkHhFy2tNMzMNL65gBaWR2OUoOAKgBMBQpDI0AQKM6Ny8uMTEkIdXS01tPXVVFFQSAK4aFQheYQCACBQCEQmJqaxskTZ7y9/Qoqi7q4nbI7fQuP7iwvLz1anBHyhPnZVT4e0QF+iZUVzWNjY69eLt27N9aCI4dFJt3wCkpKyyHTORPT87OLj3oHJAUllZ6+wV5+oYUltQKh7NGjBxP3b3eRyAnJWR4+4ZFx6Y1tHTMLs4uP5mUj0qq6Jp/gOFMLL91jlju09VGqOwCoEgCBAVAApQQAxXmxf9Pb6Onpqqii1+khG/TrukMAAKqEVj1yWN/J6Vpidhq2s4EnZtydlLx4/u3S7ISQ25ufWe3vlRAcmFFV2TY8PPLs6dztcXlDM+EmJsHNMyAuOZ1Apt35dvLb2Tm+sC+vuNTDJ8DTNySvqJorEC0tzY6PS/Ed7TEJ6W7eYZjY1LoW3L2pu1Nz9wekvaU1dV7B8cYWPgcNrLZoHYUrbwdgSoDCHgAC/X+mB2FIbe29580t3P0DYrPSa1pq2Dzyndui28MSOpGakVzk5xV7Mzi9tKSht6dvcmJMJOqpqq0PDo247uEVFRfX1NYiGZYO3x6hMmmZudk3vL09ffyycgupDPb9+6ODYl5dAzY8Kv6aZ3BoVEIltk4iF8lHxSweNb+0zCsw2sTC84D+pc1f68DQmgCIhoCKwwlH/jM9BAKBAgofwbdu2WFoeOrcZTsX7+DYlNRabFU3l9LHZ7U3N6fGZwb6RmLCUgvyKshdFHGfgEEjllaUh2JCvf28YhIiquvKOAKaoJ+N72zKyE32C/LyC/LNzMlsJ7RLBvlcVkdlZVFkdLSXfzAmJqasqozFpfAEVAKxObewwD805qKN95GTFtt264DKmwAQCSJQIAxEKnz/X50DgUBgMDgEgEEh8M0aW3V19c+Y2di6BodFJpWWlHHpxP5uFgnfWpxXkJyQlp1ZVFlW09VO6GYzyUR8XUNVRnZSUmpkXlFKQ3MpnY1j8wkdRGx5dXZqRlRKekxZRX5nV5tQQGZRmxvqy3LzMhNSkrLyMuuba6h0PItN6CI2VtSUJ6XneATEXLC+tldPH7VJA4DBQTgSASLRIOof6KFQKAKBhMORcBCluXn7oUN6JucdndwiIqIzKsqqethUuYjPpeFpJByutYHYSaBRSAIuSybq7eXTWGxCe0cNvqOKRKljsJoEwg7hQBdfgKczGzs6q/DtlWRqc3c3STpA6+MRmHQckdTSgq9v72zk8EgCAXmgnyHoJlNoXc04fHZhtV9YlKGpkdq2LQAMClMIj1IGlYHCnJicdExSfIi9vdXRo4c2Ti0ECkDW6/wGPQKBQiKUtmhuP3Dg8BkTGzuXkNDwpMLcAiqheYBPErDbxP2U/j7qkKxbLu0ZlffdH5OOSAVyOVcsog4OUoeG6LIhinyYNjJKHx6hy+U0iYQiEpElEsbIMO/uCH9MyhqWcoaG+AODHGEffWCAIeqnDfRSe7vJPC6NTKVUYpsw8QknzE6rb98MKG4gKAKKVIGrArkZmPSkkPjogKtXLQ4f0dmgB9adDoVC198BAgAwOBytrrZ52zatvTonThlb29u7eXvciL7pVZ4fSyWUCHiNd8Y5i4uyxXn54uzI4tTo7IR0cU62NC97sCh7sChZWhQvzPcvzvcvLgwsLogWFwYX56WL87Kl+aHHc/JH07KH88NPHt2ZXxiVSlkUUl1LfUF+ZnRmMiY/JzU9PTXoZpi1o722jjZKFQko6g0UDoEr6PMyI7NSQxPjgh0cruobHFHfpKw4pQp6xVKUfMVPEA5HodGqqioamtt37dyje+Cg7uGDe42O7b9mZxyHcRYKGhbmhCvvJz+tzH16v/Tj+yc/vHv06e3Cp3fzq+/nVldmVlemP61Mrq5Mrn6YWl2ZXl2ZXV2ZX32/8Pn94g9vFj5/v/D57dKn90tPHo8P9JNaGvK9r1tanT95wcjAwtzY3MzE8Pjxg4cPae7QBFEwRbWBQeEQmDKIBsoKEopyYrLSo9zdnY1NTu/c+ZWyChqBhMNgsPViD0AgMBCGgIMoEIaCQRFwtApSRVVJCa2uDN+npX7l3JEQ38tiYfPzp9Lfvzz848uzf/3ycu3Xt2tf3q399v1fv77685fnf/zy9I9fHv/52+M/fnn4+08Pfv/p4e8/Pvr9x6e///js9x+e/7n6cu3zd2u/La/9a/ndmxnZILWlPtfK3NDw4Dd7t2/W0ty0SVkJhUSgldBIJRQECsBgABKEwgFACQSBlvqCxtrcmoqchIQoH1/PK5aXTp48vm/fXg0NDTgcrvgIEBgMBodBERAIHABgAAhDqKC2btPQO7TX8cq59JgAHDZrcpz78f3k2tqrtb9e//Xlzdqv79d+fvvHj69++/T0x3dLq8uzq8vTn99NKfbbqc9vZz6/nfu8vPB5efHz8tLP3z/8svx07efXa2srv/30dG5S1M1sSYsO9HO1vWx0SneXtioCoajZChPDIACAgEGQMAAEADQcADj0Fja1iU5uaWtrxNZVFRblxcZFOzjY6ejoqKqqQhQLuv43EAZFgCASRMO3fr3Z1PR0RIg/rqZ8tI/zeHp45bupP359trb2Zm3t/dqfH9d++/Tlw/cfXi68fjzxZHZk4f7A7N3eufs9D6b6H88OPp6VPp4dejwz/Hhm5Mn0rZfT46/n7q2+nPvr55d/fXn14c3M4reS8UE+q6O1MDnZxerqXq2dKigUGoGCAQgYAEVAADiwTo8CALmYKRMxxP3M7m6WoIfL47Pb2prDwkOPHTumpqa2bn1FpwABQDgcraykpqSO3qer7eV5DVdfOzk89PH5o399/P7L6os/fnn1x6+v1r4sr/35ee2X1Z/evHi1OPHgW/mEXDDST5EKCNKeDrmwa6SfNNJPHumnjvTRR/qYI0L23PDg4ujgs+mRH5bn1n578efPz39YXvyy8vLp5H1+Jyk2KPT4oSOaamrqSqpIiDIcABHr6CAEUFICgBEJWy5iDPbR+DyiSMSVSARUSntsTNhxQ71NasoIUHFyoYDim21SUzmwb7fJaYNr9pdzk6P5ZPzC+NC7p7M/vHmwurz0cXnh/Zv5j+8e/vDh+Yc3T189nl2aHpsYE8sGuD1sCp3Y0YVrxTc2tDXUtTVi2xpr21ux5M5mNp0wLO6+J++bn5B99+Tup+WZ1eWZD99NfXq9+GjmbjeTlhgfb2Rstk1r1+YtOzQ3bUUj0LB1HigAKHx9S8oZFjEl/ZSBPqJcxh6SciikxugI/xMGOhqqSBQIKG5aAFBVguoe/Mb6imlKRCA2J5nWXDnEJ8/c6ns0NfR0fmRxUjL37eDspGRhdmRxbmx2amRyYmjivmx4eKC3l0cmUqoqGlKTi6IjMxQ7OjUmNiklLbWkoqgFX983wB6WC+7fEc1PSR7MDC5NixenREszQ3duD1BohPi0lAu2DvsMz2rtP7xt2zY0Gv0fFxECGB/ij0rYw2L6yBBtVM6QiCjEjqq4SL9zRno7t6uqoyGbVWDbNBA6e7dZXTodHuxGbCoXMztGe2n3pdzJ4e6JYe4dGWNMQhsVU0YGKbdkzDEZa0hEFffTB2V9woFeJpvT3EJISyvy8oqwt/d1sPdxdfXz9AoIw2AyczJq6yv6++lyKXtYyhqVMm5Jabek9FEpc3ykRyzi4Qm4uLQMGzef0xaOR0+ZaWlpbdmyRUVFBfX3AkbXnSMboAxLuuSDXZI+Ao/R2FidnRIb6Otu42xtfs3ugpvjpSBvu6zkm231ebcH2Qt3Bx9+K3s0KXswMTg73jMxwnm5JH88I56/3zt1m3dniC7pxfM4eCKd3NrZWdPQmltYHRGd6e6BsbP3dXUJDAtLyMkurKmpweGbKdR2iZghH6TIRCRpf5dsgDgkosgHWRIRl8dn1re2RqfmOHqHXXQKuOzg4ejo6OTkZG1tffLkyR07dihK4rrwTLmIMirpHBkk3JIQx4cYd4bYo2KGvJ823M+Q9zOkPWSZkDRxi/98aWTlu7nVNw9/Wnny68env3548vPKgx/fLaz9+uK3j4sfXt17uShduMsbExP4bFxFY0NaQUloTLKnf6SL+017pwA399C4uOyWJoJ4QHJn7NbtW7JhWe+IlD4qIY4Mdg2LScODlBEJa1jaPSju5fD52BZCdHrJteBke7/E4Jis1tY2EonU1tYWFxdnbGy8adMmQNZHkwgp4t7Ovu5GHrOaQ6sW8lpHBhkTY8IH0yPfP5n67snk04XbD2bkzx+Mrbyeefv6wZvXT94uP1t59+LT+5er71+svnv24fWDN8+mni/dfjAlmbrdfUtM4nM6SrC1cRlZPiGYa54B7l7BXr5hsbGpDXUtw1LZ6xdPP7198erx9NyEZHyINi4ljsvIY1LasJg+2Mfs6+VwebxOCqu4GheaWOQanOYakh2TXs5gMAYGBvh8fn5+voWFxdatWwEerYVLbWaSsY11qcUF4ekpfpmpwaWFiU3YAkJbFbWzkU5qIhOwBFwltQvbzcH3i7r7JGLhoEgoFgkHBoR9wj5hj7i/V9TLF/dypP1sWT9TJCCy2Z21bU25FWVJ2VnJWVkFJaU1tdjW5mY+m/Fw9v6/fnyz9subz2/mXiwM3ZdT7g6R7g7Rbkno4h4qm0EkEon1jfjiypbo1LLrgSlWN2Ls/FJ9MekZGRkVFRVFRUW+vr6HDx9Go9FAU3VOfWVmZUlSUrKfm/tFE1PdU6cOmpgYmJ87dd78zHlzI/Nzpy+cP2Njfd7Dw/7mTc/o5KTItBxMcjYmKSc6tTApsywjtyoxpSA5NS+/oKy1Fc/j8cSivt5+fgetnUDrIDG7WDyaRCacnrz98unc6rsnf/z4au3nl7+tzC8/kj+4z7srI45LyXfkrFsyXp+ASWhvr6xuSEgtCghLc/aOtfOIueoeZWYfZGzhfP78hbNnz+rp6Wlra2toaCjoy/Lji7NjMlNDHV0u6B/fs0kTjlICVNSQqurKyipoJBqBQIJINFxdQ2Wn9nadw3uNLK6a2N4wtfM8Z+97ySnE0gVjcy3K1Svhune8f2haanYVtplIpPPoHA63ly4c5MpGhHfuSRcX77z5bv7zyuMvPzxb++XF2q/Pfv84t/J0+Ol0z7iUPDRAGhRSe3g0CpmMrWvNLcD6haQ6uEdetAswt/EzveplaO6kc8x4165dO3bs2OCGw+GKm7QoOyY/PSIlIdjW8ZKu/l60GgiAAAQOhYAgAAMBGByAgop8B4QilJFqmupfHzLQPnHx4Fkb/fPXT172M7IMMbYMO2cbaW6DsXSJvRGSHZOJza/pxLZ1MjnEfjH79h3RzOzoo0d3v3859e77mY9vZn94N/fTu9kPr+6+WpI+mOi5LWUO9FAZlI7WlpayivqUjPLw2EJHt+gL1v4nzV0MzlofPnlxt+6prVp70Gg0AoH4f53veg+j0L4oKzo9OczVzdbg5GG1zUpQBASGgEPhCBgcDUepQEE0AENA4QikkpKyuhpqq5bSN4e+OnxWx8j2+EXvs1Y3TawjTW2iTa2jzO2irNwSrt/MDk4qT8qraGjGUhmdA2L+6Jh4/I7k3j3J5IRsZlI+Nz08Py2fnpDcGxOODfGHpT3dXFZLc2tuXnlEbK6nf4qjW5y1c5TZFR8DI5v9R42+3nNIY9sOZTV1JSUlJBIJgiAUCoWtL6AkNzYvPSIlPsTR2eqo/kElVSQAWc9xABgAgUMgSABAAAAcgMAgUBgEBgJwFKC6Wenr/VqHTXSNHE9c8DOyDDeyjDS2jja1jTa1jzB3ibT0ivMITSwoKW5qbaIxqbweDq+HzRUweQJWdw+LL2DxBWwen8XhMVkcBofL7SCQ84tqwiKzXT3iL9mEn70YaG4VesbcXffYhZ27dTdpaqKVQBQKVFZWRiKRMBhsXXfFAyjMjMpJCUuMCXB2sjTQ11FXQ4NQAAGCcBgCpugSwL83VBFMARAAAQIqSgjNbRrah745bHbolL2+iafh+UAjK8w5hxgTB4yRXbCxY9DVGzcjYpPSs/NLq2oq6+orsNiymprSmpqS6pqiqurCypqiKmxJTWN5bUt5dXNWbuXNiEwXj1gL2/DT5wP0jbwOGDjuO2KhtcdQY8sOtBIciQCQCAAO//fUsTE/ASW5cevaBzvYWegd2a+qjIQBABwKhUNBGACD/nsr8jVFhAVd7/HgIIBWRWns3Kylt2Ov8TETd9OrN6+4xl+5FnPROeySS+jVa8H2rj4evmFB4XEhEfFBmNjA8JigiLigyAT/8Hi/8PjAiOSb0RmY+FxMTGZgSKKLe4SlXbDZ5YATZh5HTzurf3Vs03YdFY0dSCU0iFBENwiEYsbbUB0GgyEQCEXNKc7dyNJuOjhcNTA4rK6uvBG7KuZCCAQKhcJBhGIQA2AIELVJXVNZY7PmTq2vtL9R27x5k4am9m4d3SNGRmYO5y29rZ0wDq7Rjq5RLq6RLtfC7F38Ha8HOl4LsHHysXX2cbweaH/N38bZ187Fz/5agOP1ICe3YGf3kOtuwc7OAfZOAXbOQVYO/sYXHI4eN92hvWfL9q0qaki1zahtOzVUtqKRqgg1NbUNu4MguJ5SQv43EVHQK+ba/6BXDCbr9Io8B4rYseMbE+NzjtdcvQJ9fAO8nF3sHOwsr7s6e9zwCotIiIzNik0qTkwuTUoqTkkoSE7MS0zJS0rNS0zNi0/OiU/OSUzNS0jJjU/Kjk/OSUjJTUrLT0rLT0kvSE3JS0nMTUrKT0otikvOv4lJ8PINtHews7e7ctXKzMra3MbBwtTC+KjhEW1tbRQKpUDaKJfAv7O0/0YPAFAEQsnQ8FR4WGQLrpnFp7A5XYR2bEt9SSO2tLaqFIfHteIILTgiDtfVjusktLZ3tLV3EIi49k4cnoBv72wnEDsIxHYCEd/e1YbrUGw8Ad/RRegkETtIpHZSVwe1s5OO76A1tbRjsXUVpYW1lYXVZTnlpdmFRZmxiZFuHtcNDQ3V1NQgEAgCgdiQ//+kPQBA0SgVE2Pz9PRsYV/v/Ymx6cmxu7fEtyTdEiGLzyLzuSw6nU6h0phMhoDH6e/mCPmcbj6XTqdRKGQWkyEQdAuFvX3CXoGgm8mgk0lECpnEYjF7BN2DfcLB3l5ht4DL4TGYXAaDxWYyBByGuIczwKNzaJ2E9uaS0qJwTNjZs2c1NDQgEAh8fSlCg7+TwP+v9iAIBwAoCqlseOxkcFBoc3Mrj8uVivpHJQPj0n75gKCbRevAtzXU12OxdR3tOD6bPtjLGejhUCnE5qb62pqqttZmNpPeJxT0CXs4bCYe11JdVV5bU0nowHHZDLlYKBHy2XQyrq21oaEJ19ZGJREHhd0jIqGYz6IS8NiqytSUVC8vn+PHj6urq6+Hkwr/Kyrmf6HfuBQ26BFwtPY3e0xMzH28Q5MT86vLG4g4YjeNzaezu3CdmWk58XEp8fFpJcVlJEJnL4fFZ9Fra2vS0lJjYqKzs7NaWlqYTAabzcLj8fn5edFRUXGxscVFRe14nKiXK2CTmxqqMzJS4+ITsrJyaqqqeUxGD4tFwePL8otiImLd3HwuXLiyf/9+FRWVvzMyRQn6Z3oYDIRAQARCafu2r3V19czMbJ2dQ+JjcrGVbbROJrWT0VyPDw+L9/YN9Q3ApGfk4XEdXCaDTqXmF5aFYWI8vQPCMLHlFVgqjUNn8usb2+IT0zy8Anz8QlLTcxqa2gR8NpPWVVZeFIoJ9/DxD4+MzcsvopFpdBKttb45PTnLyyP44iXHY4bGO3fu3KDfCJr+mX49UINBoaCSkqqW1i69o4ZnzlpbWvtHRuY11pFYtF4qid/U2BUSlujuHerhH56WXdhOIHHYbBKJmp1fHRyW5Ooe7BsYU1DSwOCI2HwptpEYFZft4hbk7hWWlFbc2ELm87sZDEppZXlgGMb5hm9QeExOQRmDwaNTufgWYnZWmacnxuy861EDUy2tnX/HHBv8/9X36+gK+0ChIAqlsn27lo7OEeNz1jZO/pHRGXV1eDqVTSYxmprbQzCxHv4h3iHhaXn5uM4OJpvWSSKn51YHY1LdvDEBYcmF5S0UlpjGGays68LE5Ti5hVz3Co9PLa5tInH5PTQ6rbiiMjA82sUrODgiMaewikbvplK4rc1dmRllHl6RZhev6x0z++qrr/5T+384tf9LD1G0bejNGlt3ae87Y2Jxxfa6f1B4bl7hxkktKi319A9wuuHh6usblZRQVl3e1FxbVVuDic3y8ItydAv29I9OzqzANlPqWmlZhXV+NxOtnXztrwXejEzPLa7HtRMbGpqS07PdfUJsXX09AyJjE3Nqa9uqq5oK8srDw5Nt7LxPGNnsP3RSU1MTjUZv9Jgb7v8fxEAvFgD7prsAAAAASUVORK5CYII=;" vertex="1" parent="1">
          <mxGeometry x="250" y="610" width="32.31" height="20" as="geometry" />
        </mxCell>
        <mxCell id="mWnzP0U88Y1ZApxrXtzR-23" value="" style="shape=image;verticalLabelPosition=bottom;labelBackgroundColor=default;verticalAlign=top;aspect=fixed;imageAspect=0;image=data:image/png,iVBORw0KGgoAAAANSUhEUgAAADoAAAAqCAIAAABtD9/kAAAaiElEQVRYCYXZZ1daXaM14B1BOog1iaYnJprceRJjrCgISFdRUGl2UbHALmyaxjRTLEivYo/YW+xiT7nf87Pe4Tk/4Bnj+rTGGnPNr3MsQJ1JN+amfCygDxWQv+bjvuQDX/OAr2+xX94Sht5SPuZRBwoTrKVJVsG9D8o3nzu4H3UVQ+2i98yHHwrS3ucmDOVRvuUTv73FfM+9MXwN8z0X9/0N8dsb8pe3+I+FwKcCYCj/xtfrC9jhXMxIPvZbPuZTHmYwn/iekfyJff+9+NWnVun3VumomvdNlPO56O7nV7Th1+SxHNLYW9JwAWWokDpYSOnNTyh/ggc6X9O/cm/5xGnhisRJCXlWCMwLgHkBdlaAnxEQJ4XkoITmrU72qh+GdPkTqCholk1AVV7efX9pkp9BmWSRFnjkJT5+iYdZ4t1Y4t1Y5GGiPNwCD/+Dj50TAvNCYIF/fbhcjlkuj1sTxS+L4+eE2EkhIVKROC27G254HTLWRyD5ZAcvWPPSW3YrUECcYRAWmPilcuKCiDwtIQfFxE+CxNq8ZMBYmuCX31pqTFtvStxqJO2pMfsqzL4St6fC76iIW2ryahM92pY22/VoGnw7gZZ7YYmvqzzATw8zqeFS/A8efruafFhHOlbgjxXYYwXmSIk9UMbvK3H7Kuy+GjhU3jhSYGP18Sd18Sf12HMN4aQBv6vGrauJq02J6+0Z0Z6coKV2ApGGtUyf9ImHSQvlAWtc3L6EcCynHKqpW43kJQ3BpUhp5dwBPkmSF7R3Dw3pJ4aksz7y7x7i327Sn27y727KVQ/tvJd+bEjdgTPWjM8WLQXTVr4XrnB3cv2i9CCHEubio1XE/YaEyw76727a7x7Srx7CVS/hspd40Xftqhf3u4fwp5v8r47yv0j/00f500c66SHsdpO39Uk7cMaK+Y2vXx40Vga0DF/1Qz+bMlUM7FcQLuvJ/7bS//Ykn+npuz2kiPZWl+gBMFSduNyTfoyknCLkMxD7xxD/V4/7q8f/1RN+G4gXICmG0PfQmxumJ8u2gtl+UQCVerv5DmGak4N3c+Omq+O3W6lnevoFRDmH8Wcw9hTBnhixsf91DmMvIdwVSPhlIP02EH8b8L8R/AUSvw/GbRiwKxBpzZQ8b3vhtFW7EZG7vcBdfc/PJc8wgb1K7IUS96+W/K+Bdg6Tdw24SFdqt+QB8LEmca779haUuAuTjhD8JUz+DZJ/g5RfIOUKop7DtCOYvmu8uWl5tmwrnLEKAsaqQJ9ohJ/i4JE8Qvy0nLjZRj8BU87RpFOUcmwkHCDx+0bcvplwaCEdI4RjkBDTE0/6SOd68hVIPocIMQS3b8Rvo+R1M33FkjrX/0/ws9JvrvB0FLjlDzw8cqgE2KzExJT4Xx2U3yD9FKFtG/ChjhQtPwMYkN+a7Hu4ZszYNKXumlP24Fv7UPrBtYx9KGMXztiE764gj6PmnBkLK2CqdCC1zr7qEWnmeOUdV/XtsPL2ovbeT+jRvvnRnuXetun2uvHmKnpr1Zy+Zs7YMN7ahG5v6W/v6DMOwLsx5O4BcnvXmLaFpq2Z05cs939Yn0T6C10fG8dNstGuslHli/HKdC+fEpUnbjWkHOoyDuF7P413lqCb3q77naL7AFr3OAi9XrS+XLFlrfZnL5hzf5gKF0xFUbQ4ihYvmIpmTYxJc1nQKvTYaketzV9Mnd9grb1V5Gxmu1pKA1rGdF9J1Fi6YmMtD5T+sDJmzMWTZsakpXTKVjptLpxFi+bg4ijMWEVLt8zMDXPRqjl/yZL/w1Y008+c7Of63sm/fugdsmo/G+q/dghGmhlOdU64NWdOl7sEFy5ZSuatjIip0NFX0FORCejr37gR7nQ/e8bGmLYWT/aLIzbplLV6xiKbNctnzbJpq3zSVhfsV7psTaO2rm82w7DF4ENag5A6CNWHIfkUKpux1Mz118z0V09YqwMWmd9S57ep/QOqwIAsaK0JmWom0Zo5k2zRIouaK3+YxfMW8Yy1KmKThW0Kz0Dr9/fwt/7eb6b2UVjlNNT49ZKwQTSFiOYsVfMDsukBWdhW4wBF3ZIsoEtRNmKUe201bpPQifA8aLXXWOtH6kOQcgJURQzKCKwMIwofrBgHlcNQ4zdYO4x0euAWH9Tgh1UBuC4AywNIjQ+qdoPVDrDODqnHja1Os87Vr3MPtrhtDS6jygMq/Pq6sEE+oa8K6yvC+oqAQeoFa92gchxqGka7viPtw2DDmKHeBcn8sNRnkATAihAsDRvlQaTOC9WNdFW0l2cCWqVkCGkcNam/GKqHdDx7c4G7Md+rKQqoGGFlyYSCMakujqgLfcpcR/2bUUXeiJox2sgcaygcb8p3NuU5m3JdTTmOhld2zatRzZuRhqKRFs54Z6W7T+GDVT5TlQcSOXXl4y1Mp6bIo8rzq9/4Na/9mtdeTa5bU+DUlDgamPYGpl1dbFflj6ty3A2v/E0vPZrnHvVzr/qlV/Xao8x11+cNyfI0jIdAs0r60dg6gqiGOoSfVQXfhQ+cgrsewT0//16w/E6Ic2ui/FaElxbgJrs5SU5OqpN328m/a+fcspfftPNvjgtSxvmJ4zyak0d38VIdwvv26pd2TZmzq8ZjUHgNFW5t2bgi1y556uDfdfPSvMIUrzjJI0nyiFN9onS/4J6Pf9/Bu+Mov+3gpjq5SR4e3ceneflUL4/q5SV4eInu8hQXN/UjN0PxNg3QaKQf0BYHJB/RFH4TPBgtpPuKEyKshNky6iwTN1MEzBUDCyXAj1JgvhQzV4KbLSHMlZBn8shTBeRwESFUjA0XA1PFwI8iIFqEmSmhBvkP3QqGs7fOY2r19MicSuZYeaY9j+59iw0XABMsIMQFguXABAeYYWIWi/HRItIEgxxhEKcY+Jli7Gzxjdni6+d+MIE5FjBTBkyVxU2yMcNsiuI1GWhSS4aMGjdYNa5+M8a/7WGQp1jkRQFtvZK2WUXeqIzfqMJsSjEb1dj1aty6lLQmpaxX0bYrkzarktZqElZl5DUZYbMG+1Ma/7OSsCpNmql/HNQWe5Bqr63B1V3tUJaO8Z46ihODJYRZbtyiFButjVuou7Ekj1urjt+pIOxUULZqErdk9G0ZbVtG/ikj/pThN2uwG9WY9Rrsak38sgy/LCP4qpNbipKBFpXwG6LwgWKX+j8OfvIEC7fII/ysoR1rEs9a6Wft1FMtMaYlHGuJx1rykZZ2pKUftyddtKWet6ecdCQfd9JjndSzDtKFlnzennDQfmu1+9kUXOQfEPsG61zdleNKxpjgiYuVNMUjr1YTdlsoe13EHR1+vwt/rCVctJKuWqlXHSmXHcmXnUkXXQkXXdRzHeVYSzjU4g+1hAMtaV9L2ddSZ5szdOw7QLuSPwzXBQxCt/qFg58wXQasC4HDesJFO/WPnvYHJv9CCBdI/AWCu0AIFzDpAqZeQbTffeRfevKlgXQOEs5B3JUB8wfC/4EoJ3DqlunxnO1N4APL/17s7RE5lfkjgnsuNnVGQtxSEE56qWcI6QTFnRmxVwj2XxD7Pwbc/9OT/zWQ/oLE3xDuCom/NGJPYcwJjI3BuBOIcAKSTkHyki6jl3cfaFOKvsNKLygZ17weFSZPsIElMbCjJJx00i6hhEsT5dxMPDXjT02EMxPxHKWcG2kXCO3cQDgD8acQ/joRjj+FMOcI/txIPTSnrdsezw7m+D4wvIPl/j6+Q/3mmzB9jEOKVBDXNaRjA/3URD22EE7MuHNT/BUa/xvB/wYJvyD8JYw7M8afoNhjE+YAjdtHMftG3AFCOIRJRxAl2n2nh3sXaFFWfkGaXGDNcEPBkDjDzcVOS7DLKsrPrqQDKOXARN8zUXdN5D2Usm+kHSKJR3DyEZx0CFEOYPI+TN5Hrh3ApH2YvGukb5nTF21PJwZz3e8ZzgFuAOTbG3I+iW4PsYneCuKChrqjT903Ju2aaLsmyh5KOUApRwjlBKLGYMoRQt5HSTsm4raFuI7i1oz4dYS0AVM2oYRtMHG6815XWTqgbVR+RjodSINdJ3a0MDzKrJDmyWRb5lzPs0Uke8WatWp7tmp9ump5topmrcLPV8Hny4asTWv2pjVry5q9ZcnaMGWuGx+to09WzVlR66up/iLfu/Lx95XjgzKvSeroZg83vB5TPg00PZ3verYKv1hDs9cs2avW7GVL1iL6bBHJXNA/XIQeLSKPF02PfqD3Z413o9ZHi7bMJevTZUv2ivmfVdPLKf0bg+AR0FQr+6jXOuBmV5/M0y10dbC9urKgviyClM2Yy+b7WfM25pyNOW/jzFt58xbhrEk0g/IX3nEX33GWBrhLNs6ShbVoYiyYiufMJVMWdtAqdttq7f0N9v4mp7luHJSMdrHt7QxvZ3GklzEPM3+grHkTa9bCnrJwJi2cCRMnhLInzOwpG2faxpqylkTMRVMWxrSlZMZSMmtmzZrYsyZOoI/ZU34faJVKh3ravHBLCFKEYZnXqPKgap9ZFbTUhy21Eas8iFb7EGnAogzYmv39Wo+tw2VpDQ4oQ9basKk2YpRHkJpJWDpplEZQacgk95nVbnO7w9w9btE5zA1Ok9JlrPfCcj9UEwKrJxH5lLF2Aq0LmZV+i9pra3T1t4zZmsf7m90DTb5+td9S70drQiZZ+P+g8jBaGzLVOXtEHax0oFvIHWmqCbSJJ9pYE+0lPp3Q0y32dQn8neV+LdvfznK1MMfb2M7eKpdRPW5pG7Zov5taHIYql07kbhd4W8oDLdyJVs5Ee1lYywxoy3xavldb4W2XubUyR6fI1S3y9YoDPaJglyCo5U1o+eF2QaBd4NGKXN0VLoNsHFENW9pHza0OtNFtqPd0VXrb+ME2XritPNzGDbaX+7Xl3g7ecCOjqTAZ6Cr4Z0iQ6xBmufjpTkHqaOWT4cqno5LHo8IHY/x7o+V3h4WPhqv/GW0sGeut/G5UfUAbPsKKr42Mkfq8kaocu/ilW/IyWPXSK3niFN4bF90bFz5yCJ45+S/tgpdfxM++VWaNSLPHal7Yq56PS7KckmyHKHuEn/VVmD1U9Z+viryhFs4w2jwKaezd8vEmvl1e7BC/cvKz3fxnbn6mQ5g5Ks78LskcED5S5FCA7n8yvjLue0qT/QxcsBTwcUg+NjnIIoZL8eESXIhBcJWQxnkpzvpsV1fpCCz+hFZ9BgXDssxx4R0766azKCnASJ4uS44wKaHS+GApNlyCjxRTJgvp4eIkR0mCvTTBzkxwsOgednKQnRIuSw2WJrmLE+wldHt5mqPq7rjmlddU5zVIvW1cj+yNi/PAmZcUKkyaLKJHimjBEqqXSXGWUd6z6PJ/8AD8NtUrSJ8X0RZFcStiYFGMXRRhV0Rxa0JgTQisCONmBPEhSUJI+STUyfAYKobBmuHuijHJUyf7tqs4MVhMmWVRlvikJRE2KgYWJMCiCFgRxG3w4jfK8VEecY5PmBbgpkS42QrCQiVxuYK8LCZHBeRZEW1amjKlyAi0/sdrrvcbqvwtTG/lMy8zJfAWt1BKXGUT13jEFRExWkGcryTaJUnKt3TgPS9lQZ2+10g91MQda4BDJeZIiTlWAjElcKwEDlTATw1xtTFtoTV7TlcW6at1d2scrXVO8WsP536QlbbAS9qRJR9paPtNuJ/NwHYLsNMMHDYAZyrgUoE5ryPElIR9TfxWE2azOW6r+cZ+E/a4ER9roO43Jm0131xpzZjseuWyaryQzNfC9FU8DpUlzJZg1vnY3UrskQJ/3EQ+aqXsNZOnGtI7yh8B36vSNrTpZ7qEqy7sr07gqpdy2Ue56iNc9eEu9bhzA+FQn7DZd3PRkP0DZUbMVS6odlxX6ah+5hHeCgkSl6oTDpoSz3W0Mz0xBmKP4LgTEHOux/7uwf3VEX93ki+6ibFe/IEBewBiDg1xp/r4817CRQ/1pDdpX39rG7zzw5jrHWzxmxQ+LcctzfRy6RFm3LoUv6ckHLeSTnTUWB/1sJcyq71zXXdUnrrVk34OJvwyxP8B434Z6Vdo4i+U9gulXJrI52bqoSlpC01fNj2ftzEiNrHTWDXWzRuruucU0P0CUlRGOmilnfdSLmDSGYo/McefmXAXRuJvmPwHov6BaJcI5QwlxSz4mAV3ao6/QAlXCPkKTjhDUo/Q9F3TvSVrvn+wLYCqvO1cZ9VTF4ceYMatySl7TZTjLtqpgR6DE44g6pzu7nXdLzL6cu/NQ5h6AmPOkLgYRI+BKTEwMQbRjmHqIULbQVLWkTtRY/a8hRGxiNxwhUPHHZVkOHg0H48wLyXsNlJPu6hnfaSYAX8M4o9BYsxAOe1LOOtLOIcTT5GEE5RybCIdm4gnKOEcIV9CtAso6QS6dQjf2zU+WjYVBi2tIVAVaOG7K5+7OanBMsKqnL7TRD/UJcbApBiceAjRZnX3rutaZWmRvgcr6O1NU+K2KWkTfLRpeLppeLwJPtyE7q9DD5agJ/Pg82m4YMoiDNsUblTl6KsZr89xVj32VN6Zrr+z0f7woPfBvuHuDpi+Dd7ZAu9vgo83DU83wKcbcOY68ngdebhuvLdpvLONZOwh9w/gR/vwsx34n03kzZoxb87E91nb/Uijt6PCVZfvqsz0V2TMq+8vt91f73u4bXy8bXq0hd6P9GRd1wXrHzmhV1O2F3P9mdH+rKixKIqURo3FUWNhFM1fQPOnkcIQxAgaBWGbMjTY6e7XOZBWT4fY3Vji1eRNtuetGIp+okXbpvx1U+6quWDJzIiay35YuHOW8oiJOWkqmUKLZ9H8eePbKJK7guavoUWraOkSyl0wCedNkoi1zj3Y5bW2ufV1jhauQ13g1bwOt+dM9eTMG/MWbYVLAwWLtrygoeC6bqc6f9gqCn4WT3zmT37khy0Vk9bqmYHq2UHpzGDF1DvxxDtJ8F21753C/a7ZOdA1PtDnHOj1WZqCZmXYLJ80V06bhbNm7uJ70eKniskBkdcidlik9v46+3v194G6sXd1rne1wYGaCVvlpEU8bZVM2yonbdIJmzzYrwz0q93vGr8Ptoy+a3L2a/xWRchSO2GpnrBJwwOVwXcVwUFJcFASeidxwYIufibQpOF+sCjHBpXjNrkLlXp6RYFeUcggCoP8IMjx6Zk+kO2H+F5I4oFqXKDCCWpcoMbVV+PWV3r0Qp+eG9CzQn0lEZAVgThePdduEA4bZcP9DcMf2r8MtH6zNo6hShdY49NLQr2CsF4QMggCoNAHSryQ1APVOOGaYbhyDKpwgBK3Xuy9JvJCYjcsdiISF1Lhhiu8UOVIF6+l7D6gbKi0mNo+mdo+9qq+tEnttYXe2rf++lyf4rWn/oWzLtNd/8yrfOFR/sejfONR5Hvqi931DKeiwKHKHVe9dqr+cauyfMqnvvpnnrrnjvrXIw2M4S7xKKKy29q/o23DvaqR1kq7iu2uKwrU5fnrc3yKV27VK5cqx6nKdSrzHKq3dvWr6yhljlvxxqV461Dm21WFo+qiYQ1jRF06pmI6FKzP8kJV4U1A01AxgDR/0Td8apR+rWaNld7xMlP97NQANznATfByiD4O0c8hBTiUADshWJYUYqUEWWkeTqqbm+wqp7vLKZ5yUoBDCJSRAyy6l3PbJclyqYq9uooApHDr5E4Nb0ySO8567C+9M8m6OVGWGGRTfRyKl0vxcqk+Du3/BNgJATY9WJbkZ6d4OGkO7k17+a1RXrq9PMPBzXCzMz6x79XlJgHNDcJPkGZMpxiuE4yW546/IQXysBOM+Oky3CwHO8u9McMGZljALBOYKwV+lAALjBs/SjAzZfhJDi7CxUa4N6a4wCwbmGfFzTMJ0+ykiPhhWPk23MmbNFQHtUKPPH+c9cD5JiH8hrBQEB9l3JgvvQ6cLrs2w7pe51EWsMgEFpk3okzMPCt+ugwfYuP8HLyPgw+w8eEyfISFGy6j171NAto17BGwzt9Z7a1mecpeeApxIeaNGT5uUUpcqyVtKIgb9biNOsx2LWZHht2tid+vxu9VE7frEjYUtDUlZU1FWlcSt+sJO7XUnzVJ67KMBeXTaW3BJCyYtlaH9DyvKsfOve3Kx08VYdbYcbuV2F3Zje1aYKvu2s9aYE8OxGRxMRk2Jos/lOP3aonb9aQVBSGqJCyo8IvK+BUFdr0OE5AlqgvTgA4VaxSqDeiq3PISJ+eJryRuhgesyYj7jQnH7YmxDlqsk3zSSTrtJJ51ks46SOcd5HMt9awz6bQr6URHP9XRzrqol52Uq46Ec23KkfbOpi4rCubPWLjT/RUhg8CnznVzM0KFxCUm7kAUf9lAvuggxHTYmA5z2hV32RH3S4v51Yn/1Un41Um87CSdd5FOdeQjHemgm3jQTTzsJhzp8DEdbq4trYlz+7ruMCj39lSO1RV9595zl1x/pewoiWcdib96ky56qRd95IvrgU78341OOAOJZyD5Qk+90lN/6Sm/+sh/+oh/+/B/9aTfIO0UvrljfLxkzpmxlkSsfH+f0Kt462FnTBWQt8oIZ1WEP1rapYF0jMTHEMw5hPmrx/ztw55D8f/VQm9aqzgDaFeyvxpqnd3S4XrGEPehsxSYEQKbSmKsM+miL+VcTz8z0E5ByilEPoFIMZgUg8kxiHoMJcSghJNr1DOQfA4SLyDKGUI/QG+tm5/M23ImBkoCAzwvLHBocuzltwPFxBUeKVZPPdclxmDKrom4hxIOjYQziHABEk4hwgn8X8z33m6W3AWaFeUf9YqxHvk3NWdI/MLBI0eqSMualJ9dGYfg3UM44wC+tQ+n7SGpu0jqjjF1x5i2Y7z503h725j+03h7B7m1i6TtI8kHxrQ9NH3T/Chq/ScyUOQd5LgGxQ6zZLS1YLjioYebHK1K3W9KP9Df2TbeXLOkrplTNk0pe0jqPpy6i6T8V5P6R42Sh4CmXvjO0DgKNnxvl35TlDprM0OaRzParMW+f1bgl2vGF6to1gr6dNn0dMn0dNH8dNH0bNGUvWh6HjU9j5qfL5qyl0zPVtDMVfOzFcvzBWvOZD/DM8gf+1A1/KH2u03+vad8WJ3rkWfPaZ5vdL5cg15GTdmz1qw5a9aCOWsZzV5BsxdNWf+VB3ytqsj8/2SU5uFdDGbEAAAAAElFTkSuQmCC;" vertex="1" parent="1">
          <mxGeometry x="310" y="500" width="27.62" height="20" as="geometry" />
        </mxCell>
        <mxCell id="mWnzP0U88Y1ZApxrXtzR-24" value="" style="shape=image;verticalLabelPosition=bottom;labelBackgroundColor=default;verticalAlign=top;aspect=fixed;imageAspect=0;image=data:image/png,iVBORw0KGgoAAAANSUhEUgAAADoAAAAqCAIAAABtD9/kAAAaiElEQVRYCYXZZ1daXaM14B1BOog1iaYnJprceRJjrCgISFdRUGl2UbHALmyaxjRTLEivYo/YW+xiT7nf87Pe4Tk/4Bnj+rTGGnPNr3MsQJ1JN+amfCygDxWQv+bjvuQDX/OAr2+xX94Sht5SPuZRBwoTrKVJVsG9D8o3nzu4H3UVQ+2i98yHHwrS3ucmDOVRvuUTv73FfM+9MXwN8z0X9/0N8dsb8pe3+I+FwKcCYCj/xtfrC9jhXMxIPvZbPuZTHmYwn/iekfyJff+9+NWnVun3VumomvdNlPO56O7nV7Th1+SxHNLYW9JwAWWokDpYSOnNTyh/ggc6X9O/cm/5xGnhisRJCXlWCMwLgHkBdlaAnxEQJ4XkoITmrU72qh+GdPkTqCholk1AVV7efX9pkp9BmWSRFnjkJT5+iYdZ4t1Y4t1Y5GGiPNwCD/+Dj50TAvNCYIF/fbhcjlkuj1sTxS+L4+eE2EkhIVKROC27G254HTLWRyD5ZAcvWPPSW3YrUECcYRAWmPilcuKCiDwtIQfFxE+CxNq8ZMBYmuCX31pqTFtvStxqJO2pMfsqzL4St6fC76iIW2ryahM92pY22/VoGnw7gZZ7YYmvqzzATw8zqeFS/A8efruafFhHOlbgjxXYYwXmSIk9UMbvK3H7Kuy+GjhU3jhSYGP18Sd18Sf12HMN4aQBv6vGrauJq02J6+0Z0Z6coKV2ApGGtUyf9ImHSQvlAWtc3L6EcCynHKqpW43kJQ3BpUhp5dwBPkmSF7R3Dw3pJ4aksz7y7x7i327Sn27y727KVQ/tvJd+bEjdgTPWjM8WLQXTVr4XrnB3cv2i9CCHEubio1XE/YaEyw76727a7x7Srx7CVS/hspd40Xftqhf3u4fwp5v8r47yv0j/00f500c66SHsdpO39Uk7cMaK+Y2vXx40Vga0DF/1Qz+bMlUM7FcQLuvJ/7bS//Ykn+npuz2kiPZWl+gBMFSduNyTfoyknCLkMxD7xxD/V4/7q8f/1RN+G4gXICmG0PfQmxumJ8u2gtl+UQCVerv5DmGak4N3c+Omq+O3W6lnevoFRDmH8Wcw9hTBnhixsf91DmMvIdwVSPhlIP02EH8b8L8R/AUSvw/GbRiwKxBpzZQ8b3vhtFW7EZG7vcBdfc/PJc8wgb1K7IUS96+W/K+Bdg6Tdw24SFdqt+QB8LEmca779haUuAuTjhD8JUz+DZJ/g5RfIOUKop7DtCOYvmu8uWl5tmwrnLEKAsaqQJ9ohJ/i4JE8Qvy0nLjZRj8BU87RpFOUcmwkHCDx+0bcvplwaCEdI4RjkBDTE0/6SOd68hVIPocIMQS3b8Rvo+R1M33FkjrX/0/ws9JvrvB0FLjlDzw8cqgE2KzExJT4Xx2U3yD9FKFtG/ChjhQtPwMYkN+a7Hu4ZszYNKXumlP24Fv7UPrBtYx9KGMXztiE764gj6PmnBkLK2CqdCC1zr7qEWnmeOUdV/XtsPL2ovbeT+jRvvnRnuXetun2uvHmKnpr1Zy+Zs7YMN7ahG5v6W/v6DMOwLsx5O4BcnvXmLaFpq2Z05cs939Yn0T6C10fG8dNstGuslHli/HKdC+fEpUnbjWkHOoyDuF7P413lqCb3q77naL7AFr3OAi9XrS+XLFlrfZnL5hzf5gKF0xFUbQ4ihYvmIpmTYxJc1nQKvTYaketzV9Mnd9grb1V5Gxmu1pKA1rGdF9J1Fi6YmMtD5T+sDJmzMWTZsakpXTKVjptLpxFi+bg4ijMWEVLt8zMDXPRqjl/yZL/w1Y008+c7Of63sm/fugdsmo/G+q/dghGmhlOdU64NWdOl7sEFy5ZSuatjIip0NFX0FORCejr37gR7nQ/e8bGmLYWT/aLIzbplLV6xiKbNctnzbJpq3zSVhfsV7psTaO2rm82w7DF4ENag5A6CNWHIfkUKpux1Mz118z0V09YqwMWmd9S57ep/QOqwIAsaK0JmWom0Zo5k2zRIouaK3+YxfMW8Yy1KmKThW0Kz0Dr9/fwt/7eb6b2UVjlNNT49ZKwQTSFiOYsVfMDsukBWdhW4wBF3ZIsoEtRNmKUe201bpPQifA8aLXXWOtH6kOQcgJURQzKCKwMIwofrBgHlcNQ4zdYO4x0euAWH9Tgh1UBuC4AywNIjQ+qdoPVDrDODqnHja1Os87Vr3MPtrhtDS6jygMq/Pq6sEE+oa8K6yvC+oqAQeoFa92gchxqGka7viPtw2DDmKHeBcn8sNRnkATAihAsDRvlQaTOC9WNdFW0l2cCWqVkCGkcNam/GKqHdDx7c4G7Md+rKQqoGGFlyYSCMakujqgLfcpcR/2bUUXeiJox2sgcaygcb8p3NuU5m3JdTTmOhld2zatRzZuRhqKRFs54Z6W7T+GDVT5TlQcSOXXl4y1Mp6bIo8rzq9/4Na/9mtdeTa5bU+DUlDgamPYGpl1dbFflj6ty3A2v/E0vPZrnHvVzr/qlV/Xao8x11+cNyfI0jIdAs0r60dg6gqiGOoSfVQXfhQ+cgrsewT0//16w/E6Ic2ui/FaElxbgJrs5SU5OqpN328m/a+fcspfftPNvjgtSxvmJ4zyak0d38VIdwvv26pd2TZmzq8ZjUHgNFW5t2bgi1y556uDfdfPSvMIUrzjJI0nyiFN9onS/4J6Pf9/Bu+Mov+3gpjq5SR4e3ceneflUL4/q5SV4eInu8hQXN/UjN0PxNg3QaKQf0BYHJB/RFH4TPBgtpPuKEyKshNky6iwTN1MEzBUDCyXAj1JgvhQzV4KbLSHMlZBn8shTBeRwESFUjA0XA1PFwI8iIFqEmSmhBvkP3QqGs7fOY2r19MicSuZYeaY9j+59iw0XABMsIMQFguXABAeYYWIWi/HRItIEgxxhEKcY+Jli7Gzxjdni6+d+MIE5FjBTBkyVxU2yMcNsiuI1GWhSS4aMGjdYNa5+M8a/7WGQp1jkRQFtvZK2WUXeqIzfqMJsSjEb1dj1aty6lLQmpaxX0bYrkzarktZqElZl5DUZYbMG+1Ma/7OSsCpNmql/HNQWe5Bqr63B1V3tUJaO8Z46ihODJYRZbtyiFButjVuou7Ekj1urjt+pIOxUULZqErdk9G0ZbVtG/ikj/pThN2uwG9WY9Rrsak38sgy/LCP4qpNbipKBFpXwG6LwgWKX+j8OfvIEC7fII/ysoR1rEs9a6Wft1FMtMaYlHGuJx1rykZZ2pKUftyddtKWet6ecdCQfd9JjndSzDtKFlnzennDQfmu1+9kUXOQfEPsG61zdleNKxpjgiYuVNMUjr1YTdlsoe13EHR1+vwt/rCVctJKuWqlXHSmXHcmXnUkXXQkXXdRzHeVYSzjU4g+1hAMtaV9L2ddSZ5szdOw7QLuSPwzXBQxCt/qFg58wXQasC4HDesJFO/WPnvYHJv9CCBdI/AWCu0AIFzDpAqZeQbTffeRfevKlgXQOEs5B3JUB8wfC/4EoJ3DqlunxnO1N4APL/17s7RE5lfkjgnsuNnVGQtxSEE56qWcI6QTFnRmxVwj2XxD7Pwbc/9OT/zWQ/oLE3xDuCom/NGJPYcwJjI3BuBOIcAKSTkHyki6jl3cfaFOKvsNKLygZ17weFSZPsIElMbCjJJx00i6hhEsT5dxMPDXjT02EMxPxHKWcG2kXCO3cQDgD8acQ/joRjj+FMOcI/txIPTSnrdsezw7m+D4wvIPl/j6+Q/3mmzB9jEOKVBDXNaRjA/3URD22EE7MuHNT/BUa/xvB/wYJvyD8JYw7M8afoNhjE+YAjdtHMftG3AFCOIRJRxAl2n2nh3sXaFFWfkGaXGDNcEPBkDjDzcVOS7DLKsrPrqQDKOXARN8zUXdN5D2Usm+kHSKJR3DyEZx0CFEOYPI+TN5Hrh3ApH2YvGukb5nTF21PJwZz3e8ZzgFuAOTbG3I+iW4PsYneCuKChrqjT903Ju2aaLsmyh5KOUApRwjlBKLGYMoRQt5HSTsm4raFuI7i1oz4dYS0AVM2oYRtMHG6815XWTqgbVR+RjodSINdJ3a0MDzKrJDmyWRb5lzPs0Uke8WatWp7tmp9ump5topmrcLPV8Hny4asTWv2pjVry5q9ZcnaMGWuGx+to09WzVlR66up/iLfu/Lx95XjgzKvSeroZg83vB5TPg00PZ3verYKv1hDs9cs2avW7GVL1iL6bBHJXNA/XIQeLSKPF02PfqD3Z413o9ZHi7bMJevTZUv2ivmfVdPLKf0bg+AR0FQr+6jXOuBmV5/M0y10dbC9urKgviyClM2Yy+b7WfM25pyNOW/jzFt58xbhrEk0g/IX3nEX33GWBrhLNs6ShbVoYiyYiufMJVMWdtAqdttq7f0N9v4mp7luHJSMdrHt7QxvZ3GklzEPM3+grHkTa9bCnrJwJi2cCRMnhLInzOwpG2faxpqylkTMRVMWxrSlZMZSMmtmzZrYsyZOoI/ZU34faJVKh3ravHBLCFKEYZnXqPKgap9ZFbTUhy21Eas8iFb7EGnAogzYmv39Wo+tw2VpDQ4oQ9basKk2YpRHkJpJWDpplEZQacgk95nVbnO7w9w9btE5zA1Ok9JlrPfCcj9UEwKrJxH5lLF2Aq0LmZV+i9pra3T1t4zZmsf7m90DTb5+td9S70drQiZZ+P+g8jBaGzLVOXtEHax0oFvIHWmqCbSJJ9pYE+0lPp3Q0y32dQn8neV+LdvfznK1MMfb2M7eKpdRPW5pG7Zov5taHIYql07kbhd4W8oDLdyJVs5Ee1lYywxoy3xavldb4W2XubUyR6fI1S3y9YoDPaJglyCo5U1o+eF2QaBd4NGKXN0VLoNsHFENW9pHza0OtNFtqPd0VXrb+ME2XritPNzGDbaX+7Xl3g7ecCOjqTAZ6Cr4Z0iQ6xBmufjpTkHqaOWT4cqno5LHo8IHY/x7o+V3h4WPhqv/GW0sGeut/G5UfUAbPsKKr42Mkfq8kaocu/ilW/IyWPXSK3niFN4bF90bFz5yCJ45+S/tgpdfxM++VWaNSLPHal7Yq56PS7KckmyHKHuEn/VVmD1U9Z+viryhFs4w2jwKaezd8vEmvl1e7BC/cvKz3fxnbn6mQ5g5Ks78LskcED5S5FCA7n8yvjLue0qT/QxcsBTwcUg+NjnIIoZL8eESXIhBcJWQxnkpzvpsV1fpCCz+hFZ9BgXDssxx4R0766azKCnASJ4uS44wKaHS+GApNlyCjxRTJgvp4eIkR0mCvTTBzkxwsOgednKQnRIuSw2WJrmLE+wldHt5mqPq7rjmlddU5zVIvW1cj+yNi/PAmZcUKkyaLKJHimjBEqqXSXGWUd6z6PJ/8AD8NtUrSJ8X0RZFcStiYFGMXRRhV0Rxa0JgTQisCONmBPEhSUJI+STUyfAYKobBmuHuijHJUyf7tqs4MVhMmWVRlvikJRE2KgYWJMCiCFgRxG3w4jfK8VEecY5PmBbgpkS42QrCQiVxuYK8LCZHBeRZEW1amjKlyAi0/sdrrvcbqvwtTG/lMy8zJfAWt1BKXGUT13jEFRExWkGcryTaJUnKt3TgPS9lQZ2+10g91MQda4BDJeZIiTlWAjElcKwEDlTATw1xtTFtoTV7TlcW6at1d2scrXVO8WsP536QlbbAS9qRJR9paPtNuJ/NwHYLsNMMHDYAZyrgUoE5ryPElIR9TfxWE2azOW6r+cZ+E/a4ER9roO43Jm0131xpzZjseuWyaryQzNfC9FU8DpUlzJZg1vnY3UrskQJ/3EQ+aqXsNZOnGtI7yh8B36vSNrTpZ7qEqy7sr07gqpdy2Ue56iNc9eEu9bhzA+FQn7DZd3PRkP0DZUbMVS6odlxX6ah+5hHeCgkSl6oTDpoSz3W0Mz0xBmKP4LgTEHOux/7uwf3VEX93ki+6ibFe/IEBewBiDg1xp/r4817CRQ/1pDdpX39rG7zzw5jrHWzxmxQ+LcctzfRy6RFm3LoUv6ckHLeSTnTUWB/1sJcyq71zXXdUnrrVk34OJvwyxP8B434Z6Vdo4i+U9gulXJrI52bqoSlpC01fNj2ftzEiNrHTWDXWzRuruucU0P0CUlRGOmilnfdSLmDSGYo/McefmXAXRuJvmPwHov6BaJcI5QwlxSz4mAV3ao6/QAlXCPkKTjhDUo/Q9F3TvSVrvn+wLYCqvO1cZ9VTF4ceYMatySl7TZTjLtqpgR6DE44g6pzu7nXdLzL6cu/NQ5h6AmPOkLgYRI+BKTEwMQbRjmHqIULbQVLWkTtRY/a8hRGxiNxwhUPHHZVkOHg0H48wLyXsNlJPu6hnfaSYAX8M4o9BYsxAOe1LOOtLOIcTT5GEE5RybCIdm4gnKOEcIV9CtAso6QS6dQjf2zU+WjYVBi2tIVAVaOG7K5+7OanBMsKqnL7TRD/UJcbApBiceAjRZnX3rutaZWmRvgcr6O1NU+K2KWkTfLRpeLppeLwJPtyE7q9DD5agJ/Pg82m4YMoiDNsUblTl6KsZr89xVj32VN6Zrr+z0f7woPfBvuHuDpi+Dd7ZAu9vgo83DU83wKcbcOY68ngdebhuvLdpvLONZOwh9w/gR/vwsx34n03kzZoxb87E91nb/Uijt6PCVZfvqsz0V2TMq+8vt91f73u4bXy8bXq0hd6P9GRd1wXrHzmhV1O2F3P9mdH+rKixKIqURo3FUWNhFM1fQPOnkcIQxAgaBWGbMjTY6e7XOZBWT4fY3Vji1eRNtuetGIp+okXbpvx1U+6quWDJzIiay35YuHOW8oiJOWkqmUKLZ9H8eePbKJK7guavoUWraOkSyl0wCedNkoi1zj3Y5bW2ufV1jhauQ13g1bwOt+dM9eTMG/MWbYVLAwWLtrygoeC6bqc6f9gqCn4WT3zmT37khy0Vk9bqmYHq2UHpzGDF1DvxxDtJ8F21753C/a7ZOdA1PtDnHOj1WZqCZmXYLJ80V06bhbNm7uJ70eKniskBkdcidlik9v46+3v194G6sXd1rne1wYGaCVvlpEU8bZVM2yonbdIJmzzYrwz0q93vGr8Ptoy+a3L2a/xWRchSO2GpnrBJwwOVwXcVwUFJcFASeidxwYIufibQpOF+sCjHBpXjNrkLlXp6RYFeUcggCoP8IMjx6Zk+kO2H+F5I4oFqXKDCCWpcoMbVV+PWV3r0Qp+eG9CzQn0lEZAVgThePdduEA4bZcP9DcMf2r8MtH6zNo6hShdY49NLQr2CsF4QMggCoNAHSryQ1APVOOGaYbhyDKpwgBK3Xuy9JvJCYjcsdiISF1Lhhiu8UOVIF6+l7D6gbKi0mNo+mdo+9qq+tEnttYXe2rf++lyf4rWn/oWzLtNd/8yrfOFR/sejfONR5Hvqi931DKeiwKHKHVe9dqr+cauyfMqnvvpnnrrnjvrXIw2M4S7xKKKy29q/o23DvaqR1kq7iu2uKwrU5fnrc3yKV27VK5cqx6nKdSrzHKq3dvWr6yhljlvxxqV461Dm21WFo+qiYQ1jRF06pmI6FKzP8kJV4U1A01AxgDR/0Td8apR+rWaNld7xMlP97NQANznATfByiD4O0c8hBTiUADshWJYUYqUEWWkeTqqbm+wqp7vLKZ5yUoBDCJSRAyy6l3PbJclyqYq9uooApHDr5E4Nb0ySO8567C+9M8m6OVGWGGRTfRyKl0vxcqk+Du3/BNgJATY9WJbkZ6d4OGkO7k17+a1RXrq9PMPBzXCzMz6x79XlJgHNDcJPkGZMpxiuE4yW546/IQXysBOM+Oky3CwHO8u9McMGZljALBOYKwV+lAALjBs/SjAzZfhJDi7CxUa4N6a4wCwbmGfFzTMJ0+ykiPhhWPk23MmbNFQHtUKPPH+c9cD5JiH8hrBQEB9l3JgvvQ6cLrs2w7pe51EWsMgEFpk3okzMPCt+ugwfYuP8HLyPgw+w8eEyfISFGy6j171NAto17BGwzt9Z7a1mecpeeApxIeaNGT5uUUpcqyVtKIgb9biNOsx2LWZHht2tid+vxu9VE7frEjYUtDUlZU1FWlcSt+sJO7XUnzVJ67KMBeXTaW3BJCyYtlaH9DyvKsfOve3Kx08VYdbYcbuV2F3Zje1aYKvu2s9aYE8OxGRxMRk2Jos/lOP3aonb9aQVBSGqJCyo8IvK+BUFdr0OE5AlqgvTgA4VaxSqDeiq3PISJ+eJryRuhgesyYj7jQnH7YmxDlqsk3zSSTrtJJ51ks46SOcd5HMt9awz6bQr6URHP9XRzrqol52Uq46Ec23KkfbOpi4rCubPWLjT/RUhg8CnznVzM0KFxCUm7kAUf9lAvuggxHTYmA5z2hV32RH3S4v51Yn/1Un41Um87CSdd5FOdeQjHemgm3jQTTzsJhzp8DEdbq4trYlz+7ruMCj39lSO1RV9595zl1x/pewoiWcdib96ky56qRd95IvrgU78341OOAOJZyD5Qk+90lN/6Sm/+sh/+oh/+/B/9aTfIO0UvrljfLxkzpmxlkSsfH+f0Kt462FnTBWQt8oIZ1WEP1rapYF0jMTHEMw5hPmrx/ztw55D8f/VQm9aqzgDaFeyvxpqnd3S4XrGEPehsxSYEQKbSmKsM+miL+VcTz8z0E5ByilEPoFIMZgUg8kxiHoMJcSghJNr1DOQfA4SLyDKGUI/QG+tm5/M23ImBkoCAzwvLHBocuzltwPFxBUeKVZPPdclxmDKrom4hxIOjYQziHABEk4hwgn8X8z33m6W3AWaFeUf9YqxHvk3NWdI/MLBI0eqSMualJ9dGYfg3UM44wC+tQ+n7SGpu0jqjjF1x5i2Y7z503h725j+03h7B7m1i6TtI8kHxrQ9NH3T/Chq/ScyUOQd5LgGxQ6zZLS1YLjioYebHK1K3W9KP9Df2TbeXLOkrplTNk0pe0jqPpy6i6T8V5P6R42Sh4CmXvjO0DgKNnxvl35TlDprM0OaRzParMW+f1bgl2vGF6to1gr6dNn0dMn0dNH8dNH0bNGUvWh6HjU9j5qfL5qyl0zPVtDMVfOzFcvzBWvOZD/DM8gf+1A1/KH2u03+vad8WJ3rkWfPaZ5vdL5cg15GTdmz1qw5a9aCOWsZzV5BsxdNWf+VB3ytqsj8/2SU5uFdDGbEAAAAAElFTkSuQmCC;" vertex="1" parent="1">
          <mxGeometry x="394.76" y="450" width="27.62" height="20" as="geometry" />
        </mxCell>
        <mxCell id="mWnzP0U88Y1ZApxrXtzR-25" value="" style="shape=image;verticalLabelPosition=bottom;labelBackgroundColor=default;verticalAlign=top;aspect=fixed;imageAspect=0;image=data:image/png,iVBORw0KGgoAAAANSUhEUgAAADoAAAAqCAIAAABtD9/kAAAaiElEQVRYCYXZZ1daXaM14B1BOog1iaYnJprceRJjrCgISFdRUGl2UbHALmyaxjRTLEivYo/YW+xiT7nf87Pe4Tk/4Bnj+rTGGnPNr3MsQJ1JN+amfCygDxWQv+bjvuQDX/OAr2+xX94Sht5SPuZRBwoTrKVJVsG9D8o3nzu4H3UVQ+2i98yHHwrS3ucmDOVRvuUTv73FfM+9MXwN8z0X9/0N8dsb8pe3+I+FwKcCYCj/xtfrC9jhXMxIPvZbPuZTHmYwn/iekfyJff+9+NWnVun3VumomvdNlPO56O7nV7Th1+SxHNLYW9JwAWWokDpYSOnNTyh/ggc6X9O/cm/5xGnhisRJCXlWCMwLgHkBdlaAnxEQJ4XkoITmrU72qh+GdPkTqCholk1AVV7efX9pkp9BmWSRFnjkJT5+iYdZ4t1Y4t1Y5GGiPNwCD/+Dj50TAvNCYIF/fbhcjlkuj1sTxS+L4+eE2EkhIVKROC27G254HTLWRyD5ZAcvWPPSW3YrUECcYRAWmPilcuKCiDwtIQfFxE+CxNq8ZMBYmuCX31pqTFtvStxqJO2pMfsqzL4St6fC76iIW2ryahM92pY22/VoGnw7gZZ7YYmvqzzATw8zqeFS/A8efruafFhHOlbgjxXYYwXmSIk9UMbvK3H7Kuy+GjhU3jhSYGP18Sd18Sf12HMN4aQBv6vGrauJq02J6+0Z0Z6coKV2ApGGtUyf9ImHSQvlAWtc3L6EcCynHKqpW43kJQ3BpUhp5dwBPkmSF7R3Dw3pJ4aksz7y7x7i327Sn27y727KVQ/tvJd+bEjdgTPWjM8WLQXTVr4XrnB3cv2i9CCHEubio1XE/YaEyw76727a7x7Srx7CVS/hspd40Xftqhf3u4fwp5v8r47yv0j/00f500c66SHsdpO39Uk7cMaK+Y2vXx40Vga0DF/1Qz+bMlUM7FcQLuvJ/7bS//Ykn+npuz2kiPZWl+gBMFSduNyTfoyknCLkMxD7xxD/V4/7q8f/1RN+G4gXICmG0PfQmxumJ8u2gtl+UQCVerv5DmGak4N3c+Omq+O3W6lnevoFRDmH8Wcw9hTBnhixsf91DmMvIdwVSPhlIP02EH8b8L8R/AUSvw/GbRiwKxBpzZQ8b3vhtFW7EZG7vcBdfc/PJc8wgb1K7IUS96+W/K+Bdg6Tdw24SFdqt+QB8LEmca779haUuAuTjhD8JUz+DZJ/g5RfIOUKop7DtCOYvmu8uWl5tmwrnLEKAsaqQJ9ohJ/i4JE8Qvy0nLjZRj8BU87RpFOUcmwkHCDx+0bcvplwaCEdI4RjkBDTE0/6SOd68hVIPocIMQS3b8Rvo+R1M33FkjrX/0/ws9JvrvB0FLjlDzw8cqgE2KzExJT4Xx2U3yD9FKFtG/ChjhQtPwMYkN+a7Hu4ZszYNKXumlP24Fv7UPrBtYx9KGMXztiE764gj6PmnBkLK2CqdCC1zr7qEWnmeOUdV/XtsPL2ovbeT+jRvvnRnuXetun2uvHmKnpr1Zy+Zs7YMN7ahG5v6W/v6DMOwLsx5O4BcnvXmLaFpq2Z05cs939Yn0T6C10fG8dNstGuslHli/HKdC+fEpUnbjWkHOoyDuF7P413lqCb3q77naL7AFr3OAi9XrS+XLFlrfZnL5hzf5gKF0xFUbQ4ihYvmIpmTYxJc1nQKvTYaketzV9Mnd9grb1V5Gxmu1pKA1rGdF9J1Fi6YmMtD5T+sDJmzMWTZsakpXTKVjptLpxFi+bg4ijMWEVLt8zMDXPRqjl/yZL/w1Y008+c7Of63sm/fugdsmo/G+q/dghGmhlOdU64NWdOl7sEFy5ZSuatjIip0NFX0FORCejr37gR7nQ/e8bGmLYWT/aLIzbplLV6xiKbNctnzbJpq3zSVhfsV7psTaO2rm82w7DF4ENag5A6CNWHIfkUKpux1Mz118z0V09YqwMWmd9S57ep/QOqwIAsaK0JmWom0Zo5k2zRIouaK3+YxfMW8Yy1KmKThW0Kz0Dr9/fwt/7eb6b2UVjlNNT49ZKwQTSFiOYsVfMDsukBWdhW4wBF3ZIsoEtRNmKUe201bpPQifA8aLXXWOtH6kOQcgJURQzKCKwMIwofrBgHlcNQ4zdYO4x0euAWH9Tgh1UBuC4AywNIjQ+qdoPVDrDODqnHja1Os87Vr3MPtrhtDS6jygMq/Pq6sEE+oa8K6yvC+oqAQeoFa92gchxqGka7viPtw2DDmKHeBcn8sNRnkATAihAsDRvlQaTOC9WNdFW0l2cCWqVkCGkcNam/GKqHdDx7c4G7Md+rKQqoGGFlyYSCMakujqgLfcpcR/2bUUXeiJox2sgcaygcb8p3NuU5m3JdTTmOhld2zatRzZuRhqKRFs54Z6W7T+GDVT5TlQcSOXXl4y1Mp6bIo8rzq9/4Na/9mtdeTa5bU+DUlDgamPYGpl1dbFflj6ty3A2v/E0vPZrnHvVzr/qlV/Xao8x11+cNyfI0jIdAs0r60dg6gqiGOoSfVQXfhQ+cgrsewT0//16w/E6Ic2ui/FaElxbgJrs5SU5OqpN328m/a+fcspfftPNvjgtSxvmJ4zyak0d38VIdwvv26pd2TZmzq8ZjUHgNFW5t2bgi1y556uDfdfPSvMIUrzjJI0nyiFN9onS/4J6Pf9/Bu+Mov+3gpjq5SR4e3ceneflUL4/q5SV4eInu8hQXN/UjN0PxNg3QaKQf0BYHJB/RFH4TPBgtpPuKEyKshNky6iwTN1MEzBUDCyXAj1JgvhQzV4KbLSHMlZBn8shTBeRwESFUjA0XA1PFwI8iIFqEmSmhBvkP3QqGs7fOY2r19MicSuZYeaY9j+59iw0XABMsIMQFguXABAeYYWIWi/HRItIEgxxhEKcY+Jli7Gzxjdni6+d+MIE5FjBTBkyVxU2yMcNsiuI1GWhSS4aMGjdYNa5+M8a/7WGQp1jkRQFtvZK2WUXeqIzfqMJsSjEb1dj1aty6lLQmpaxX0bYrkzarktZqElZl5DUZYbMG+1Ma/7OSsCpNmql/HNQWe5Bqr63B1V3tUJaO8Z46ihODJYRZbtyiFButjVuou7Ekj1urjt+pIOxUULZqErdk9G0ZbVtG/ikj/pThN2uwG9WY9Rrsak38sgy/LCP4qpNbipKBFpXwG6LwgWKX+j8OfvIEC7fII/ysoR1rEs9a6Wft1FMtMaYlHGuJx1rykZZ2pKUftyddtKWet6ecdCQfd9JjndSzDtKFlnzennDQfmu1+9kUXOQfEPsG61zdleNKxpjgiYuVNMUjr1YTdlsoe13EHR1+vwt/rCVctJKuWqlXHSmXHcmXnUkXXQkXXdRzHeVYSzjU4g+1hAMtaV9L2ddSZ5szdOw7QLuSPwzXBQxCt/qFg58wXQasC4HDesJFO/WPnvYHJv9CCBdI/AWCu0AIFzDpAqZeQbTffeRfevKlgXQOEs5B3JUB8wfC/4EoJ3DqlunxnO1N4APL/17s7RE5lfkjgnsuNnVGQtxSEE56qWcI6QTFnRmxVwj2XxD7Pwbc/9OT/zWQ/oLE3xDuCom/NGJPYcwJjI3BuBOIcAKSTkHyki6jl3cfaFOKvsNKLygZ17weFSZPsIElMbCjJJx00i6hhEsT5dxMPDXjT02EMxPxHKWcG2kXCO3cQDgD8acQ/joRjj+FMOcI/txIPTSnrdsezw7m+D4wvIPl/j6+Q/3mmzB9jEOKVBDXNaRjA/3URD22EE7MuHNT/BUa/xvB/wYJvyD8JYw7M8afoNhjE+YAjdtHMftG3AFCOIRJRxAl2n2nh3sXaFFWfkGaXGDNcEPBkDjDzcVOS7DLKsrPrqQDKOXARN8zUXdN5D2Usm+kHSKJR3DyEZx0CFEOYPI+TN5Hrh3ApH2YvGukb5nTF21PJwZz3e8ZzgFuAOTbG3I+iW4PsYneCuKChrqjT903Ju2aaLsmyh5KOUApRwjlBKLGYMoRQt5HSTsm4raFuI7i1oz4dYS0AVM2oYRtMHG6815XWTqgbVR+RjodSINdJ3a0MDzKrJDmyWRb5lzPs0Uke8WatWp7tmp9ump5topmrcLPV8Hny4asTWv2pjVry5q9ZcnaMGWuGx+to09WzVlR66up/iLfu/Lx95XjgzKvSeroZg83vB5TPg00PZ3verYKv1hDs9cs2avW7GVL1iL6bBHJXNA/XIQeLSKPF02PfqD3Z413o9ZHi7bMJevTZUv2ivmfVdPLKf0bg+AR0FQr+6jXOuBmV5/M0y10dbC9urKgviyClM2Yy+b7WfM25pyNOW/jzFt58xbhrEk0g/IX3nEX33GWBrhLNs6ShbVoYiyYiufMJVMWdtAqdttq7f0N9v4mp7luHJSMdrHt7QxvZ3GklzEPM3+grHkTa9bCnrJwJi2cCRMnhLInzOwpG2faxpqylkTMRVMWxrSlZMZSMmtmzZrYsyZOoI/ZU34faJVKh3ravHBLCFKEYZnXqPKgap9ZFbTUhy21Eas8iFb7EGnAogzYmv39Wo+tw2VpDQ4oQ9basKk2YpRHkJpJWDpplEZQacgk95nVbnO7w9w9btE5zA1Ok9JlrPfCcj9UEwKrJxH5lLF2Aq0LmZV+i9pra3T1t4zZmsf7m90DTb5+td9S70drQiZZ+P+g8jBaGzLVOXtEHax0oFvIHWmqCbSJJ9pYE+0lPp3Q0y32dQn8neV+LdvfznK1MMfb2M7eKpdRPW5pG7Zov5taHIYql07kbhd4W8oDLdyJVs5Ee1lYywxoy3xavldb4W2XubUyR6fI1S3y9YoDPaJglyCo5U1o+eF2QaBd4NGKXN0VLoNsHFENW9pHza0OtNFtqPd0VXrb+ME2XritPNzGDbaX+7Xl3g7ecCOjqTAZ6Cr4Z0iQ6xBmufjpTkHqaOWT4cqno5LHo8IHY/x7o+V3h4WPhqv/GW0sGeut/G5UfUAbPsKKr42Mkfq8kaocu/ilW/IyWPXSK3niFN4bF90bFz5yCJ45+S/tgpdfxM++VWaNSLPHal7Yq56PS7KckmyHKHuEn/VVmD1U9Z+viryhFs4w2jwKaezd8vEmvl1e7BC/cvKz3fxnbn6mQ5g5Ks78LskcED5S5FCA7n8yvjLue0qT/QxcsBTwcUg+NjnIIoZL8eESXIhBcJWQxnkpzvpsV1fpCCz+hFZ9BgXDssxx4R0766azKCnASJ4uS44wKaHS+GApNlyCjxRTJgvp4eIkR0mCvTTBzkxwsOgednKQnRIuSw2WJrmLE+wldHt5mqPq7rjmlddU5zVIvW1cj+yNi/PAmZcUKkyaLKJHimjBEqqXSXGWUd6z6PJ/8AD8NtUrSJ8X0RZFcStiYFGMXRRhV0Rxa0JgTQisCONmBPEhSUJI+STUyfAYKobBmuHuijHJUyf7tqs4MVhMmWVRlvikJRE2KgYWJMCiCFgRxG3w4jfK8VEecY5PmBbgpkS42QrCQiVxuYK8LCZHBeRZEW1amjKlyAi0/sdrrvcbqvwtTG/lMy8zJfAWt1BKXGUT13jEFRExWkGcryTaJUnKt3TgPS9lQZ2+10g91MQda4BDJeZIiTlWAjElcKwEDlTATw1xtTFtoTV7TlcW6at1d2scrXVO8WsP536QlbbAS9qRJR9paPtNuJ/NwHYLsNMMHDYAZyrgUoE5ryPElIR9TfxWE2azOW6r+cZ+E/a4ER9roO43Jm0131xpzZjseuWyaryQzNfC9FU8DpUlzJZg1vnY3UrskQJ/3EQ+aqXsNZOnGtI7yh8B36vSNrTpZ7qEqy7sr07gqpdy2Ue56iNc9eEu9bhzA+FQn7DZd3PRkP0DZUbMVS6odlxX6ah+5hHeCgkSl6oTDpoSz3W0Mz0xBmKP4LgTEHOux/7uwf3VEX93ki+6ibFe/IEBewBiDg1xp/r4817CRQ/1pDdpX39rG7zzw5jrHWzxmxQ+LcctzfRy6RFm3LoUv6ckHLeSTnTUWB/1sJcyq71zXXdUnrrVk34OJvwyxP8B434Z6Vdo4i+U9gulXJrI52bqoSlpC01fNj2ftzEiNrHTWDXWzRuruucU0P0CUlRGOmilnfdSLmDSGYo/McefmXAXRuJvmPwHov6BaJcI5QwlxSz4mAV3ao6/QAlXCPkKTjhDUo/Q9F3TvSVrvn+wLYCqvO1cZ9VTF4ceYMatySl7TZTjLtqpgR6DE44g6pzu7nXdLzL6cu/NQ5h6AmPOkLgYRI+BKTEwMQbRjmHqIULbQVLWkTtRY/a8hRGxiNxwhUPHHZVkOHg0H48wLyXsNlJPu6hnfaSYAX8M4o9BYsxAOe1LOOtLOIcTT5GEE5RybCIdm4gnKOEcIV9CtAso6QS6dQjf2zU+WjYVBi2tIVAVaOG7K5+7OanBMsKqnL7TRD/UJcbApBiceAjRZnX3rutaZWmRvgcr6O1NU+K2KWkTfLRpeLppeLwJPtyE7q9DD5agJ/Pg82m4YMoiDNsUblTl6KsZr89xVj32VN6Zrr+z0f7woPfBvuHuDpi+Dd7ZAu9vgo83DU83wKcbcOY68ngdebhuvLdpvLONZOwh9w/gR/vwsx34n03kzZoxb87E91nb/Uijt6PCVZfvqsz0V2TMq+8vt91f73u4bXy8bXq0hd6P9GRd1wXrHzmhV1O2F3P9mdH+rKixKIqURo3FUWNhFM1fQPOnkcIQxAgaBWGbMjTY6e7XOZBWT4fY3Vji1eRNtuetGIp+okXbpvx1U+6quWDJzIiay35YuHOW8oiJOWkqmUKLZ9H8eePbKJK7guavoUWraOkSyl0wCedNkoi1zj3Y5bW2ufV1jhauQ13g1bwOt+dM9eTMG/MWbYVLAwWLtrygoeC6bqc6f9gqCn4WT3zmT37khy0Vk9bqmYHq2UHpzGDF1DvxxDtJ8F21753C/a7ZOdA1PtDnHOj1WZqCZmXYLJ80V06bhbNm7uJ70eKniskBkdcidlik9v46+3v194G6sXd1rne1wYGaCVvlpEU8bZVM2yonbdIJmzzYrwz0q93vGr8Ptoy+a3L2a/xWRchSO2GpnrBJwwOVwXcVwUFJcFASeidxwYIufibQpOF+sCjHBpXjNrkLlXp6RYFeUcggCoP8IMjx6Zk+kO2H+F5I4oFqXKDCCWpcoMbVV+PWV3r0Qp+eG9CzQn0lEZAVgThePdduEA4bZcP9DcMf2r8MtH6zNo6hShdY49NLQr2CsF4QMggCoNAHSryQ1APVOOGaYbhyDKpwgBK3Xuy9JvJCYjcsdiISF1Lhhiu8UOVIF6+l7D6gbKi0mNo+mdo+9qq+tEnttYXe2rf++lyf4rWn/oWzLtNd/8yrfOFR/sejfONR5Hvqi931DKeiwKHKHVe9dqr+cauyfMqnvvpnnrrnjvrXIw2M4S7xKKKy29q/o23DvaqR1kq7iu2uKwrU5fnrc3yKV27VK5cqx6nKdSrzHKq3dvWr6yhljlvxxqV461Dm21WFo+qiYQ1jRF06pmI6FKzP8kJV4U1A01AxgDR/0Td8apR+rWaNld7xMlP97NQANznATfByiD4O0c8hBTiUADshWJYUYqUEWWkeTqqbm+wqp7vLKZ5yUoBDCJSRAyy6l3PbJclyqYq9uooApHDr5E4Nb0ySO8567C+9M8m6OVGWGGRTfRyKl0vxcqk+Du3/BNgJATY9WJbkZ6d4OGkO7k17+a1RXrq9PMPBzXCzMz6x79XlJgHNDcJPkGZMpxiuE4yW546/IQXysBOM+Oky3CwHO8u9McMGZljALBOYKwV+lAALjBs/SjAzZfhJDi7CxUa4N6a4wCwbmGfFzTMJ0+ykiPhhWPk23MmbNFQHtUKPPH+c9cD5JiH8hrBQEB9l3JgvvQ6cLrs2w7pe51EWsMgEFpk3okzMPCt+ugwfYuP8HLyPgw+w8eEyfISFGy6j171NAto17BGwzt9Z7a1mecpeeApxIeaNGT5uUUpcqyVtKIgb9biNOsx2LWZHht2tid+vxu9VE7frEjYUtDUlZU1FWlcSt+sJO7XUnzVJ67KMBeXTaW3BJCyYtlaH9DyvKsfOve3Kx08VYdbYcbuV2F3Zje1aYKvu2s9aYE8OxGRxMRk2Jos/lOP3aonb9aQVBSGqJCyo8IvK+BUFdr0OE5AlqgvTgA4VaxSqDeiq3PISJ+eJryRuhgesyYj7jQnH7YmxDlqsk3zSSTrtJJ51ks46SOcd5HMt9awz6bQr6URHP9XRzrqol52Uq46Ec23KkfbOpi4rCubPWLjT/RUhg8CnznVzM0KFxCUm7kAUf9lAvuggxHTYmA5z2hV32RH3S4v51Yn/1Un41Um87CSdd5FOdeQjHemgm3jQTTzsJhzp8DEdbq4trYlz+7ruMCj39lSO1RV9595zl1x/pewoiWcdib96ky56qRd95IvrgU78341OOAOJZyD5Qk+90lN/6Sm/+sh/+oh/+/B/9aTfIO0UvrljfLxkzpmxlkSsfH+f0Kt462FnTBWQt8oIZ1WEP1rapYF0jMTHEMw5hPmrx/ztw55D8f/VQm9aqzgDaFeyvxpqnd3S4XrGEPehsxSYEQKbSmKsM+miL+VcTz8z0E5ByilEPoFIMZgUg8kxiHoMJcSghJNr1DOQfA4SLyDKGUI/QG+tm5/M23ImBkoCAzwvLHBocuzltwPFxBUeKVZPPdclxmDKrom4hxIOjYQziHABEk4hwgn8X8z33m6W3AWaFeUf9YqxHvk3NWdI/MLBI0eqSMualJ9dGYfg3UM44wC+tQ+n7SGpu0jqjjF1x5i2Y7z503h725j+03h7B7m1i6TtI8kHxrQ9NH3T/Chq/ScyUOQd5LgGxQ6zZLS1YLjioYebHK1K3W9KP9Df2TbeXLOkrplTNk0pe0jqPpy6i6T8V5P6R42Sh4CmXvjO0DgKNnxvl35TlDprM0OaRzParMW+f1bgl2vGF6to1gr6dNn0dMn0dNH8dNH0bNGUvWh6HjU9j5qfL5qyl0zPVtDMVfOzFcvzBWvOZD/DM8gf+1A1/KH2u03+vad8WJ3rkWfPaZ5vdL5cg15GTdmz1qw5a9aCOWsZzV5BsxdNWf+VB3ytqsj8/2SU5uFdDGbEAAAAAElFTkSuQmCC;" vertex="1" parent="1">
          <mxGeometry x="464.76" y="450" width="27.62" height="20" as="geometry" />
        </mxCell>
        <mxCell id="mWnzP0U88Y1ZApxrXtzR-28" value="" style="shape=image;verticalLabelPosition=bottom;labelBackgroundColor=default;verticalAlign=top;aspect=fixed;imageAspect=0;image=data:image/png,iVBORw0KGgoAAAANSUhEUgAAADoAAAAqCAIAAABtD9/kAAAaiElEQVRYCYXZZ1daXaM14B1BOog1iaYnJprceRJjrCgISFdRUGl2UbHALmyaxjRTLEivYo/YW+xiT7nf87Pe4Tk/4Bnj+rTGGnPNr3MsQJ1JN+amfCygDxWQv+bjvuQDX/OAr2+xX94Sht5SPuZRBwoTrKVJVsG9D8o3nzu4H3UVQ+2i98yHHwrS3ucmDOVRvuUTv73FfM+9MXwN8z0X9/0N8dsb8pe3+I+FwKcCYCj/xtfrC9jhXMxIPvZbPuZTHmYwn/iekfyJff+9+NWnVun3VumomvdNlPO56O7nV7Th1+SxHNLYW9JwAWWokDpYSOnNTyh/ggc6X9O/cm/5xGnhisRJCXlWCMwLgHkBdlaAnxEQJ4XkoITmrU72qh+GdPkTqCholk1AVV7efX9pkp9BmWSRFnjkJT5+iYdZ4t1Y4t1Y5GGiPNwCD/+Dj50TAvNCYIF/fbhcjlkuj1sTxS+L4+eE2EkhIVKROC27G254HTLWRyD5ZAcvWPPSW3YrUECcYRAWmPilcuKCiDwtIQfFxE+CxNq8ZMBYmuCX31pqTFtvStxqJO2pMfsqzL4St6fC76iIW2ryahM92pY22/VoGnw7gZZ7YYmvqzzATw8zqeFS/A8efruafFhHOlbgjxXYYwXmSIk9UMbvK3H7Kuy+GjhU3jhSYGP18Sd18Sf12HMN4aQBv6vGrauJq02J6+0Z0Z6coKV2ApGGtUyf9ImHSQvlAWtc3L6EcCynHKqpW43kJQ3BpUhp5dwBPkmSF7R3Dw3pJ4aksz7y7x7i327Sn27y727KVQ/tvJd+bEjdgTPWjM8WLQXTVr4XrnB3cv2i9CCHEubio1XE/YaEyw76727a7x7Srx7CVS/hspd40Xftqhf3u4fwp5v8r47yv0j/00f500c66SHsdpO39Uk7cMaK+Y2vXx40Vga0DF/1Qz+bMlUM7FcQLuvJ/7bS//Ykn+npuz2kiPZWl+gBMFSduNyTfoyknCLkMxD7xxD/V4/7q8f/1RN+G4gXICmG0PfQmxumJ8u2gtl+UQCVerv5DmGak4N3c+Omq+O3W6lnevoFRDmH8Wcw9hTBnhixsf91DmMvIdwVSPhlIP02EH8b8L8R/AUSvw/GbRiwKxBpzZQ8b3vhtFW7EZG7vcBdfc/PJc8wgb1K7IUS96+W/K+Bdg6Tdw24SFdqt+QB8LEmca779haUuAuTjhD8JUz+DZJ/g5RfIOUKop7DtCOYvmu8uWl5tmwrnLEKAsaqQJ9ohJ/i4JE8Qvy0nLjZRj8BU87RpFOUcmwkHCDx+0bcvplwaCEdI4RjkBDTE0/6SOd68hVIPocIMQS3b8Rvo+R1M33FkjrX/0/ws9JvrvB0FLjlDzw8cqgE2KzExJT4Xx2U3yD9FKFtG/ChjhQtPwMYkN+a7Hu4ZszYNKXumlP24Fv7UPrBtYx9KGMXztiE764gj6PmnBkLK2CqdCC1zr7qEWnmeOUdV/XtsPL2ovbeT+jRvvnRnuXetun2uvHmKnpr1Zy+Zs7YMN7ahG5v6W/v6DMOwLsx5O4BcnvXmLaFpq2Z05cs939Yn0T6C10fG8dNstGuslHli/HKdC+fEpUnbjWkHOoyDuF7P413lqCb3q77naL7AFr3OAi9XrS+XLFlrfZnL5hzf5gKF0xFUbQ4ihYvmIpmTYxJc1nQKvTYaketzV9Mnd9grb1V5Gxmu1pKA1rGdF9J1Fi6YmMtD5T+sDJmzMWTZsakpXTKVjptLpxFi+bg4ijMWEVLt8zMDXPRqjl/yZL/w1Y008+c7Of63sm/fugdsmo/G+q/dghGmhlOdU64NWdOl7sEFy5ZSuatjIip0NFX0FORCejr37gR7nQ/e8bGmLYWT/aLIzbplLV6xiKbNctnzbJpq3zSVhfsV7psTaO2rm82w7DF4ENag5A6CNWHIfkUKpux1Mz118z0V09YqwMWmd9S57ep/QOqwIAsaK0JmWom0Zo5k2zRIouaK3+YxfMW8Yy1KmKThW0Kz0Dr9/fwt/7eb6b2UVjlNNT49ZKwQTSFiOYsVfMDsukBWdhW4wBF3ZIsoEtRNmKUe201bpPQifA8aLXXWOtH6kOQcgJURQzKCKwMIwofrBgHlcNQ4zdYO4x0euAWH9Tgh1UBuC4AywNIjQ+qdoPVDrDODqnHja1Os87Vr3MPtrhtDS6jygMq/Pq6sEE+oa8K6yvC+oqAQeoFa92gchxqGka7viPtw2DDmKHeBcn8sNRnkATAihAsDRvlQaTOC9WNdFW0l2cCWqVkCGkcNam/GKqHdDx7c4G7Md+rKQqoGGFlyYSCMakujqgLfcpcR/2bUUXeiJox2sgcaygcb8p3NuU5m3JdTTmOhld2zatRzZuRhqKRFs54Z6W7T+GDVT5TlQcSOXXl4y1Mp6bIo8rzq9/4Na/9mtdeTa5bU+DUlDgamPYGpl1dbFflj6ty3A2v/E0vPZrnHvVzr/qlV/Xao8x11+cNyfI0jIdAs0r60dg6gqiGOoSfVQXfhQ+cgrsewT0//16w/E6Ic2ui/FaElxbgJrs5SU5OqpN328m/a+fcspfftPNvjgtSxvmJ4zyak0d38VIdwvv26pd2TZmzq8ZjUHgNFW5t2bgi1y556uDfdfPSvMIUrzjJI0nyiFN9onS/4J6Pf9/Bu+Mov+3gpjq5SR4e3ceneflUL4/q5SV4eInu8hQXN/UjN0PxNg3QaKQf0BYHJB/RFH4TPBgtpPuKEyKshNky6iwTN1MEzBUDCyXAj1JgvhQzV4KbLSHMlZBn8shTBeRwESFUjA0XA1PFwI8iIFqEmSmhBvkP3QqGs7fOY2r19MicSuZYeaY9j+59iw0XABMsIMQFguXABAeYYWIWi/HRItIEgxxhEKcY+Jli7Gzxjdni6+d+MIE5FjBTBkyVxU2yMcNsiuI1GWhSS4aMGjdYNa5+M8a/7WGQp1jkRQFtvZK2WUXeqIzfqMJsSjEb1dj1aty6lLQmpaxX0bYrkzarktZqElZl5DUZYbMG+1Ma/7OSsCpNmql/HNQWe5Bqr63B1V3tUJaO8Z46ihODJYRZbtyiFButjVuou7Ekj1urjt+pIOxUULZqErdk9G0ZbVtG/ikj/pThN2uwG9WY9Rrsak38sgy/LCP4qpNbipKBFpXwG6LwgWKX+j8OfvIEC7fII/ysoR1rEs9a6Wft1FMtMaYlHGuJx1rykZZ2pKUftyddtKWet6ecdCQfd9JjndSzDtKFlnzennDQfmu1+9kUXOQfEPsG61zdleNKxpjgiYuVNMUjr1YTdlsoe13EHR1+vwt/rCVctJKuWqlXHSmXHcmXnUkXXQkXXdRzHeVYSzjU4g+1hAMtaV9L2ddSZ5szdOw7QLuSPwzXBQxCt/qFg58wXQasC4HDesJFO/WPnvYHJv9CCBdI/AWCu0AIFzDpAqZeQbTffeRfevKlgXQOEs5B3JUB8wfC/4EoJ3DqlunxnO1N4APL/17s7RE5lfkjgnsuNnVGQtxSEE56qWcI6QTFnRmxVwj2XxD7Pwbc/9OT/zWQ/oLE3xDuCom/NGJPYcwJjI3BuBOIcAKSTkHyki6jl3cfaFOKvsNKLygZ17weFSZPsIElMbCjJJx00i6hhEsT5dxMPDXjT02EMxPxHKWcG2kXCO3cQDgD8acQ/joRjj+FMOcI/txIPTSnrdsezw7m+D4wvIPl/j6+Q/3mmzB9jEOKVBDXNaRjA/3URD22EE7MuHNT/BUa/xvB/wYJvyD8JYw7M8afoNhjE+YAjdtHMftG3AFCOIRJRxAl2n2nh3sXaFFWfkGaXGDNcEPBkDjDzcVOS7DLKsrPrqQDKOXARN8zUXdN5D2Usm+kHSKJR3DyEZx0CFEOYPI+TN5Hrh3ApH2YvGukb5nTF21PJwZz3e8ZzgFuAOTbG3I+iW4PsYneCuKChrqjT903Ju2aaLsmyh5KOUApRwjlBKLGYMoRQt5HSTsm4raFuI7i1oz4dYS0AVM2oYRtMHG6815XWTqgbVR+RjodSINdJ3a0MDzKrJDmyWRb5lzPs0Uke8WatWp7tmp9ump5topmrcLPV8Hny4asTWv2pjVry5q9ZcnaMGWuGx+to09WzVlR66up/iLfu/Lx95XjgzKvSeroZg83vB5TPg00PZ3verYKv1hDs9cs2avW7GVL1iL6bBHJXNA/XIQeLSKPF02PfqD3Z413o9ZHi7bMJevTZUv2ivmfVdPLKf0bg+AR0FQr+6jXOuBmV5/M0y10dbC9urKgviyClM2Yy+b7WfM25pyNOW/jzFt58xbhrEk0g/IX3nEX33GWBrhLNs6ShbVoYiyYiufMJVMWdtAqdttq7f0N9v4mp7luHJSMdrHt7QxvZ3GklzEPM3+grHkTa9bCnrJwJi2cCRMnhLInzOwpG2faxpqylkTMRVMWxrSlZMZSMmtmzZrYsyZOoI/ZU34faJVKh3ravHBLCFKEYZnXqPKgap9ZFbTUhy21Eas8iFb7EGnAogzYmv39Wo+tw2VpDQ4oQ9basKk2YpRHkJpJWDpplEZQacgk95nVbnO7w9w9btE5zA1Ok9JlrPfCcj9UEwKrJxH5lLF2Aq0LmZV+i9pra3T1t4zZmsf7m90DTb5+td9S70drQiZZ+P+g8jBaGzLVOXtEHax0oFvIHWmqCbSJJ9pYE+0lPp3Q0y32dQn8neV+LdvfznK1MMfb2M7eKpdRPW5pG7Zov5taHIYql07kbhd4W8oDLdyJVs5Ee1lYywxoy3xavldb4W2XubUyR6fI1S3y9YoDPaJglyCo5U1o+eF2QaBd4NGKXN0VLoNsHFENW9pHza0OtNFtqPd0VXrb+ME2XritPNzGDbaX+7Xl3g7ecCOjqTAZ6Cr4Z0iQ6xBmufjpTkHqaOWT4cqno5LHo8IHY/x7o+V3h4WPhqv/GW0sGeut/G5UfUAbPsKKr42Mkfq8kaocu/ilW/IyWPXSK3niFN4bF90bFz5yCJ45+S/tgpdfxM++VWaNSLPHal7Yq56PS7KckmyHKHuEn/VVmD1U9Z+viryhFs4w2jwKaezd8vEmvl1e7BC/cvKz3fxnbn6mQ5g5Ks78LskcED5S5FCA7n8yvjLue0qT/QxcsBTwcUg+NjnIIoZL8eESXIhBcJWQxnkpzvpsV1fpCCz+hFZ9BgXDssxx4R0766azKCnASJ4uS44wKaHS+GApNlyCjxRTJgvp4eIkR0mCvTTBzkxwsOgednKQnRIuSw2WJrmLE+wldHt5mqPq7rjmlddU5zVIvW1cj+yNi/PAmZcUKkyaLKJHimjBEqqXSXGWUd6z6PJ/8AD8NtUrSJ8X0RZFcStiYFGMXRRhV0Rxa0JgTQisCONmBPEhSUJI+STUyfAYKobBmuHuijHJUyf7tqs4MVhMmWVRlvikJRE2KgYWJMCiCFgRxG3w4jfK8VEecY5PmBbgpkS42QrCQiVxuYK8LCZHBeRZEW1amjKlyAi0/sdrrvcbqvwtTG/lMy8zJfAWt1BKXGUT13jEFRExWkGcryTaJUnKt3TgPS9lQZ2+10g91MQda4BDJeZIiTlWAjElcKwEDlTATw1xtTFtoTV7TlcW6at1d2scrXVO8WsP536QlbbAS9qRJR9paPtNuJ/NwHYLsNMMHDYAZyrgUoE5ryPElIR9TfxWE2azOW6r+cZ+E/a4ER9roO43Jm0131xpzZjseuWyaryQzNfC9FU8DpUlzJZg1vnY3UrskQJ/3EQ+aqXsNZOnGtI7yh8B36vSNrTpZ7qEqy7sr07gqpdy2Ue56iNc9eEu9bhzA+FQn7DZd3PRkP0DZUbMVS6odlxX6ah+5hHeCgkSl6oTDpoSz3W0Mz0xBmKP4LgTEHOux/7uwf3VEX93ki+6ibFe/IEBewBiDg1xp/r4817CRQ/1pDdpX39rG7zzw5jrHWzxmxQ+LcctzfRy6RFm3LoUv6ckHLeSTnTUWB/1sJcyq71zXXdUnrrVk34OJvwyxP8B434Z6Vdo4i+U9gulXJrI52bqoSlpC01fNj2ftzEiNrHTWDXWzRuruucU0P0CUlRGOmilnfdSLmDSGYo/McefmXAXRuJvmPwHov6BaJcI5QwlxSz4mAV3ao6/QAlXCPkKTjhDUo/Q9F3TvSVrvn+wLYCqvO1cZ9VTF4ceYMatySl7TZTjLtqpgR6DE44g6pzu7nXdLzL6cu/NQ5h6AmPOkLgYRI+BKTEwMQbRjmHqIULbQVLWkTtRY/a8hRGxiNxwhUPHHZVkOHg0H48wLyXsNlJPu6hnfaSYAX8M4o9BYsxAOe1LOOtLOIcTT5GEE5RybCIdm4gnKOEcIV9CtAso6QS6dQjf2zU+WjYVBi2tIVAVaOG7K5+7OanBMsKqnL7TRD/UJcbApBiceAjRZnX3rutaZWmRvgcr6O1NU+K2KWkTfLRpeLppeLwJPtyE7q9DD5agJ/Pg82m4YMoiDNsUblTl6KsZr89xVj32VN6Zrr+z0f7woPfBvuHuDpi+Dd7ZAu9vgo83DU83wKcbcOY68ngdebhuvLdpvLONZOwh9w/gR/vwsx34n03kzZoxb87E91nb/Uijt6PCVZfvqsz0V2TMq+8vt91f73u4bXy8bXq0hd6P9GRd1wXrHzmhV1O2F3P9mdH+rKixKIqURo3FUWNhFM1fQPOnkcIQxAgaBWGbMjTY6e7XOZBWT4fY3Vji1eRNtuetGIp+okXbpvx1U+6quWDJzIiay35YuHOW8oiJOWkqmUKLZ9H8eePbKJK7guavoUWraOkSyl0wCedNkoi1zj3Y5bW2ufV1jhauQ13g1bwOt+dM9eTMG/MWbYVLAwWLtrygoeC6bqc6f9gqCn4WT3zmT37khy0Vk9bqmYHq2UHpzGDF1DvxxDtJ8F21753C/a7ZOdA1PtDnHOj1WZqCZmXYLJ80V06bhbNm7uJ70eKniskBkdcidlik9v46+3v194G6sXd1rne1wYGaCVvlpEU8bZVM2yonbdIJmzzYrwz0q93vGr8Ptoy+a3L2a/xWRchSO2GpnrBJwwOVwXcVwUFJcFASeidxwYIufibQpOF+sCjHBpXjNrkLlXp6RYFeUcggCoP8IMjx6Zk+kO2H+F5I4oFqXKDCCWpcoMbVV+PWV3r0Qp+eG9CzQn0lEZAVgThePdduEA4bZcP9DcMf2r8MtH6zNo6hShdY49NLQr2CsF4QMggCoNAHSryQ1APVOOGaYbhyDKpwgBK3Xuy9JvJCYjcsdiISF1Lhhiu8UOVIF6+l7D6gbKi0mNo+mdo+9qq+tEnttYXe2rf++lyf4rWn/oWzLtNd/8yrfOFR/sejfONR5Hvqi931DKeiwKHKHVe9dqr+cauyfMqnvvpnnrrnjvrXIw2M4S7xKKKy29q/o23DvaqR1kq7iu2uKwrU5fnrc3yKV27VK5cqx6nKdSrzHKq3dvWr6yhljlvxxqV461Dm21WFo+qiYQ1jRF06pmI6FKzP8kJV4U1A01AxgDR/0Td8apR+rWaNld7xMlP97NQANznATfByiD4O0c8hBTiUADshWJYUYqUEWWkeTqqbm+wqp7vLKZ5yUoBDCJSRAyy6l3PbJclyqYq9uooApHDr5E4Nb0ySO8567C+9M8m6OVGWGGRTfRyKl0vxcqk+Du3/BNgJATY9WJbkZ6d4OGkO7k17+a1RXrq9PMPBzXCzMz6x79XlJgHNDcJPkGZMpxiuE4yW546/IQXysBOM+Oky3CwHO8u9McMGZljALBOYKwV+lAALjBs/SjAzZfhJDi7CxUa4N6a4wCwbmGfFzTMJ0+ykiPhhWPk23MmbNFQHtUKPPH+c9cD5JiH8hrBQEB9l3JgvvQ6cLrs2w7pe51EWsMgEFpk3okzMPCt+ugwfYuP8HLyPgw+w8eEyfISFGy6j171NAto17BGwzt9Z7a1mecpeeApxIeaNGT5uUUpcqyVtKIgb9biNOsx2LWZHht2tid+vxu9VE7frEjYUtDUlZU1FWlcSt+sJO7XUnzVJ67KMBeXTaW3BJCyYtlaH9DyvKsfOve3Kx08VYdbYcbuV2F3Zje1aYKvu2s9aYE8OxGRxMRk2Jos/lOP3aonb9aQVBSGqJCyo8IvK+BUFdr0OE5AlqgvTgA4VaxSqDeiq3PISJ+eJryRuhgesyYj7jQnH7YmxDlqsk3zSSTrtJJ51ks46SOcd5HMt9awz6bQr6URHP9XRzrqol52Uq46Ec23KkfbOpi4rCubPWLjT/RUhg8CnznVzM0KFxCUm7kAUf9lAvuggxHTYmA5z2hV32RH3S4v51Yn/1Un41Um87CSdd5FOdeQjHemgm3jQTTzsJhzp8DEdbq4trYlz+7ruMCj39lSO1RV9595zl1x/pewoiWcdib96ky56qRd95IvrgU78341OOAOJZyD5Qk+90lN/6Sm/+sh/+oh/+/B/9aTfIO0UvrljfLxkzpmxlkSsfH+f0Kt462FnTBWQt8oIZ1WEP1rapYF0jMTHEMw5hPmrx/ztw55D8f/VQm9aqzgDaFeyvxpqnd3S4XrGEPehsxSYEQKbSmKsM+miL+VcTz8z0E5ByilEPoFIMZgUg8kxiHoMJcSghJNr1DOQfA4SLyDKGUI/QG+tm5/M23ImBkoCAzwvLHBocuzltwPFxBUeKVZPPdclxmDKrom4hxIOjYQziHABEk4hwgn8X8z33m6W3AWaFeUf9YqxHvk3NWdI/MLBI0eqSMualJ9dGYfg3UM44wC+tQ+n7SGpu0jqjjF1x5i2Y7z503h725j+03h7B7m1i6TtI8kHxrQ9NH3T/Chq/ScyUOQd5LgGxQ6zZLS1YLjioYebHK1K3W9KP9Df2TbeXLOkrplTNk0pe0jqPpy6i6T8V5P6R42Sh4CmXvjO0DgKNnxvl35TlDprM0OaRzParMW+f1bgl2vGF6to1gr6dNn0dMn0dNH8dNH0bNGUvWh6HjU9j5qfL5qyl0zPVtDMVfOzFcvzBWvOZD/DM8gf+1A1/KH2u03+vad8WJ3rkWfPaZ5vdL5cg15GTdmz1qw5a9aCOWsZzV5BsxdNWf+VB3ytqsj8/2SU5uFdDGbEAAAAAElFTkSuQmCC;" vertex="1" parent="1">
          <mxGeometry x="464.76" y="500" width="27.62" height="20" as="geometry" />
        </mxCell>
        <mxCell id="mWnzP0U88Y1ZApxrXtzR-30" value="" style="shape=image;verticalLabelPosition=bottom;labelBackgroundColor=default;verticalAlign=top;aspect=fixed;imageAspect=0;image=data:image/png,iVBORw0KGgoAAAANSUhEUgAAADoAAAAqCAIAAABtD9/kAAAaiElEQVRYCYXZZ1daXaM14B1BOog1iaYnJprceRJjrCgISFdRUGl2UbHALmyaxjRTLEivYo/YW+xiT7nf87Pe4Tk/4Bnj+rTGGnPNr3MsQJ1JN+amfCygDxWQv+bjvuQDX/OAr2+xX94Sht5SPuZRBwoTrKVJVsG9D8o3nzu4H3UVQ+2i98yHHwrS3ucmDOVRvuUTv73FfM+9MXwN8z0X9/0N8dsb8pe3+I+FwKcCYCj/xtfrC9jhXMxIPvZbPuZTHmYwn/iekfyJff+9+NWnVun3VumomvdNlPO56O7nV7Th1+SxHNLYW9JwAWWokDpYSOnNTyh/ggc6X9O/cm/5xGnhisRJCXlWCMwLgHkBdlaAnxEQJ4XkoITmrU72qh+GdPkTqCholk1AVV7efX9pkp9BmWSRFnjkJT5+iYdZ4t1Y4t1Y5GGiPNwCD/+Dj50TAvNCYIF/fbhcjlkuj1sTxS+L4+eE2EkhIVKROC27G254HTLWRyD5ZAcvWPPSW3YrUECcYRAWmPilcuKCiDwtIQfFxE+CxNq8ZMBYmuCX31pqTFtvStxqJO2pMfsqzL4St6fC76iIW2ryahM92pY22/VoGnw7gZZ7YYmvqzzATw8zqeFS/A8efruafFhHOlbgjxXYYwXmSIk9UMbvK3H7Kuy+GjhU3jhSYGP18Sd18Sf12HMN4aQBv6vGrauJq02J6+0Z0Z6coKV2ApGGtUyf9ImHSQvlAWtc3L6EcCynHKqpW43kJQ3BpUhp5dwBPkmSF7R3Dw3pJ4aksz7y7x7i327Sn27y727KVQ/tvJd+bEjdgTPWjM8WLQXTVr4XrnB3cv2i9CCHEubio1XE/YaEyw76727a7x7Srx7CVS/hspd40Xftqhf3u4fwp5v8r47yv0j/00f500c66SHsdpO39Uk7cMaK+Y2vXx40Vga0DF/1Qz+bMlUM7FcQLuvJ/7bS//Ykn+npuz2kiPZWl+gBMFSduNyTfoyknCLkMxD7xxD/V4/7q8f/1RN+G4gXICmG0PfQmxumJ8u2gtl+UQCVerv5DmGak4N3c+Omq+O3W6lnevoFRDmH8Wcw9hTBnhixsf91DmMvIdwVSPhlIP02EH8b8L8R/AUSvw/GbRiwKxBpzZQ8b3vhtFW7EZG7vcBdfc/PJc8wgb1K7IUS96+W/K+Bdg6Tdw24SFdqt+QB8LEmca779haUuAuTjhD8JUz+DZJ/g5RfIOUKop7DtCOYvmu8uWl5tmwrnLEKAsaqQJ9ohJ/i4JE8Qvy0nLjZRj8BU87RpFOUcmwkHCDx+0bcvplwaCEdI4RjkBDTE0/6SOd68hVIPocIMQS3b8Rvo+R1M33FkjrX/0/ws9JvrvB0FLjlDzw8cqgE2KzExJT4Xx2U3yD9FKFtG/ChjhQtPwMYkN+a7Hu4ZszYNKXumlP24Fv7UPrBtYx9KGMXztiE764gj6PmnBkLK2CqdCC1zr7qEWnmeOUdV/XtsPL2ovbeT+jRvvnRnuXetun2uvHmKnpr1Zy+Zs7YMN7ahG5v6W/v6DMOwLsx5O4BcnvXmLaFpq2Z05cs939Yn0T6C10fG8dNstGuslHli/HKdC+fEpUnbjWkHOoyDuF7P413lqCb3q77naL7AFr3OAi9XrS+XLFlrfZnL5hzf5gKF0xFUbQ4ihYvmIpmTYxJc1nQKvTYaketzV9Mnd9grb1V5Gxmu1pKA1rGdF9J1Fi6YmMtD5T+sDJmzMWTZsakpXTKVjptLpxFi+bg4ijMWEVLt8zMDXPRqjl/yZL/w1Y008+c7Of63sm/fugdsmo/G+q/dghGmhlOdU64NWdOl7sEFy5ZSuatjIip0NFX0FORCejr37gR7nQ/e8bGmLYWT/aLIzbplLV6xiKbNctnzbJpq3zSVhfsV7psTaO2rm82w7DF4ENag5A6CNWHIfkUKpux1Mz118z0V09YqwMWmd9S57ep/QOqwIAsaK0JmWom0Zo5k2zRIouaK3+YxfMW8Yy1KmKThW0Kz0Dr9/fwt/7eb6b2UVjlNNT49ZKwQTSFiOYsVfMDsukBWdhW4wBF3ZIsoEtRNmKUe201bpPQifA8aLXXWOtH6kOQcgJURQzKCKwMIwofrBgHlcNQ4zdYO4x0euAWH9Tgh1UBuC4AywNIjQ+qdoPVDrDODqnHja1Os87Vr3MPtrhtDS6jygMq/Pq6sEE+oa8K6yvC+oqAQeoFa92gchxqGka7viPtw2DDmKHeBcn8sNRnkATAihAsDRvlQaTOC9WNdFW0l2cCWqVkCGkcNam/GKqHdDx7c4G7Md+rKQqoGGFlyYSCMakujqgLfcpcR/2bUUXeiJox2sgcaygcb8p3NuU5m3JdTTmOhld2zatRzZuRhqKRFs54Z6W7T+GDVT5TlQcSOXXl4y1Mp6bIo8rzq9/4Na/9mtdeTa5bU+DUlDgamPYGpl1dbFflj6ty3A2v/E0vPZrnHvVzr/qlV/Xao8x11+cNyfI0jIdAs0r60dg6gqiGOoSfVQXfhQ+cgrsewT0//16w/E6Ic2ui/FaElxbgJrs5SU5OqpN328m/a+fcspfftPNvjgtSxvmJ4zyak0d38VIdwvv26pd2TZmzq8ZjUHgNFW5t2bgi1y556uDfdfPSvMIUrzjJI0nyiFN9onS/4J6Pf9/Bu+Mov+3gpjq5SR4e3ceneflUL4/q5SV4eInu8hQXN/UjN0PxNg3QaKQf0BYHJB/RFH4TPBgtpPuKEyKshNky6iwTN1MEzBUDCyXAj1JgvhQzV4KbLSHMlZBn8shTBeRwESFUjA0XA1PFwI8iIFqEmSmhBvkP3QqGs7fOY2r19MicSuZYeaY9j+59iw0XABMsIMQFguXABAeYYWIWi/HRItIEgxxhEKcY+Jli7Gzxjdni6+d+MIE5FjBTBkyVxU2yMcNsiuI1GWhSS4aMGjdYNa5+M8a/7WGQp1jkRQFtvZK2WUXeqIzfqMJsSjEb1dj1aty6lLQmpaxX0bYrkzarktZqElZl5DUZYbMG+1Ma/7OSsCpNmql/HNQWe5Bqr63B1V3tUJaO8Z46ihODJYRZbtyiFButjVuou7Ekj1urjt+pIOxUULZqErdk9G0ZbVtG/ikj/pThN2uwG9WY9Rrsak38sgy/LCP4qpNbipKBFpXwG6LwgWKX+j8OfvIEC7fII/ysoR1rEs9a6Wft1FMtMaYlHGuJx1rykZZ2pKUftyddtKWet6ecdCQfd9JjndSzDtKFlnzennDQfmu1+9kUXOQfEPsG61zdleNKxpjgiYuVNMUjr1YTdlsoe13EHR1+vwt/rCVctJKuWqlXHSmXHcmXnUkXXQkXXdRzHeVYSzjU4g+1hAMtaV9L2ddSZ5szdOw7QLuSPwzXBQxCt/qFg58wXQasC4HDesJFO/WPnvYHJv9CCBdI/AWCu0AIFzDpAqZeQbTffeRfevKlgXQOEs5B3JUB8wfC/4EoJ3DqlunxnO1N4APL/17s7RE5lfkjgnsuNnVGQtxSEE56qWcI6QTFnRmxVwj2XxD7Pwbc/9OT/zWQ/oLE3xDuCom/NGJPYcwJjI3BuBOIcAKSTkHyki6jl3cfaFOKvsNKLygZ17weFSZPsIElMbCjJJx00i6hhEsT5dxMPDXjT02EMxPxHKWcG2kXCO3cQDgD8acQ/joRjj+FMOcI/txIPTSnrdsezw7m+D4wvIPl/j6+Q/3mmzB9jEOKVBDXNaRjA/3URD22EE7MuHNT/BUa/xvB/wYJvyD8JYw7M8afoNhjE+YAjdtHMftG3AFCOIRJRxAl2n2nh3sXaFFWfkGaXGDNcEPBkDjDzcVOS7DLKsrPrqQDKOXARN8zUXdN5D2Usm+kHSKJR3DyEZx0CFEOYPI+TN5Hrh3ApH2YvGukb5nTF21PJwZz3e8ZzgFuAOTbG3I+iW4PsYneCuKChrqjT903Ju2aaLsmyh5KOUApRwjlBKLGYMoRQt5HSTsm4raFuI7i1oz4dYS0AVM2oYRtMHG6815XWTqgbVR+RjodSINdJ3a0MDzKrJDmyWRb5lzPs0Uke8WatWp7tmp9ump5topmrcLPV8Hny4asTWv2pjVry5q9ZcnaMGWuGx+to09WzVlR66up/iLfu/Lx95XjgzKvSeroZg83vB5TPg00PZ3verYKv1hDs9cs2avW7GVL1iL6bBHJXNA/XIQeLSKPF02PfqD3Z413o9ZHi7bMJevTZUv2ivmfVdPLKf0bg+AR0FQr+6jXOuBmV5/M0y10dbC9urKgviyClM2Yy+b7WfM25pyNOW/jzFt58xbhrEk0g/IX3nEX33GWBrhLNs6ShbVoYiyYiufMJVMWdtAqdttq7f0N9v4mp7luHJSMdrHt7QxvZ3GklzEPM3+grHkTa9bCnrJwJi2cCRMnhLInzOwpG2faxpqylkTMRVMWxrSlZMZSMmtmzZrYsyZOoI/ZU34faJVKh3ravHBLCFKEYZnXqPKgap9ZFbTUhy21Eas8iFb7EGnAogzYmv39Wo+tw2VpDQ4oQ9basKk2YpRHkJpJWDpplEZQacgk95nVbnO7w9w9btE5zA1Ok9JlrPfCcj9UEwKrJxH5lLF2Aq0LmZV+i9pra3T1t4zZmsf7m90DTb5+td9S70drQiZZ+P+g8jBaGzLVOXtEHax0oFvIHWmqCbSJJ9pYE+0lPp3Q0y32dQn8neV+LdvfznK1MMfb2M7eKpdRPW5pG7Zov5taHIYql07kbhd4W8oDLdyJVs5Ee1lYywxoy3xavldb4W2XubUyR6fI1S3y9YoDPaJglyCo5U1o+eF2QaBd4NGKXN0VLoNsHFENW9pHza0OtNFtqPd0VXrb+ME2XritPNzGDbaX+7Xl3g7ecCOjqTAZ6Cr4Z0iQ6xBmufjpTkHqaOWT4cqno5LHo8IHY/x7o+V3h4WPhqv/GW0sGeut/G5UfUAbPsKKr42Mkfq8kaocu/ilW/IyWPXSK3niFN4bF90bFz5yCJ45+S/tgpdfxM++VWaNSLPHal7Yq56PS7KckmyHKHuEn/VVmD1U9Z+viryhFs4w2jwKaezd8vEmvl1e7BC/cvKz3fxnbn6mQ5g5Ks78LskcED5S5FCA7n8yvjLue0qT/QxcsBTwcUg+NjnIIoZL8eESXIhBcJWQxnkpzvpsV1fpCCz+hFZ9BgXDssxx4R0766azKCnASJ4uS44wKaHS+GApNlyCjxRTJgvp4eIkR0mCvTTBzkxwsOgednKQnRIuSw2WJrmLE+wldHt5mqPq7rjmlddU5zVIvW1cj+yNi/PAmZcUKkyaLKJHimjBEqqXSXGWUd6z6PJ/8AD8NtUrSJ8X0RZFcStiYFGMXRRhV0Rxa0JgTQisCONmBPEhSUJI+STUyfAYKobBmuHuijHJUyf7tqs4MVhMmWVRlvikJRE2KgYWJMCiCFgRxG3w4jfK8VEecY5PmBbgpkS42QrCQiVxuYK8LCZHBeRZEW1amjKlyAi0/sdrrvcbqvwtTG/lMy8zJfAWt1BKXGUT13jEFRExWkGcryTaJUnKt3TgPS9lQZ2+10g91MQda4BDJeZIiTlWAjElcKwEDlTATw1xtTFtoTV7TlcW6at1d2scrXVO8WsP536QlbbAS9qRJR9paPtNuJ/NwHYLsNMMHDYAZyrgUoE5ryPElIR9TfxWE2azOW6r+cZ+E/a4ER9roO43Jm0131xpzZjseuWyaryQzNfC9FU8DpUlzJZg1vnY3UrskQJ/3EQ+aqXsNZOnGtI7yh8B36vSNrTpZ7qEqy7sr07gqpdy2Ue56iNc9eEu9bhzA+FQn7DZd3PRkP0DZUbMVS6odlxX6ah+5hHeCgkSl6oTDpoSz3W0Mz0xBmKP4LgTEHOux/7uwf3VEX93ki+6ibFe/IEBewBiDg1xp/r4817CRQ/1pDdpX39rG7zzw5jrHWzxmxQ+LcctzfRy6RFm3LoUv6ckHLeSTnTUWB/1sJcyq71zXXdUnrrVk34OJvwyxP8B434Z6Vdo4i+U9gulXJrI52bqoSlpC01fNj2ftzEiNrHTWDXWzRuruucU0P0CUlRGOmilnfdSLmDSGYo/McefmXAXRuJvmPwHov6BaJcI5QwlxSz4mAV3ao6/QAlXCPkKTjhDUo/Q9F3TvSVrvn+wLYCqvO1cZ9VTF4ceYMatySl7TZTjLtqpgR6DE44g6pzu7nXdLzL6cu/NQ5h6AmPOkLgYRI+BKTEwMQbRjmHqIULbQVLWkTtRY/a8hRGxiNxwhUPHHZVkOHg0H48wLyXsNlJPu6hnfaSYAX8M4o9BYsxAOe1LOOtLOIcTT5GEE5RybCIdm4gnKOEcIV9CtAso6QS6dQjf2zU+WjYVBi2tIVAVaOG7K5+7OanBMsKqnL7TRD/UJcbApBiceAjRZnX3rutaZWmRvgcr6O1NU+K2KWkTfLRpeLppeLwJPtyE7q9DD5agJ/Pg82m4YMoiDNsUblTl6KsZr89xVj32VN6Zrr+z0f7woPfBvuHuDpi+Dd7ZAu9vgo83DU83wKcbcOY68ngdebhuvLdpvLONZOwh9w/gR/vwsx34n03kzZoxb87E91nb/Uijt6PCVZfvqsz0V2TMq+8vt91f73u4bXy8bXq0hd6P9GRd1wXrHzmhV1O2F3P9mdH+rKixKIqURo3FUWNhFM1fQPOnkcIQxAgaBWGbMjTY6e7XOZBWT4fY3Vji1eRNtuetGIp+okXbpvx1U+6quWDJzIiay35YuHOW8oiJOWkqmUKLZ9H8eePbKJK7guavoUWraOkSyl0wCedNkoi1zj3Y5bW2ufV1jhauQ13g1bwOt+dM9eTMG/MWbYVLAwWLtrygoeC6bqc6f9gqCn4WT3zmT37khy0Vk9bqmYHq2UHpzGDF1DvxxDtJ8F21753C/a7ZOdA1PtDnHOj1WZqCZmXYLJ80V06bhbNm7uJ70eKniskBkdcidlik9v46+3v194G6sXd1rne1wYGaCVvlpEU8bZVM2yonbdIJmzzYrwz0q93vGr8Ptoy+a3L2a/xWRchSO2GpnrBJwwOVwXcVwUFJcFASeidxwYIufibQpOF+sCjHBpXjNrkLlXp6RYFeUcggCoP8IMjx6Zk+kO2H+F5I4oFqXKDCCWpcoMbVV+PWV3r0Qp+eG9CzQn0lEZAVgThePdduEA4bZcP9DcMf2r8MtH6zNo6hShdY49NLQr2CsF4QMggCoNAHSryQ1APVOOGaYbhyDKpwgBK3Xuy9JvJCYjcsdiISF1Lhhiu8UOVIF6+l7D6gbKi0mNo+mdo+9qq+tEnttYXe2rf++lyf4rWn/oWzLtNd/8yrfOFR/sejfONR5Hvqi931DKeiwKHKHVe9dqr+cauyfMqnvvpnnrrnjvrXIw2M4S7xKKKy29q/o23DvaqR1kq7iu2uKwrU5fnrc3yKV27VK5cqx6nKdSrzHKq3dvWr6yhljlvxxqV461Dm21WFo+qiYQ1jRF06pmI6FKzP8kJV4U1A01AxgDR/0Td8apR+rWaNld7xMlP97NQANznATfByiD4O0c8hBTiUADshWJYUYqUEWWkeTqqbm+wqp7vLKZ5yUoBDCJSRAyy6l3PbJclyqYq9uooApHDr5E4Nb0ySO8567C+9M8m6OVGWGGRTfRyKl0vxcqk+Du3/BNgJATY9WJbkZ6d4OGkO7k17+a1RXrq9PMPBzXCzMz6x79XlJgHNDcJPkGZMpxiuE4yW546/IQXysBOM+Oky3CwHO8u9McMGZljALBOYKwV+lAALjBs/SjAzZfhJDi7CxUa4N6a4wCwbmGfFzTMJ0+ykiPhhWPk23MmbNFQHtUKPPH+c9cD5JiH8hrBQEB9l3JgvvQ6cLrs2w7pe51EWsMgEFpk3okzMPCt+ugwfYuP8HLyPgw+w8eEyfISFGy6j171NAto17BGwzt9Z7a1mecpeeApxIeaNGT5uUUpcqyVtKIgb9biNOsx2LWZHht2tid+vxu9VE7frEjYUtDUlZU1FWlcSt+sJO7XUnzVJ67KMBeXTaW3BJCyYtlaH9DyvKsfOve3Kx08VYdbYcbuV2F3Zje1aYKvu2s9aYE8OxGRxMRk2Jos/lOP3aonb9aQVBSGqJCyo8IvK+BUFdr0OE5AlqgvTgA4VaxSqDeiq3PISJ+eJryRuhgesyYj7jQnH7YmxDlqsk3zSSTrtJJ51ks46SOcd5HMt9awz6bQr6URHP9XRzrqol52Uq46Ec23KkfbOpi4rCubPWLjT/RUhg8CnznVzM0KFxCUm7kAUf9lAvuggxHTYmA5z2hV32RH3S4v51Yn/1Un41Um87CSdd5FOdeQjHemgm3jQTTzsJhzp8DEdbq4trYlz+7ruMCj39lSO1RV9595zl1x/pewoiWcdib96ky56qRd95IvrgU78341OOAOJZyD5Qk+90lN/6Sm/+sh/+oh/+/B/9aTfIO0UvrljfLxkzpmxlkSsfH+f0Kt462FnTBWQt8oIZ1WEP1rapYF0jMTHEMw5hPmrx/ztw55D8f/VQm9aqzgDaFeyvxpqnd3S4XrGEPehsxSYEQKbSmKsM+miL+VcTz8z0E5ByilEPoFIMZgUg8kxiHoMJcSghJNr1DOQfA4SLyDKGUI/QG+tm5/M23ImBkoCAzwvLHBocuzltwPFxBUeKVZPPdclxmDKrom4hxIOjYQziHABEk4hwgn8X8z33m6W3AWaFeUf9YqxHvk3NWdI/MLBI0eqSMualJ9dGYfg3UM44wC+tQ+n7SGpu0jqjjF1x5i2Y7z503h725j+03h7B7m1i6TtI8kHxrQ9NH3T/Chq/ScyUOQd5LgGxQ6zZLS1YLjioYebHK1K3W9KP9Df2TbeXLOkrplTNk0pe0jqPpy6i6T8V5P6R42Sh4CmXvjO0DgKNnxvl35TlDprM0OaRzParMW+f1bgl2vGF6to1gr6dNn0dMn0dNH8dNH0bNGUvWh6HjU9j5qfL5qyl0zPVtDMVfOzFcvzBWvOZD/DM8gf+1A1/KH2u03+vad8WJ3rkWfPaZ5vdL5cg15GTdmz1qw5a9aCOWsZzV5BsxdNWf+VB3ytqsj8/2SU5uFdDGbEAAAAAElFTkSuQmCC;" vertex="1" parent="1">
          <mxGeometry x="464.76" y="370" width="27.62" height="20" as="geometry" />
        </mxCell>
      </root>
    </mxGraphModel>
  </diagram>
</mxfile>
